<svg xmlns="http://www.w3.org/2000/svg" xmlns:xlink="http://www.w3.org/1999/xlink" viewBox="0 0 1094.429 582.427">
  <defs>
    <style>
      .cls-1 {
        fill: #494a63;
      }

      .cls-2, .cls-7 {
        opacity: 0.1;
      }

      .cls-3 {
        fill: #161739;
      }

      .cls-4 {
        fill: #3f3d56;
      }

      .cls-5 {
        fill: #65617d;
      }

      .cls-6 {
        opacity: 0.2;
      }

      .cls-8 {
        fill: #6c63ff;
      }

      .cls-9 {
        fill: #d4dfec;
      }

      .cls-10 {
        fill: #fbbebe;
      }

      .cls-11 {
        fill: url(#linear-gradient);
      }

      .cls-12 {
        fill: none;
        stroke: #4f516e;
        stroke-miterlimit: 10;
        stroke-width: 2px;
      }
    </style>
    <linearGradient id="linear-gradient" x1="0.5" y1="1" x2="0.5" y2="-0.001" gradientUnits="objectBoundingBox">
      <stop offset="0" stop-color="gray" stop-opacity="0.251"/>
      <stop offset="0.54" stop-color="gray" stop-opacity="0.122"/>
      <stop offset="1" stop-color="gray" stop-opacity="0.102"/>
    </linearGradient>
  </defs>
  <g id="undraw_programming_2svr" transform="translate(-0.011 -0.035)">
    <path id="Path_900" data-name="Path 900" class="cls-1" d="M1089.9,633.487q-1.829,3.941-3.647,7.778-2.838,5.959-5.6,11.688c-.82,1.692-1.64,3.353-2.438,5.014-9.039,18.467-17.479,34.8-24.647,48.232A76.947,76.947,0,0,1,986.5,746.874l-159.391,1.734h-1.682l-13.664.147-11.688.126-35.841.389h-1.451l-18.246.2h-.557l-112.462,1.219L531.131,751.74l-11.677.126-72.522.788h-.084l-47.034.5h-.5l-148.723,1.608-44.491.484a92.567,92.567,0,0,1-28.031-4.015,90.8,90.8,0,0,1-41.085-26.013c-19.108-21.053-33.034-45.616-42.389-72.27q-2.029-5.77-3.784-11.688C58.424,531.8,97.9,390.569,168.952,296.059q4.467-5.928,9.081-11.561l.074-.084c21.851-26.823,46.351-49.231,72.449-65.165C296.8,190.965,348.039,183,398.437,206.741c42.641,20.1,82.455,29.545,121.049,32.109,3.9.252,7.8.441,11.677.557,88.529,2.785,171.5-29.114,268.931-49.7,3.878-.82,7.767-1.629,11.688-2.4,69.506-13.832,146.61-21.126,238.3-5.791a198.733,198.733,0,0,1,28.126,6.727q6.065,1.955,11.688,4.2c43.765,17.8,67.635,50.7,77.777,91.924q1.44,5.739,2.491,11.677C1188.15,395.2,1135.482,535.855,1089.9,633.487Z" transform="translate(-79.34 -172.91)"/>
    <g id="Group_13" data-name="Group 13" class="cls-2" transform="translate(11.466 14.366)">
      <path id="Path_901" data-name="Path 901" class="cls-3" d="M245.762,217V752.634l-44.491.483A92.569,92.569,0,0,1,173.24,749.1V282.165h.074C195.165,255.311,219.665,232.9,245.762,217Z" transform="translate(-86.014 -185.027)"/>
      <path id="Path_902" data-name="Path 902" class="cls-3" d="M1165.868,290.646H164.6q4.467-5.928,9.081-11.561V279h989.7Q1164.817,284.707,1165.868,290.646Z" transform="translate(-86.455 -181.862)"/>
      <path id="Path_903" data-name="Path 903" class="cls-3" d="M1041.388,191.716v448.8h-3.647q-2.838,5.959-5.6,11.688c-.82,1.692-1.64,3.353-2.438,5.013V187.47Q1035.765,189.425,1041.388,191.716Z" transform="translate(-42.295 -186.535)"/>
      <path id="Path_904" data-name="Path 904" class="cls-3" d="M776.778,186.58V748.1l-11.688.126V188.976C768.968,188.157,772.857,187.347,776.778,186.58Z" transform="translate(-55.802 -186.58)"/>
      <path id="Path_905" data-name="Path 905" class="cls-3" d="M509.787,236.177V748.646l-11.677.126V235.62C502.009,235.872,505.909,236.019,509.787,236.177Z" transform="translate(-69.431 -184.077)"/>
      <path id="Path_906" data-name="Path 906" class="cls-3" d="M1085.695,618.52q-2.838,5.959-5.6,11.688H94.034q-2.028-5.77-3.784-11.688Z" transform="translate(-90.25 -164.531)"/>
    </g>
    <rect id="Rectangle_258" data-name="Rectangle 258" class="cls-4" width="19.97" height="60.603" transform="translate(222.401 279.398)"/>
    <rect id="Rectangle_259" data-name="Rectangle 259" class="cls-4" width="19.97" height="64.114" transform="translate(759.832 276.244)"/>
    <path id="Path_907" data-name="Path 907" class="cls-5" d="M901.741,535.1v13.664L742.067,550.24l-1.7.032-60.687.557-1.45.021-18.446.158h-.547l-112.441,1.041-184.574,1.713h-.158l-46.929.441-.5.011L106.1,556.126V540.36l49.031-29.429,98.378-.82,2.1-.01.694-.01,2.1-.031,47.234-.389,2.113-.011.673-.01,2.1-.011,15.146-.126.4-.01,37.365-.315h.3l291.56-2.459,7.137-.053h.715l5.444-.052,39.572-.326,2.1-.031,1.944-.021h1.009l12.308-.095,2.438-.031,3.269-.021L741.488,506l16.26-.137,2.1-.021,3.658-.021h.683l78.524-.673Z" transform="translate(5.415 25.784)"/>
    <path id="Path_908" data-name="Path 908" class="cls-6" d="M901.741,535.1v13.664L742.067,550.24l-1.7.032-60.687.557-1.45.021-18.446.158h-.547l-112.441,1.041-184.574,1.713h-.158l-46.929.441-.5.011L106.1,556.126V540.36l49.031-29.429,98.378-.82,2.1-.01.694-.01,2.1-.031,47.234-.389,2.113-.011.673-.01,2.1-.011,15.146-.126.4-.01,37.365-.315h.3l291.56-2.459,7.137-.053h.715l5.444-.052,39.572-.326,2.1-.031,1.944-.021h1.009l12.308-.095,2.438-.031,3.269-.021L741.488,506l16.26-.137,2.1-.021,3.658-.021h.683l78.524-.673Z" transform="translate(5.415 25.784)"/>
    <path id="Path_909" data-name="Path 909" class="cls-4" d="M377.848,656.57v25.74a6.443,6.443,0,0,1-3.679,5.823,6.3,6.3,0,0,1-2.628.631l-36.681.778a6.306,6.306,0,0,1-2.838-.6,6.432,6.432,0,0,1-3.752-5.854V656.57Z" transform="translate(-66.634 -148.223)"/>
    <path id="Path_910" data-name="Path 910" class="cls-7" d="M377.848,656.57v25.74a6.443,6.443,0,0,1-3.679,5.823,6.3,6.3,0,0,1-2.628.631l-36.681.778a6.306,6.306,0,0,1-2.838-.6,6.432,6.432,0,0,1-3.752-5.854V656.57Z" transform="translate(-66.634 -148.223)"/>
    <path id="Path_911" data-name="Path 911" class="cls-4" d="M379.848,656.57v25.74a6.443,6.443,0,0,1-3.679,5.823,6.3,6.3,0,0,1-2.628.631l-36.682.778a6.306,6.306,0,0,1-2.838-.6,6.432,6.432,0,0,1-3.752-5.854V656.57Z" transform="translate(-66.532 -148.223)"/>
    <rect id="Rectangle_260" data-name="Rectangle 260" class="cls-4" width="49.578" height="33.108" transform="translate(715.688 508.347)"/>
    <rect id="Rectangle_261" data-name="Rectangle 261" class="cls-7" width="49.578" height="33.108" transform="translate(715.688 508.347)"/>
    <rect id="Rectangle_262" data-name="Rectangle 262" class="cls-4" width="49.578" height="33.108" transform="translate(713.586 508.347)"/>
    <path id="Path_912" data-name="Path 912" class="cls-7" d="M231.57,265.82v6.022l-19.97-.515V265.82Z" transform="translate(10.801 13.567)"/>
    <path id="Path_913" data-name="Path 913" class="cls-5" d="M446.111,278.194l-24,172.371a4.52,4.52,0,0,1-4.593,3.9l-192.131-4.982-3.647-.095a4.52,4.52,0,0,1-4.372-5.119L244.31,263.826a4.519,4.519,0,0,1,4.772-3.815l192.825,13.054a4.509,4.509,0,0,1,4.2,5.129Z" transform="translate(-72.297 -168.466)"/>
    <path id="Path_914" data-name="Path 914" class="cls-8" d="M176.917,99.16,156.6,258.215l176.576,5.6L354.89,110.364Z" transform="translate(7.993 5.06)"/>
    <rect id="Rectangle_263" data-name="Rectangle 263" class="cls-5" width="215.117" height="182.178" rx="5.33" transform="translate(404.232 101.76)"/>
    <rect id="Rectangle_264" data-name="Rectangle 264" class="cls-8" width="195.494" height="151.697" transform="translate(414.385 114.026)"/>
    <path id="Path_915" data-name="Path 915" class="cls-7" d="M742.9,262.82V266.8l-19.97.41V262.82Z" transform="translate(36.902 13.414)"/>
    <path id="Path_916" data-name="Path 916" class="cls-5" d="M917.691,441.5a3.237,3.237,0,0,1-3.153,3.447L717.782,449.01a3.237,3.237,0,0,1-3.29-2.932L697.581,270.259a3.237,3.237,0,0,1,3.069-3.542l195.263-9.712,2.1-.105a3.227,3.227,0,0,1,3.384,2.943Z" transform="translate(-47.783 -168.625)"/>
    <path id="Path_917" data-name="Path 917" class="cls-8" d="M628.93,103.586,807.261,94.82l15.062,159.759-176.922,4.2Z" transform="translate(32.103 4.838)"/>
    <path id="Path_918" data-name="Path 918" class="cls-7" d="M908.058,441.5a3.237,3.237,0,0,1-3.153,3.447L886.28,257.005l2.1-.105a3.227,3.227,0,0,1,3.384,2.943Z" transform="translate(-38.15 -168.625)"/>
    <path id="Path_919" data-name="Path 919" class="cls-7" d="M249.114,260,225.391,449.483l-3.647-.095a4.52,4.52,0,0,1-4.372-5.119L244.31,263.826A4.52,4.52,0,0,1,249.114,260Z" transform="translate(-72.297 -168.467)"/>
    <rect id="Rectangle_265" data-name="Rectangle 265" class="cls-7" width="19.97" height="17.952" transform="translate(222.401 322.049)"/>
    <path id="Path_920" data-name="Path 920" class="cls-7" d="M300.508,483.65v5.224L250.93,490.2V483.65Z" transform="translate(12.808 24.686)"/>
    <path id="Path_921" data-name="Path 921" class="cls-5" d="M470.874,485.472V662.257a4.2,4.2,0,0,1-4.047,4.152l-201.433,5.36h-.053a4.2,4.2,0,0,1-4.152-4.152V485.472a4.2,4.2,0,0,1,4.152-4.152h201.38a4.2,4.2,0,0,1,4.152,4.152Z" transform="translate(-70.058 -157.169)"/>
    <path id="Path_922" data-name="Path 922" class="cls-7" d="M265.394,481.32V671.769h-.053a4.2,4.2,0,0,1-4.152-4.152V485.472a4.2,4.2,0,0,1,4.152-4.152Z" transform="translate(-70.058 -157.169)"/>
    <path id="Path_923" data-name="Path 923" class="cls-9" d="M194.6,319.15H381.161V474.967l-186.561,4.2Z" transform="translate(9.933 16.289)"/>
    <rect id="Rectangle_266" data-name="Rectangle 266" class="cls-7" width="19.97" height="18.309" transform="translate(759.832 322.049)"/>
    <path id="Path_924" data-name="Path 924" class="cls-7" d="M728.508,483.65v6.737l-49.578-1.324V483.65Z" transform="translate(34.656 24.686)"/>
    <path id="Path_925" data-name="Path 925" class="cls-5" d="M877.876,485.472V667.618a4.2,4.2,0,0,1-4.2,4.152h0L672.2,666.409a4.2,4.2,0,0,1-4.047-4.152V485.472a4.2,4.2,0,0,1,4.152-4.152h201.38a4.2,4.2,0,0,1,4.194,4.152Z" transform="translate(-49.284 -157.169)"/>
    <path id="Path_926" data-name="Path 926" class="cls-7" d="M867.894,485.472V667.618a4.2,4.2,0,0,1-4.2,4.152h0V481.32h0a4.2,4.2,0,0,1,4.2,4.152Z" transform="translate(-39.303 -157.169)"/>
    <path id="Path_927" data-name="Path 927" class="cls-9" d="M784.66,319.15H598.1V474.967l186.56,4.2Z" transform="translate(30.53 16.289)"/>
    <path id="Path_928" data-name="Path 928" class="cls-5" d="M673.374,485.472V662.257a4.2,4.2,0,0,1-4.047,4.152l-201.433,5.36h0a4.2,4.2,0,0,1-4.2-4.152V485.472a4.2,4.2,0,0,1,4.152-4.152h201.38A4.2,4.2,0,0,1,673.374,485.472Z" transform="translate(-59.721 -157.169)"/>
    <path id="Path_929" data-name="Path 929" class="cls-9" d="M397.1,319.15H583.661V474.967l-186.561,4.2Z" transform="translate(20.27 16.289)"/>
    <path id="Path_930" data-name="Path 930" class="cls-7" d="M901.741,533.65v13.664l-159.675,1.471-1.7.032-60.687.557-1.45.021-18.446.158h-.547l-112.441,1.041-184.574,1.713h-.158l-46.929.441-.5.011L106.1,554.671V538.905l212.847-1.4h.5l43.082-.294h.2l297.53-1.965h.3l.179-.01h.494l5.034-.032h1.535l78.292-.526,4.625-.021,1.03-.01Z" transform="translate(5.415 27.239)"/>
    <circle id="Ellipse_50" data-name="Ellipse 50" class="cls-10" cx="53.95" cy="53.95" r="53.95" transform="translate(458.182 232.101)"/>
    <path id="Path_931" data-name="Path 931" class="cls-11" d="M383.74,744.34a1.3,1.3,0,0,1,.105-.368c1.051-3.773,2.922-10.153,4.32-15.251.179-.631.347-1.251.5-1.839,1.545-5.749,4.551-19.213,6.222-27.611.589-2.953,1.051-5.255,1.146-6.411.21-1.776,3.374-9.375,6.958-18.109,2.512-6.138,5.255-12.844,7.263-18.5a64.512,64.512,0,0,0,3.08-10.353,5.36,5.36,0,0,0,0-2.239,15.437,15.437,0,0,1-.5-3.679h0c-.242-6.517,1.7-16.817,4.709-21.136,3.679-5.255,6.306-24.868,6.306-24.868s5.444.788,6.306-3.71a6.468,6.468,0,0,0,.105-1.471,7.79,7.79,0,0,0-.095-1.167c-.935-6.559,15.471-13.538,24.7-15.04a20.657,20.657,0,0,1,3.153-.294,28.626,28.626,0,0,0,6.569-1.513q1.471-.452,3.153-1.051c3.868-1.3,8.492-3.027,13.4-4.919,18.456-7.158,40.8-16.817,40.8-16.817.158-.746.336-1.461.536-2.165a29.124,29.124,0,0,1,17.185-19.9h0v-2.1c0-3.626-.158-7.357-.315-11.078,0-.725-.063-1.45-.105-2.176v-1.188c0-.736-.074-1.471-.116-2.2l-.189-.147a17.248,17.248,0,0,1-4.1-4.414,16.042,16.042,0,0,1-1.492-3.153c-1.314-3.563-1.619-7.536-2.5-11.3l-.189-.778a88.318,88.318,0,0,0-4.2-11.12c-2.323-5.7-4.11-11.562-5.886-17.5q-1.619-5.392-3.269-10.8l-1.661-5.507c-.315-1.051-.631-2.1-.872-3.153h0a13.916,13.916,0,0,1-.273-1.471,10.512,10.512,0,0,1,.252-4.845,33.748,33.748,0,0,1,1.387-3.153,8.274,8.274,0,0,0,.525-1.45h0a3.162,3.162,0,0,0,.084-.336,5.946,5.946,0,0,0,.116-1.135,19.409,19.409,0,0,0-.547-4.089.074.074,0,0,1,0-.053,2.678,2.678,0,0,0-.052-.284,26.816,26.816,0,0,1-.378-3.153,29.9,29.9,0,0,1,3.647-16.365l.2-.378a26.509,26.509,0,0,1,1.934-2.922h0a14.772,14.772,0,0,1,1.051-1.282c-1.471,1.408-3.889.788-5.255-.725a3.8,3.8,0,0,1-.578-.788,4.013,4.013,0,0,1-.242-.473c-.053-.126-.095-.263-.137-.4-.736-2.575.547-5.318,2.228-7.41a19.433,19.433,0,0,1,6.033-4.94h0a4.06,4.06,0,0,1,.421-.221,17.992,17.992,0,0,1,2.775-1.114h0a15.809,15.809,0,0,1,1.713-.462l-3.9-.357-1.577-.147a15.23,15.23,0,0,1,13.664-11.467h1.135a12.317,12.317,0,0,1,1.65.137,4.667,4.667,0,0,1-2.785-4.551,15.145,15.145,0,0,0,9.659,3.216h.4a31.506,31.506,0,0,1-.357-3.437h0a34.855,34.855,0,0,1,0-4.688,8.871,8.871,0,0,0,7.126,2.375L552.5,359.9a9.974,9.974,0,0,0,6.895,2.155l.5-.053a7.36,7.36,0,0,0,1.251-.242h.095c-.2-.252-.378-.515-.557-.788l-.063-.126a10.17,10.17,0,0,1-1.051-2.2,6.911,6.911,0,0,1-.252-.914h0a9.2,9.2,0,0,1,.473-5.728c3.395,2.838,7.116,6.716,11.562,3.784s4.593-8.314,11.561-7.767a10.72,10.72,0,0,1,8.839,6.432,7.1,7.1,0,0,1,8.062-1.839,7.2,7.2,0,0,1,4.078,7.242c2.89-.725,6-1.44,8.776-.347s4.562,4.635,2.985,7a1.5,1.5,0,0,1-.147.21c-1.293,1.671-4.152,2.586-3.847,4.688l.441.315,1.366.988q8.041,5.8,15.661,12.192c2.607,2.186,5.381,4.814,5.56,8.23a9.08,9.08,0,0,1-.252,2.491h0c-.168.82-.4,1.64-.578,2.459a20.507,20.507,0,0,0-.357,6.359h0c.074.62.168,1.23.284,1.85,1.608,8.125,8.1,14.83,8.745,23.123V430a18.7,18.7,0,0,1-.074,2.659c-.483,5.045-2.817,9.89-4.709,14.715-.116.294-.231.589-.336.883-3.647,9.459-5.749,19.539-7.357,29.6a105.358,105.358,0,0,1-2.1,10.605,28.1,28.1,0,0,1-5.35,10.962,17.049,17.049,0,0,1-3.531,3.153,19.629,19.629,0,0,1-2.785,1.482v.063c.116.641.21,1.282.326,1.923.063.336.116.673.179,1.051h0a.143.143,0,0,0,0,.063c.883,4.971,1.892,9.838,2.953,14.462l.536,2.3c13.243,4.782,14.809,14.578,14.9,18.33a10.108,10.108,0,0,1,0,1.5s19.97.526,27.853,6.306a21.378,21.378,0,0,0,4.74,2.418,87.228,87.228,0,0,0,9.722,3.037c1.692.442,3.458.873,5.255,1.293,3.153.725,6.5,1.429,9.722,2.1,8.608,1.734,16.712,3.153,20.821,4.2,9.806,2.48,32.236,23.985,32.236,23.985s2.628,21.694,5.255,24.857,7.357,14.284,7.357,14.284l17.384,30.911,7.357,13h4.73c.652,0,1.934.925,3.374,2.207,1.251,1.114,2.638,2.5,3.857,3.763l2.018,2.155,1.261,1.4s7.641.189,9.712,6.233c6.222-.179,13.863.231,19.213,2.628a14.875,14.875,0,0,1,2.1,1.135,9.123,9.123,0,0,1,4.341,5.949,8.778,8.778,0,0,1,.189,1.513c0,.6,0,1.2,0,1.787-.378,7.956-5.56,14.578-10.321,19.034l.336.6s-.158.378-.462,1.051c-.084.2-.189.42-.3.673h0c-.62,1.324-1.608,3.311-2.9,5.634a66.548,66.548,0,0,1-10.059,13.842l-.3.315-60.687.557-.179-.21-11.772-14.042-5.854-6.979-.179-.221-.168,1.671-.568,5.571-1.366,13.464-.074.673v.179l-.158,1.556.116-1.556h-.3L616.01,741.785l-184.585,2.039v.883h-.147v-.883l-47.034.5Z" transform="translate(-63.802 -163.975)"/>
    <path id="Path_932" data-name="Path 932" class="cls-10" d="M622.567,555.686s-104.579,12.613-94.594,0c3.616-4.562,4.614-18.078,4.414-33.476-.063-4.677-.231-9.523-.473-14.347-1.156-23.123-3.941-45.721-3.941-45.721s91.441-43.093,80.931-8.934c-4.2,13.8-2.827,33.181.368,51.375.935,5.308,2.018,10.51,3.153,15.45a362.266,362.266,0,0,0,10.143,35.651Z" transform="translate(-56.474 -159.276)"/>
    <path id="Path_933" data-name="Path 933" class="cls-7" d="M622.567,551.923s-104.579,12.612-94.594,0c3.616-4.562,4.614-18.078,4.414-33.476,15.944-6.811,36.229-1.734,36.229-1.734,21.357-4.257,35.052-3.426,43.808-.441a362.278,362.278,0,0,0,10.143,35.652Z" transform="translate(-56.474 -155.512)"/>
    <path id="Path_934" data-name="Path 934" class="cls-8" d="M431.372,736.144v-.883l184.584-2.007L728.419,732.2h.315l-.116,1.555.158-1.555h.2v-.179l1.44-14.137.547-5.35.168-1.671.147-1.4,6.5-21.662,6.5-21.63,5.466-18.215,8.345-27.832s-4.73-11.036-7.357-14.189-5.255-24.7-5.255-24.7-22.429-21.368-32.236-23.827c-4.109-1.051-12.224-2.449-20.842-4.2-3.227-.652-6.537-1.345-9.722-2.1-1.8-.41-3.563-.841-5.255-1.272a92.409,92.409,0,0,1-9.722-3.006,21.751,21.751,0,0,1-4.73-2.407c-7.725-5.665-27.085-6.306-27.832-6.306h0a.424.424,0,0,1,0-.074v-.095a10.819,10.819,0,0,0,0-1.324,8.454,8.454,0,0,0-.095-1.472,1.326,1.326,0,0,0-.074-.526c-.052-.378-.116-.778-.21-1.2a5.25,5.25,0,0,0-.126-.557,18.083,18.083,0,0,0-1.314-3.668c-.074-.168-.168-.347-.252-.515a19.171,19.171,0,0,0-1.787-2.764c-.137-.179-.284-.368-.441-.547a20.584,20.584,0,0,0-2.859-2.775c-.284-.221-.578-.452-.883-.662a4.92,4.92,0,0,0-.536-.378l-.935-.61-.872-.5c-.767-.42-1.577-.83-2.459-1.219-.273-.126-.568-.242-.862-.357s-.757-.294-1.146-.441h-.063l-.788-.315c-.6-.2-1.209-.378-1.85-.557l-.978-.252-1.051-.242-1.051-.221c-1.051-.21-2.176-.4-3.353-.547l-1.2-.147-1.23-.126-1.272-.105-1.808-.105-2.1-.074a131.072,131.072,0,0,0-27.592,2.935,75.954,75.954,0,0,0-19.18-1.768h-.914l-1.051.063h-.673l-1.356.126a10.069,10.069,0,0,0-1.366.158c-.452.063-.925.116-1.377.189l-.694.116c-.683.116-1.377.242-2.1.389q-.347.063-.694.158c-.914.2-1.829.441-2.733.715-.452.126-.9.273-1.356.431-.231.063-.452.147-.673.231l-.673.242-.662.263-.788.315c-.4.168-.788.347-1.177.536-.221.095-.441.2-.652.315s-.431.21-.631.326a29.163,29.163,0,0,0-6.527,4.6l-.536.515-.526.536c-.179.179-.347.368-.515.557a25.051,25.051,0,0,0-1.913,2.365c-.168.221-.326.442-.484.673a28.045,28.045,0,0,0-1.808,3.069c-.137.252-.263.515-.389.767a34.366,34.366,0,0,0-2.1,5.518q-.294,1.051-.536,2.1S499.606,552,481.15,559.106c-4.908,1.892-9.533,3.605-13.4,4.9-1.125.378-2.176.725-3.153,1.051a28.064,28.064,0,0,1-6.569,1.513,20.664,20.664,0,0,0-3.153.294c-8.482,1.377-23.018,7.357-24.6,13.359a3.878,3.878,0,0,0-.105,1.472s0,.074,0,.116c1.051,7.357-6.306,6.306-6.306,6.306s-2.628,19.444-6.306,24.7c-2.659,3.784-4.477,12.224-4.709,18.593h0a20.611,20.611,0,0,0,.462,5.918v.147c.42,1.408-.589,5.255-2.3,10.185-1.86,5.413-4.572,12.14-7.179,18.488-3.931,9.586-7.631,18.288-7.862,20.2-.095.851-.368,2.375-.746,4.341-1.535,8.009-4.94,23.26-6.622,29.429-1.251,4.6-3.069,10.91-4.32,15.24a1.473,1.473,0,0,1-.105.368l47.118-.462v.883h.147Z" transform="translate(-63.78 -155.412)"/>
    <path id="Path_935" data-name="Path 935" class="cls-7" d="M445.44,607.57S505.35,638.576,526.9,634.9Z" transform="translate(-60.653 -150.724)"/>
    <path id="Path_936" data-name="Path 936" class="cls-7" d="M561.44,595.57s58.333,18.919,77.777,21.547S561.44,595.57,561.44,595.57Z" transform="translate(-54.732 -151.337)"/>
    <path id="Path_937" data-name="Path 937" class="cls-7" d="M628.472,538.665c-30.48,5.613-87.867,4.4-112.672,3.553,9.092-32.582,53.425-21.5,53.425-21.5C624.1,509.761,628.3,532.485,628.472,538.665Z" transform="translate(-57.061 -155.308)"/>
    <path id="Path_938" data-name="Path 938" class="cls-8" d="M628.472,536.665c-30.48,5.613-87.867,4.4-112.672,3.553,9.092-32.582,53.425-21.5,53.425-21.5C624.1,507.761,628.3,530.484,628.472,536.665Z" transform="translate(-57.061 -155.41)"/>
    <path id="Path_939" data-name="Path 939" class="cls-10" d="M776.94,672.365s35.9-5.518,36.608,10.248-18.309,26.781-18.309,26.781Z" transform="translate(-43.731 -147.465)"/>
    <path id="Path_940" data-name="Path 940" class="cls-7" d="M609.241,504.585a49.391,49.391,0,0,1-4.73,1.829c-11.33,3.91-22.755,7.851-34.685,9.281s-24.447.168-34.853-5.781a30.247,30.247,0,0,1-3.153-2.049c-1.156-23.123-3.942-45.721-3.942-45.721s91.441-43.093,80.931-8.934C604.627,467.01,606.046,486.391,609.241,504.585Z" transform="translate(-56.445 -159.276)"/>
    <path id="Path_941" data-name="Path 941" class="cls-4" d="M554.8,365.5a9.954,9.954,0,0,1-8.745-1.839l2.186,3.038a8.9,8.9,0,0,1-7.126-2.365,35.822,35.822,0,0,0,.336,8.146,15.261,15.261,0,0,1-10.048-3.153,4.646,4.646,0,0,0,2.775,4.53,15.072,15.072,0,0,0-16.4,11.257l5.486.5a19.412,19.412,0,0,0-10.973,6.7c-1.682,2.1-2.964,4.793-2.228,7.357s4.288,4.2,6.222,2.375A29.366,29.366,0,0,0,509.875,426a15.211,15.211,0,0,1,.484,5.529c-.347,1.734-1.44,3.237-1.987,4.929-1.051,3.069-.053,6.4.883,9.459l4.929,16.207c1.787,5.854,3.563,11.719,5.9,17.384a86.26,86.26,0,0,1,4.2,11.047c1.324,5.087,1.377,10.658,4.2,15.1a20.949,20.949,0,0,0,7.547,6.653c10.395,5.949,22.955,7.21,34.853,5.781s23.312-5.371,34.632-9.281a32.586,32.586,0,0,0,7.189-3.153c7.83-5.129,9.575-15.618,11.036-24.857,1.629-10.3,3.8-20.579,7.662-30.27,2.291-5.77,5.255-11.625,4.751-17.8-.641-8.209-7.137-14.862-8.745-22.934a19.97,19.97,0,0,1,.074-8.167,18.556,18.556,0,0,0,.83-4.94c-.179-3.384-2.953-5.991-5.56-8.167q-8.482-7.084-17.51-13.39c-.3-2.1,2.554-3.006,3.847-4.667,1.829-2.344-.063-6.064-2.838-7.158s-5.886-.378-8.776.347a6.926,6.926,0,0,0-12.14-5.371,10.721,10.721,0,0,0-8.85-6.39c-6.968-.547-7.105,4.782-11.561,7.715s-8.135-.935-11.562-3.752A9.754,9.754,0,0,0,554.8,365.5Z" transform="translate(-57.463 -163.778)"/>
    <path id="Path_942" data-name="Path 942" class="cls-8" d="M807.238,707.156s-.936,2.228-2.659,5.455a72.525,72.525,0,0,1-9.459,13.842l-.284.3h-1.7l-60.687.557H731l-.179-.21-11.772-13.968-4.435-5.266-.179-.221-.378-.441-.21-.252-.273-.326-8.629-10.237,3.153-13.138,5.371-22.135.137-.536,1.051-4.2.746-3.153,2.5-10.279,8.577-35.368,15.24,7.883,16.07,28.378,8.629,15.24h4.73c.893,0,2.943,1.724,5,3.71.736.7,1.471,1.45,2.1,2.1,1.871,1.934,3.353,3.595,3.353,3.595s7.662.168,9.722,6.2a7.342,7.342,0,0,1,.263.893,42.343,42.343,0,0,0,2.659,6.895c1.356,2.953,3.058,6.306,4.782,9.659,3.206,6.149,6.464,12,7.662,14.126l.147.263Z" transform="translate(-47.406 -150.724)"/>
    <path id="Path_943" data-name="Path 943" class="cls-7" d="M731.04,657.764l-.1,1.5v.105l-.179,2.417-1.4,19.455-1.692,23.438-.484,6.6-1.051,14.126v.179L613.67,726.639l-184.553,2v.883h-.147v-1.177l.473-15.093.9-29.492.778-25,.074-2.491a11.067,11.067,0,0,1,12-10.689c4.961.42,11.4.935,19.108,1.482l3.153.231c44.491,3.09,126.714,7.084,209.683,2.1,1.745-.095,3.5-.2,5.255-.326,12.865-.809,25.719-1.85,38.447-3.153a11.067,11.067,0,0,1,12.192,11.8Z" transform="translate(-61.494 -148.787)"/>
    <path id="Path_944" data-name="Path 944" class="cls-4" d="M429.08,729.313v-.883l184.585-2.007,112.462-1.051h.315v-.179l1.051-14.126.452-6.306L729.668,681l1.356-18.814v-.462a11.155,11.155,0,0,0-.116-2.6.315.315,0,0,0,0-.105,10.92,10.92,0,0,0-2.1-4.877,11.078,11.078,0,0,0-9.9-4.2c-12.728,1.3-25.582,2.344-38.447,3.153-1.755.126-3.511.231-5.255.326-82.969,4.929-165.193.935-209.684-2.1l-3.153-.231c-7.7-.547-14.147-1.051-19.108-1.482a11.078,11.078,0,0,0-11.814,8.965,11.57,11.57,0,0,0-.189,1.724l-.715,23.291-.978,29.5-.462,15.093v1.177Z" transform="translate(-61.488 -148.581)"/>
    <path id="Path_945" data-name="Path 945" class="cls-7" d="M731.349,664.542l-1.293,16.113-1.923,24.016-.484,6.012L726.6,724.147l-.063.673V725h0l-.158,1.556.116-1.556h-.3L613.726,726.05l-184.616,2v-.294l.515-15.093,1.051-29.492.673-19.6a6.684,6.684,0,0,1,3.216-5.518,6.569,6.569,0,0,1,3.973-.946c2.207.179,4.919.389,8.083.62,5.14.378,11.477.82,18.856,1.282,13.664.862,30.806,1.787,50.45,2.544,54.654,2.1,128.438,2.806,198.522-3.332,3.153-.273,6.411-.578,9.6-.883a6.578,6.578,0,0,1,3.658.694,5.42,5.42,0,0,1,.9.568,6.453,6.453,0,0,1,2.1,2.586,3.75,3.75,0,0,1,.263.641A6.6,6.6,0,0,1,731.349,664.542Z" transform="translate(-61.486 -148.197)"/>
    <path id="Path_946" data-name="Path 946" class="cls-7" d="M379.848,677.87v3.353a6.443,6.443,0,0,1-3.679,5.823l-42.147.809A6.432,6.432,0,0,1,330.27,682v-3.153Z" transform="translate(-66.532 -147.136)"/>
    <path id="Path_947" data-name="Path 947" class="cls-4" d="M301.267,516.013l-54.917,1.051v-9.113l54.917-1.051Z" transform="translate(12.575 25.873)"/>
    <path id="Path_948" data-name="Path 948" class="cls-7" d="M301.267,516.013l-54.917,1.051v-9.113l54.917-1.051Z" transform="translate(12.575 25.873)"/>
    <path id="Path_949" data-name="Path 949" class="cls-4" d="M303.267,516.013l-54.917,1.051v-9.113l54.917-1.051Z" transform="translate(12.677 25.873)"/>
    <g id="Group_14" data-name="Group 14" class="cls-2" transform="translate(450.882 193.716)">
      <path id="Path_950" data-name="Path 950" d="M553.032,361.782a10.249,10.249,0,0,1-1.986-4.562,9.976,9.976,0,0,0,.441,4.835A9.458,9.458,0,0,0,553.032,361.782Z" transform="translate(-506.15 -357.22)"/>
      <path id="Path_951" data-name="Path 951" d="M540.249,368.389a36.949,36.949,0,0,1-.389-3.889v3.9Z" transform="translate(-506.715 -356.848)"/>
      <path id="Path_952" data-name="Path 952" d="M621.734,402a19.252,19.252,0,0,1,.378-2.785,18.916,18.916,0,0,0,.841-4.929,6.468,6.468,0,0,0-.168-1.114c-.179.967-.462,1.934-.672,2.89A20.113,20.113,0,0,0,621.734,402Z" transform="translate(-502.539 -355.385)"/>
      <path id="Path_953" data-name="Path 953" d="M600.931,370.929l1.146.83a20.711,20.711,0,0,0,2.7-2.333,3.857,3.857,0,0,0,.4-3.826,3.15,3.15,0,0,1-.4.673C603.485,367.933,600.626,368.848,600.931,370.929Z" transform="translate(-503.598 -356.792)"/>
      <path id="Path_954" data-name="Path 954" d="M518.8,380.29a12.943,12.943,0,0,0-.914,2.4,19.088,19.088,0,0,1,5.255-1.986Z" transform="translate(-507.836 -356.042)"/>
      <path id="Path_955" data-name="Path 955" d="M532.646,369.473a15.585,15.585,0,0,1-1.976-1.293,4.459,4.459,0,0,0,.095,1.24,12.466,12.466,0,0,1,1.881.053Z" transform="translate(-507.184 -356.66)"/>
      <path id="Path_956" data-name="Path 956" d="M636.547,428.33c-.431,5.1-2.806,10.006-4.73,14.841-3.857,9.691-6.033,19.97-7.662,30.281C622.694,482.69,621,493.179,613.12,498.3a31.528,31.528,0,0,1-7.179,3.153c-11.33,3.92-22.755,7.851-34.685,9.281s-24.447.179-34.853-5.77a21.022,21.022,0,0,1-7.547-6.653c-2.806-4.446-2.859-10.016-4.2-15.1a86.408,86.408,0,0,0-4.2-11.057c-2.323-5.655-4.109-11.562-5.886-17.374q-2.47-8.1-4.929-16.218a30.275,30.275,0,0,1-1.2-4.992c-.41,2.691.389,5.507,1.2,8.146q2.459,8.124,4.929,16.217c1.776,5.854,3.563,11.719,5.886,17.374a86.4,86.4,0,0,1,4.2,11.057c1.324,5.087,1.377,10.658,4.2,15.1a21.02,21.02,0,0,0,7.547,6.653c10.405,5.949,22.955,7.2,34.853,5.77s23.312-5.36,34.685-9.281a31.528,31.528,0,0,0,7.179-3.153c7.83-5.119,9.575-15.608,11.036-24.847,1.629-10.311,3.8-20.59,7.662-30.281,2.291-5.76,5.255-11.614,4.751-17.8C636.568,428.456,636.547,428.393,636.547,428.33Z" transform="translate(-508.324 -353.59)"/>
      <path id="Path_957" data-name="Path 957" d="M510.675,424.9v-.116a14.714,14.714,0,0,0-.483-5.518,27.961,27.961,0,0,1-.41-3.489,28.75,28.75,0,0,0,.41,6.643C510.36,423.242,510.549,424.073,510.675,424.9Z" transform="translate(-508.252 -354.231)"/>
      <path id="Path_958" data-name="Path 958" d="M513.859,400.3a29.159,29.159,0,0,1,2.743-3.857c-1.923,1.839-5.476.2-6.222-2.354a6.128,6.128,0,0,0,0,3.153,4.614,4.614,0,0,0,3.479,3.058Z" transform="translate(-508.23 -355.338)"/>
    </g>
    <path id="Path_959" data-name="Path 959" class="cls-7" d="M763.512,656.57s3.332,12.087,0,22.6S763.512,656.57,763.512,656.57Z" transform="translate(-44.492 -148.223)"/>
    <path id="Path_960" data-name="Path 960" class="cls-7" d="M777.077,668.3s1.4,15.345-1.755,18.068S777.077,668.3,777.077,668.3Z" transform="translate(-43.868 -147.624)"/>
    <line id="Line_5" data-name="Line 5" class="cls-12" y1="1.051" x2="106.797" transform="translate(209.147 359.309)"/>
    <line id="Line_6" data-name="Line 6" class="cls-12" y1="1.041" x2="106.797" transform="translate(209.147 372.426)"/>
    <line id="Line_7" data-name="Line 7" class="cls-12" y1="1.051" x2="106.797" transform="translate(209.147 385.532)"/>
  </g>
</svg>
