<svg xmlns="http://www.w3.org/2000/svg" viewBox="0 0 869.854 469.401">
  <defs>
    <style>
      .cls-1 {
        fill: #9947d0;
      }

      .cls-1, .cls-12, .cls-14 {
        opacity: 0.1;
      }

      .cls-2, .cls-3, .cls-4, .cls-5 {
        fill: #6c63ff;
      }

      .cls-2 {
        opacity: 0.2;
      }

      .cls-4 {
        opacity: 0.7;
      }

      .cls-5 {
        opacity: 0.4;
      }

      .cls-6 {
        fill: #767d9f;
      }

      .cls-7 {
        fill: #ae6e79;
      }

      .cls-8 {
        fill: #4c4981;
      }

      .cls-9 {
        fill: #504f60;
      }

      .cls-10 {
        fill: #9c9ca1;
      }

      .cls-11 {
        opacity: 0.05;
      }

      .cls-13 {
        fill: #fff;
      }

      .cls-14 {
        stroke: #4c4981;
        stroke-miterlimit: 10;
      }

      .cls-15 {
        fill: #444053;
      }
    </style>
  </defs>
  <g id="undraw_developer_activity_bv83" transform="translate(0 -0.04)">
    <path id="Path_589" data-name="Path 589" class="cls-1" d="M897.853,442.628a138.324,138.324,0,0,1-5.208,37.714,136.914,136.914,0,0,1-14.652,33.669c0,38.094-25.715,71.018-63.042,86.681a127.209,127.209,0,0,1-49.218,9.733H193.128c-30.6,0-58.966-8.258-82.225-22.324a141.244,141.244,0,0,1-18.88-13.6c-25.852-22.218-41.881-52.921-41.881-86.833a137.649,137.649,0,0,1,58.114-199.983,132.692,132.692,0,0,1,19.4-6.935q3.52-.958,7.117-1.718a133.363,133.363,0,0,1,19.4-2.661q3.536-.22,7.109-.251h1.308c2.631,0,5.239.091,7.832.243l.852-1.445q1.566-2.616,3.209-5.178,2.965-4.669,6.22-9.2,3.406-4.783,7.109-9.413l.631-.76q2.1-2.616,4.288-5.17,6.843-7.976,14.447-15.473C262,175.976,347.9,141.38,444.465,141.38c75.139,0,143.822,20.948,196.432,55.56a132.44,132.44,0,0,1,65.346-17.177c74.318,0,134.584,61.11,134.584,136.492a140.63,140.63,0,0,1-.76,14.28A136.865,136.865,0,0,1,897.853,442.628Z" transform="translate(-28 -141.34)"/>
    <path id="Path_590" data-name="Path 590" class="cls-2" d="M259.107,257.52v15.473H244.66Q251.45,265.025,259.107,257.52Z" transform="translate(-79.92 -169.172)"/>
    <rect id="Rectangle_18" data-name="Rectangle 18" class="cls-2" width="19.397" height="19.397" transform="translate(186.304 84.425)"/>
    <rect id="Rectangle_19" data-name="Rectangle 19" class="cls-2" width="19.397" height="19.397" transform="translate(212.81 84.425)"/>
    <rect id="Rectangle_20" data-name="Rectangle 20" class="cls-2" width="19.397" height="19.397" transform="translate(239.324 84.425)"/>
    <rect id="Rectangle_21" data-name="Rectangle 21" class="cls-2" width="19.397" height="19.397" transform="translate(265.83 84.425)"/>
    <rect id="Rectangle_22" data-name="Rectangle 22" class="cls-2" width="19.397" height="19.397" transform="translate(292.344 84.425)"/>
    <rect id="Rectangle_23" data-name="Rectangle 23" class="cls-3" width="19.397" height="19.397" transform="translate(318.857 84.425)"/>
    <rect id="Rectangle_24" data-name="Rectangle 24" class="cls-2" width="19.397" height="19.397" transform="translate(345.364 84.425)"/>
    <rect id="Rectangle_25" data-name="Rectangle 25" class="cls-2" width="19.397" height="19.397" transform="translate(371.877 84.425)"/>
    <rect id="Rectangle_26" data-name="Rectangle 26" class="cls-2" width="19.397" height="19.397" transform="translate(398.384 84.425)"/>
    <rect id="Rectangle_27" data-name="Rectangle 27" class="cls-3" width="19.397" height="19.397" transform="translate(424.897 84.425)"/>
    <rect id="Rectangle_28" data-name="Rectangle 28" class="cls-2" width="19.397" height="19.397" transform="translate(451.411 84.425)"/>
    <rect id="Rectangle_29" data-name="Rectangle 29" class="cls-2" width="19.397" height="19.397" transform="translate(477.917 84.425)"/>
    <rect id="Rectangle_30" data-name="Rectangle 30" class="cls-2" width="19.397" height="19.397" transform="translate(504.431 84.425)"/>
    <rect id="Rectangle_31" data-name="Rectangle 31" class="cls-2" width="19.397" height="19.397" transform="translate(530.945 84.425)"/>
    <rect id="Rectangle_32" data-name="Rectangle 32" class="cls-2" width="19.397" height="19.397" transform="translate(557.451 84.425)"/>
    <rect id="Rectangle_33" data-name="Rectangle 33" class="cls-2" width="19.397" height="19.397" transform="translate(583.965 84.425)"/>
    <rect id="Rectangle_34" data-name="Rectangle 34" class="cls-3" width="19.397" height="19.397" transform="translate(610.471 84.425)"/>
    <rect id="Rectangle_35" data-name="Rectangle 35" class="cls-3" width="19.397" height="19.397" transform="translate(636.985 84.425)"/>
    <rect id="Rectangle_36" data-name="Rectangle 36" class="cls-2" width="19.397" height="19.397" transform="translate(663.499 84.425)"/>
    <rect id="Rectangle_37" data-name="Rectangle 37" class="cls-2" width="19.397" height="19.397" transform="translate(690.005 84.425)"/>
    <rect id="Rectangle_38" data-name="Rectangle 38" class="cls-3" width="19.397" height="19.397" transform="translate(716.519 84.425)"/>
    <rect id="Rectangle_39" data-name="Rectangle 39" class="cls-3" width="19.397" height="19.397" transform="translate(743.025 84.425)"/>
    <path id="Path_591" data-name="Path 591" class="cls-3" d="M226.84,298.08v9.2h-6.22Q223.585,302.581,226.84,298.08Z" transform="translate(-74.159 -178.891)"/>
    <rect id="Rectangle_40" data-name="Rectangle 40" class="cls-2" width="19.397" height="19.397" transform="translate(159.79 108.992)"/>
    <rect id="Rectangle_41" data-name="Rectangle 41" class="cls-3" width="19.397" height="19.397" transform="translate(186.304 108.992)"/>
    <rect id="Rectangle_42" data-name="Rectangle 42" class="cls-2" width="19.397" height="19.397" transform="translate(212.81 108.992)"/>
    <rect id="Rectangle_43" data-name="Rectangle 43" class="cls-4" width="19.397" height="19.397" transform="translate(239.324 108.992)"/>
    <rect id="Rectangle_44" data-name="Rectangle 44" class="cls-2" width="19.397" height="19.397" transform="translate(265.83 108.992)"/>
    <rect id="Rectangle_45" data-name="Rectangle 45" class="cls-5" width="19.397" height="19.397" transform="translate(292.344 108.992)"/>
    <rect id="Rectangle_46" data-name="Rectangle 46" class="cls-3" width="19.397" height="19.397" transform="translate(318.857 108.992)"/>
    <rect id="Rectangle_47" data-name="Rectangle 47" class="cls-5" width="19.397" height="19.397" transform="translate(345.364 108.992)"/>
    <rect id="Rectangle_48" data-name="Rectangle 48" class="cls-2" width="19.397" height="19.397" transform="translate(371.877 108.992)"/>
    <rect id="Rectangle_49" data-name="Rectangle 49" class="cls-5" width="19.397" height="19.397" transform="translate(398.384 108.992)"/>
    <rect id="Rectangle_50" data-name="Rectangle 50" class="cls-3" width="19.397" height="19.397" transform="translate(424.897 108.992)"/>
    <rect id="Rectangle_51" data-name="Rectangle 51" class="cls-5" width="19.397" height="19.397" transform="translate(451.411 108.992)"/>
    <rect id="Rectangle_52" data-name="Rectangle 52" class="cls-5" width="19.397" height="19.397" transform="translate(477.917 108.992)"/>
    <rect id="Rectangle_53" data-name="Rectangle 53" class="cls-2" width="19.397" height="19.397" transform="translate(504.431 108.992)"/>
    <rect id="Rectangle_54" data-name="Rectangle 54" class="cls-5" width="19.397" height="19.397" transform="translate(530.945 108.992)"/>
    <rect id="Rectangle_55" data-name="Rectangle 55" class="cls-5" width="19.397" height="19.397" transform="translate(557.451 108.992)"/>
    <rect id="Rectangle_56" data-name="Rectangle 56" class="cls-2" width="19.397" height="19.397" transform="translate(583.965 108.992)"/>
    <rect id="Rectangle_57" data-name="Rectangle 57" class="cls-2" width="19.397" height="19.397" transform="translate(610.471 108.992)"/>
    <rect id="Rectangle_58" data-name="Rectangle 58" class="cls-5" width="19.397" height="19.397" transform="translate(636.985 108.992)"/>
    <rect id="Rectangle_59" data-name="Rectangle 59" class="cls-2" width="19.397" height="19.397" transform="translate(663.499 108.992)"/>
    <rect id="Rectangle_60" data-name="Rectangle 60" class="cls-3" width="19.397" height="19.397" transform="translate(690.005 108.992)"/>
    <rect id="Rectangle_61" data-name="Rectangle 61" class="cls-3" width="19.397" height="19.397" transform="translate(716.519 108.992)"/>
    <rect id="Rectangle_62" data-name="Rectangle 62" class="cls-3" width="19.397" height="19.397" transform="translate(743.025 108.992)"/>
    <path id="Path_592" data-name="Path 592" class="cls-2" d="M152.947,324.67v13.557h-19.4V331.6a132.7,132.7,0,0,1,19.4-6.934Z" transform="translate(-53.294 -185.263)"/>
    <path id="Path_593" data-name="Path 593" class="cls-2" d="M159.817,177.57v17.937h-19.4V180.231Z" transform="translate(-33.65 -42.543)"/>
    <rect id="Rectangle_63" data-name="Rectangle 63" class="cls-3" width="19.397" height="19.397" transform="translate(133.276 133.567)"/>
    <rect id="Rectangle_64" data-name="Rectangle 64" class="cls-4" width="19.397" height="19.397" transform="translate(159.79 133.567)"/>
    <rect id="Rectangle_65" data-name="Rectangle 65" class="cls-3" width="19.397" height="19.397" transform="translate(186.304 133.567)"/>
    <rect id="Rectangle_66" data-name="Rectangle 66" class="cls-4" width="19.397" height="19.397" transform="translate(212.81 133.567)"/>
    <rect id="Rectangle_67" data-name="Rectangle 67" class="cls-4" width="19.397" height="19.397" transform="translate(239.324 133.567)"/>
    <rect id="Rectangle_68" data-name="Rectangle 68" class="cls-2" width="19.397" height="19.397" transform="translate(265.83 133.567)"/>
    <rect id="Rectangle_69" data-name="Rectangle 69" class="cls-5" width="19.397" height="19.397" transform="translate(292.344 133.567)"/>
    <rect id="Rectangle_70" data-name="Rectangle 70" class="cls-5" width="19.397" height="19.397" transform="translate(318.857 133.567)"/>
    <rect id="Rectangle_71" data-name="Rectangle 71" class="cls-3" width="19.397" height="19.397" transform="translate(345.364 133.567)"/>
    <rect id="Rectangle_72" data-name="Rectangle 72" class="cls-2" width="19.397" height="19.397" transform="translate(371.877 133.567)"/>
    <rect id="Rectangle_73" data-name="Rectangle 73" class="cls-5" width="19.397" height="19.397" transform="translate(398.384 133.567)"/>
    <rect id="Rectangle_74" data-name="Rectangle 74" class="cls-3" width="19.397" height="19.397" transform="translate(424.897 133.567)"/>
    <rect id="Rectangle_75" data-name="Rectangle 75" class="cls-2" width="19.397" height="19.397" transform="translate(451.411 133.567)"/>
    <rect id="Rectangle_76" data-name="Rectangle 76" class="cls-5" width="19.397" height="19.397" transform="translate(477.917 133.567)"/>
    <rect id="Rectangle_77" data-name="Rectangle 77" class="cls-2" width="19.397" height="19.397" transform="translate(504.431 133.567)"/>
    <rect id="Rectangle_78" data-name="Rectangle 78" class="cls-3" width="19.397" height="19.397" transform="translate(530.945 133.567)"/>
    <rect id="Rectangle_79" data-name="Rectangle 79" class="cls-2" width="19.397" height="19.397" transform="translate(557.451 133.567)"/>
    <rect id="Rectangle_80" data-name="Rectangle 80" class="cls-4" width="19.397" height="19.397" transform="translate(583.965 133.567)"/>
    <rect id="Rectangle_81" data-name="Rectangle 81" class="cls-4" width="19.397" height="19.397" transform="translate(610.471 133.567)"/>
    <rect id="Rectangle_82" data-name="Rectangle 82" class="cls-5" width="19.397" height="19.397" transform="translate(636.985 133.567)"/>
    <rect id="Rectangle_83" data-name="Rectangle 83" class="cls-2" width="19.397" height="19.397" transform="translate(663.499 133.567)"/>
    <rect id="Rectangle_84" data-name="Rectangle 84" class="cls-3" width="19.397" height="19.397" transform="translate(690.005 133.567)"/>
    <rect id="Rectangle_85" data-name="Rectangle 85" class="cls-3" width="19.397" height="19.397" transform="translate(716.519 133.567)"/>
    <rect id="Rectangle_86" data-name="Rectangle 86" class="cls-3" width="19.397" height="19.397" transform="translate(743.025 133.567)"/>
    <rect id="Rectangle_87" data-name="Rectangle 87" class="cls-2" width="19.397" height="19.397" transform="translate(80.256 158.134)"/>
    <rect id="Rectangle_88" data-name="Rectangle 88" class="cls-2" width="19.397" height="19.397" transform="translate(106.77 158.134)"/>
    <rect id="Rectangle_89" data-name="Rectangle 89" class="cls-2" width="19.397" height="19.397" transform="translate(133.276 158.134)"/>
    <rect id="Rectangle_90" data-name="Rectangle 90" class="cls-2" width="19.397" height="19.397" transform="translate(159.79 158.134)"/>
    <rect id="Rectangle_91" data-name="Rectangle 91" class="cls-3" width="19.397" height="19.397" transform="translate(186.304 158.134)"/>
    <rect id="Rectangle_92" data-name="Rectangle 92" class="cls-4" width="19.397" height="19.397" transform="translate(212.81 158.134)"/>
    <rect id="Rectangle_93" data-name="Rectangle 93" class="cls-4" width="19.397" height="19.397" transform="translate(239.324 158.134)"/>
    <rect id="Rectangle_94" data-name="Rectangle 94" class="cls-2" width="19.397" height="19.397" transform="translate(265.83 158.134)"/>
    <rect id="Rectangle_95" data-name="Rectangle 95" class="cls-2" width="19.397" height="19.397" transform="translate(292.344 158.134)"/>
    <rect id="Rectangle_96" data-name="Rectangle 96" class="cls-5" width="19.397" height="19.397" transform="translate(318.857 158.134)"/>
    <rect id="Rectangle_97" data-name="Rectangle 97" class="cls-5" width="19.397" height="19.397" transform="translate(345.364 158.134)"/>
    <rect id="Rectangle_98" data-name="Rectangle 98" class="cls-3" width="19.397" height="19.397" transform="translate(371.877 158.134)"/>
    <rect id="Rectangle_99" data-name="Rectangle 99" class="cls-2" width="19.397" height="19.397" transform="translate(398.384 158.134)"/>
    <rect id="Rectangle_100" data-name="Rectangle 100" class="cls-5" width="19.397" height="19.397" transform="translate(424.897 158.134)"/>
    <rect id="Rectangle_101" data-name="Rectangle 101" class="cls-5" width="19.397" height="19.397" transform="translate(451.411 158.134)"/>
    <rect id="Rectangle_102" data-name="Rectangle 102" class="cls-5" width="19.397" height="19.397" transform="translate(477.917 158.134)"/>
    <rect id="Rectangle_103" data-name="Rectangle 103" class="cls-5" width="19.397" height="19.397" transform="translate(504.431 158.134)"/>
    <rect id="Rectangle_104" data-name="Rectangle 104" class="cls-2" width="19.397" height="19.397" transform="translate(530.945 158.134)"/>
    <rect id="Rectangle_105" data-name="Rectangle 105" class="cls-2" width="19.397" height="19.397" transform="translate(557.451 158.134)"/>
    <rect id="Rectangle_106" data-name="Rectangle 106" class="cls-2" width="19.397" height="19.397" transform="translate(583.965 158.134)"/>
    <rect id="Rectangle_107" data-name="Rectangle 107" class="cls-2" width="19.397" height="19.397" transform="translate(610.471 158.134)"/>
    <rect id="Rectangle_108" data-name="Rectangle 108" class="cls-4" width="19.397" height="19.397" transform="translate(636.985 158.134)"/>
    <rect id="Rectangle_109" data-name="Rectangle 109" class="cls-4" width="19.397" height="19.397" transform="translate(663.499 158.134)"/>
    <rect id="Rectangle_110" data-name="Rectangle 110" class="cls-5" width="19.397" height="19.397" transform="translate(690.005 158.134)"/>
    <rect id="Rectangle_111" data-name="Rectangle 111" class="cls-2" width="19.397" height="19.397" transform="translate(716.519 158.134)"/>
    <rect id="Rectangle_112" data-name="Rectangle 112" class="cls-3" width="19.397" height="19.397" transform="translate(743.025 158.134)"/>
    <rect id="Rectangle_113" data-name="Rectangle 113" class="cls-2" width="19.397" height="19.397" transform="translate(80.256 182.709)"/>
    <rect id="Rectangle_114" data-name="Rectangle 114" class="cls-2" width="19.397" height="19.397" transform="translate(106.77 182.709)"/>
    <rect id="Rectangle_115" data-name="Rectangle 115" class="cls-5" width="19.397" height="19.397" transform="translate(133.276 182.709)"/>
    <rect id="Rectangle_116" data-name="Rectangle 116" class="cls-2" width="19.397" height="19.397" transform="translate(159.79 182.709)"/>
    <rect id="Rectangle_117" data-name="Rectangle 117" class="cls-2" width="19.397" height="19.397" transform="translate(186.304 182.709)"/>
    <rect id="Rectangle_118" data-name="Rectangle 118" class="cls-4" width="19.397" height="19.397" transform="translate(212.81 182.709)"/>
    <rect id="Rectangle_119" data-name="Rectangle 119" class="cls-4" width="19.397" height="19.397" transform="translate(239.324 182.709)"/>
    <rect id="Rectangle_120" data-name="Rectangle 120" class="cls-2" width="19.397" height="19.397" transform="translate(265.83 182.709)"/>
    <rect id="Rectangle_121" data-name="Rectangle 121" class="cls-2" width="19.397" height="19.397" transform="translate(292.344 182.709)"/>
    <rect id="Rectangle_122" data-name="Rectangle 122" class="cls-5" width="19.397" height="19.397" transform="translate(318.857 182.709)"/>
    <rect id="Rectangle_123" data-name="Rectangle 123" class="cls-3" width="19.397" height="19.397" transform="translate(345.364 182.709)"/>
    <rect id="Rectangle_124" data-name="Rectangle 124" class="cls-2" width="19.397" height="19.397" transform="translate(371.877 182.709)"/>
    <rect id="Rectangle_125" data-name="Rectangle 125" class="cls-3" width="19.397" height="19.397" transform="translate(398.384 182.709)"/>
    <rect id="Rectangle_126" data-name="Rectangle 126" class="cls-3" width="19.397" height="19.397" transform="translate(424.897 182.709)"/>
    <rect id="Rectangle_127" data-name="Rectangle 127" class="cls-3" width="19.397" height="19.397" transform="translate(451.411 182.709)"/>
    <rect id="Rectangle_128" data-name="Rectangle 128" class="cls-2" width="19.397" height="19.397" transform="translate(477.917 182.709)"/>
    <rect id="Rectangle_129" data-name="Rectangle 129" class="cls-3" width="19.397" height="19.397" transform="translate(504.431 182.709)"/>
    <rect id="Rectangle_130" data-name="Rectangle 130" class="cls-2" width="19.397" height="19.397" transform="translate(530.945 182.709)"/>
    <rect id="Rectangle_131" data-name="Rectangle 131" class="cls-2" width="19.397" height="19.397" transform="translate(557.451 182.709)"/>
    <rect id="Rectangle_132" data-name="Rectangle 132" class="cls-2" width="19.397" height="19.397" transform="translate(583.965 182.709)"/>
    <rect id="Rectangle_133" data-name="Rectangle 133" class="cls-2" width="19.397" height="19.397" transform="translate(610.471 182.709)"/>
    <rect id="Rectangle_134" data-name="Rectangle 134" class="cls-2" width="19.397" height="19.397" transform="translate(636.985 182.709)"/>
    <rect id="Rectangle_135" data-name="Rectangle 135" class="cls-4" width="19.397" height="19.397" transform="translate(663.499 182.709)"/>
    <rect id="Rectangle_136" data-name="Rectangle 136" class="cls-2" width="19.397" height="19.397" transform="translate(690.005 182.709)"/>
    <rect id="Rectangle_137" data-name="Rectangle 137" class="cls-2" width="19.397" height="19.397" transform="translate(716.519 182.709)"/>
    <rect id="Rectangle_138" data-name="Rectangle 138" class="cls-3" width="19.397" height="19.397" transform="translate(743.025 182.709)"/>
    <rect id="Rectangle_139" data-name="Rectangle 139" class="cls-2" width="19.397" height="19.397" transform="translate(80.256 207.276)"/>
    <rect id="Rectangle_140" data-name="Rectangle 140" class="cls-2" width="19.397" height="19.397" transform="translate(106.77 207.276)"/>
    <rect id="Rectangle_141" data-name="Rectangle 141" class="cls-2" width="19.397" height="19.397" transform="translate(133.276 207.276)"/>
    <rect id="Rectangle_142" data-name="Rectangle 142" class="cls-5" width="19.397" height="19.397" transform="translate(159.79 207.276)"/>
    <rect id="Rectangle_143" data-name="Rectangle 143" class="cls-2" width="19.397" height="19.397" transform="translate(186.304 207.276)"/>
    <rect id="Rectangle_144" data-name="Rectangle 144" class="cls-2" width="19.397" height="19.397" transform="translate(212.81 207.276)"/>
    <rect id="Rectangle_145" data-name="Rectangle 145" class="cls-4" width="19.397" height="19.397" transform="translate(239.324 207.276)"/>
    <rect id="Rectangle_146" data-name="Rectangle 146" class="cls-2" width="19.397" height="19.397" transform="translate(265.83 207.276)"/>
    <rect id="Rectangle_147" data-name="Rectangle 147" class="cls-2" width="19.397" height="19.397" transform="translate(292.344 207.276)"/>
    <rect id="Rectangle_148" data-name="Rectangle 148" class="cls-2" width="19.397" height="19.397" transform="translate(318.857 207.276)"/>
    <rect id="Rectangle_149" data-name="Rectangle 149" class="cls-3" width="19.397" height="19.397" transform="translate(345.364 207.276)"/>
    <rect id="Rectangle_150" data-name="Rectangle 150" class="cls-2" width="19.397" height="19.397" transform="translate(371.877 207.276)"/>
    <rect id="Rectangle_151" data-name="Rectangle 151" class="cls-3" width="19.397" height="19.397" transform="translate(398.384 207.276)"/>
    <rect id="Rectangle_152" data-name="Rectangle 152" class="cls-3" width="19.397" height="19.397" transform="translate(424.897 207.276)"/>
    <rect id="Rectangle_153" data-name="Rectangle 153" class="cls-2" width="19.397" height="19.397" transform="translate(451.411 207.276)"/>
    <rect id="Rectangle_154" data-name="Rectangle 154" class="cls-2" width="19.397" height="19.397" transform="translate(477.917 207.276)"/>
    <rect id="Rectangle_155" data-name="Rectangle 155" class="cls-2" width="19.397" height="19.397" transform="translate(504.431 207.276)"/>
    <rect id="Rectangle_156" data-name="Rectangle 156" class="cls-2" width="19.397" height="19.397" transform="translate(530.945 207.276)"/>
    <rect id="Rectangle_157" data-name="Rectangle 157" class="cls-2" width="19.397" height="19.397" transform="translate(557.451 207.276)"/>
    <rect id="Rectangle_158" data-name="Rectangle 158" class="cls-2" width="19.397" height="19.397" transform="translate(583.965 207.276)"/>
    <rect id="Rectangle_159" data-name="Rectangle 159" class="cls-2" width="19.397" height="19.397" transform="translate(610.471 207.276)"/>
    <rect id="Rectangle_160" data-name="Rectangle 160" class="cls-2" width="19.397" height="19.397" transform="translate(636.985 207.276)"/>
    <rect id="Rectangle_161" data-name="Rectangle 161" class="cls-2" width="19.397" height="19.397" transform="translate(663.499 207.276)"/>
    <rect id="Rectangle_162" data-name="Rectangle 162" class="cls-2" width="19.397" height="19.397" transform="translate(690.005 207.276)"/>
    <rect id="Rectangle_163" data-name="Rectangle 163" class="cls-5" width="19.397" height="19.397" transform="translate(716.519 207.276)"/>
    <rect id="Rectangle_164" data-name="Rectangle 164" class="cls-3" width="19.397" height="19.397" transform="translate(743.025 207.276)"/>
    <rect id="Rectangle_165" data-name="Rectangle 165" class="cls-4" width="19.397" height="19.397" transform="translate(80.256 231.851)"/>
    <rect id="Rectangle_166" data-name="Rectangle 166" class="cls-4" width="19.397" height="19.397" transform="translate(106.77 231.851)"/>
    <rect id="Rectangle_167" data-name="Rectangle 167" class="cls-4" width="19.397" height="19.397" transform="translate(133.276 231.851)"/>
    <rect id="Rectangle_168" data-name="Rectangle 168" class="cls-4" width="19.397" height="19.397" transform="translate(159.79 231.851)"/>
    <rect id="Rectangle_169" data-name="Rectangle 169" class="cls-4" width="19.397" height="19.397" transform="translate(186.304 231.851)"/>
    <rect id="Rectangle_170" data-name="Rectangle 170" class="cls-2" width="19.397" height="19.397" transform="translate(212.81 231.851)"/>
    <rect id="Rectangle_171" data-name="Rectangle 171" class="cls-2" width="19.397" height="19.397" transform="translate(239.324 231.851)"/>
    <rect id="Rectangle_172" data-name="Rectangle 172" class="cls-2" width="19.397" height="19.397" transform="translate(265.83 231.851)"/>
    <rect id="Rectangle_173" data-name="Rectangle 173" class="cls-2" width="19.397" height="19.397" transform="translate(292.344 231.851)"/>
    <rect id="Rectangle_174" data-name="Rectangle 174" class="cls-2" width="19.397" height="19.397" transform="translate(318.857 231.851)"/>
    <rect id="Rectangle_175" data-name="Rectangle 175" class="cls-2" width="19.397" height="19.397" transform="translate(345.364 231.851)"/>
    <rect id="Rectangle_176" data-name="Rectangle 176" class="cls-3" width="19.397" height="19.397" transform="translate(371.877 231.851)"/>
    <rect id="Rectangle_177" data-name="Rectangle 177" class="cls-2" width="19.397" height="19.397" transform="translate(398.384 231.851)"/>
    <rect id="Rectangle_178" data-name="Rectangle 178" class="cls-2" width="19.397" height="19.397" transform="translate(424.897 231.851)"/>
    <rect id="Rectangle_179" data-name="Rectangle 179" class="cls-2" width="19.397" height="19.397" transform="translate(451.411 231.851)"/>
    <rect id="Rectangle_180" data-name="Rectangle 180" class="cls-3" width="19.397" height="19.397" transform="translate(477.917 231.851)"/>
    <rect id="Rectangle_181" data-name="Rectangle 181" class="cls-2" width="19.397" height="19.397" transform="translate(504.431 231.851)"/>
    <rect id="Rectangle_182" data-name="Rectangle 182" class="cls-2" width="19.397" height="19.397" transform="translate(530.945 231.851)"/>
    <rect id="Rectangle_183" data-name="Rectangle 183" class="cls-2" width="19.397" height="19.397" transform="translate(557.451 231.851)"/>
    <rect id="Rectangle_184" data-name="Rectangle 184" class="cls-2" width="19.397" height="19.397" transform="translate(583.965 231.851)"/>
    <rect id="Rectangle_185" data-name="Rectangle 185" class="cls-2" width="19.397" height="19.397" transform="translate(610.471 231.851)"/>
    <rect id="Rectangle_186" data-name="Rectangle 186" class="cls-2" width="19.397" height="19.397" transform="translate(636.985 231.851)"/>
    <rect id="Rectangle_187" data-name="Rectangle 187" class="cls-2" width="19.397" height="19.397" transform="translate(663.499 231.851)"/>
    <rect id="Rectangle_188" data-name="Rectangle 188" class="cls-2" width="19.397" height="19.397" transform="translate(690.005 231.851)"/>
    <rect id="Rectangle_189" data-name="Rectangle 189" class="cls-2" width="19.397" height="19.397" transform="translate(716.519 231.851)"/>
    <rect id="Rectangle_190" data-name="Rectangle 190" class="cls-3" width="19.397" height="19.397" transform="translate(743.025 231.851)"/>
    <circle id="Ellipse_4" data-name="Ellipse 4" class="cls-6" cx="26.514" cy="26.514" r="26.514" transform="translate(531.987 250.184)"/>
    <path id="Path_594" data-name="Path 594" class="cls-7" d="M760.5,454.472q3.969,17.321,6.737,34.9c.555,3.482,1.049,7.155-.213,10.447-1.057,2.745-3.209,4.889-4.9,7.292s-2.966,5.482-1.939,8.235,4.022,4.258,6.881,5.034c8.182,2.205,16.9.6,25.046-1.787a40.52,40.52,0,0,0,10.5-4.349,39.3,39.3,0,0,0,8.881-8.364c11.869-14.394,19.64-31.669,26.955-48.838A29.745,29.745,0,0,1,813.273,446.9c-3-3.52-5.193-8.425-3.505-12.728-4.95,2.714-10.828,2.9-16.158,4.752a57.4,57.4,0,0,0-9.5,4.676q-5.459,3.156-10.858,6.433C769.134,452.51,765.279,454.715,760.5,454.472Z" transform="translate(-203.372 -211.504)"/>
    <path id="Path_595" data-name="Path 595" class="cls-6" d="M797.625,479.337c-4.646,9.041-10.691,17.732-19.321,23.115s-20.248,6.843-28.894,1.521c-4.258-2.6-7.482-6.554-11.2-9.885s-8.364-6.182-13.36-5.748c-5.505.479-9.816,4.775-13.5,8.889-5.6,6.25-11,12.766-14.964,20.165-7.6,14.219-9.406,30.84-9.071,46.96s2.669,32.156,2.722,48.275c.076,19.83-3.285,39.5-6.684,59.034,31.251-3.847,62.54,4.562,93.859,7.748,20.043,2.061,40.238,2.015,60.388,1.962,3.543,0,7.315-.091,10.265-2.053a13.838,13.838,0,0,0,4.25-5.049c2.783-5.132,3.9-10.987,4.676-16.774,1.969-14.614,2.03-29.411,2.083-44.162.137-35.737.266-71.6-4.273-107.059-1.118-8.721-2.547-17.488-5.893-25.647s-8.8-15.663-16.439-20.036c-4.9-2.813-16.272-7.71-22.051-4.874C803.73,458.884,800.735,473.285,797.625,479.337Z" transform="translate(-185.047 -216.463)"/>
    <path id="Path_596" data-name="Path 596" class="cls-8" d="M834.59,578.282c-1.178-22.05-5.976-45.584,4.235-65.155,2.509-4.806-6.493-10.8-3.711-15.458a70.018,70.018,0,0,0,7.649-18.2,13.726,13.726,0,0,0,.494-6.729c-1.011-4.022-4.988-6.417-8.364-8.866-3.726-2.707-5.642-10.957-6.843-15.42s9.558.912,13.884-.677c6.007-2.2,13.641-.814,19.633,1.414,3.346,1.232,6.98,1.338,10.546,1.429a138.932,138.932,0,0,0,20.75-.494,51.612,51.612,0,0,1,9.284-.8c7.915.449,14.8,5.862,19.48,12.265s7.664,13.861,11.5,20.8c3.2,5.779,7.018,11.238,9.748,17.253a106.213,106.213,0,0,1,5.459,16.728l3.9,14.591a19.449,19.449,0,0,1,.958,6.471,18.366,18.366,0,0,1-2.281,6.585,124.8,124.8,0,0,1-14.2,21.663c-8.2,10.06-18.165,19.131-23.039,31.175a78.74,78.74,0,0,0-3.923,14.652,538.279,538.279,0,0,0-8.288,60.182,132.461,132.461,0,0,0-27.768-9.284,135.03,135.03,0,0,0-14.447-2.281c-4.25-.441-9.733.4-13.778-.76-6.767-1.924-7.512-13.367-8.539-19.359-1.642-9.542-1.969-19.252-2.03-28.894C834.833,600.15,835.175,589.208,834.59,578.282Z" transform="translate(-219.701 -214.493)"/>
    <path id="Path_597" data-name="Path 597" class="cls-8" d="M620.539,562.3c3.2,18.249,6.729,36.551,13.686,53.7-.175.167-.35.319-.525.471-.616.525-1.255,1.019-1.924,1.521a25.607,25.607,0,0,0-4.562,3.452,6.083,6.083,0,0,0-1.141,1.863,4.167,4.167,0,0,0,0,3.4c-3.627,1.6-7.839,1.11-11.907.958-3.505-.129-6.9,0-9.717,1.924-3.908,2.692-5.087,7.862-5.718,12.561q-.35,2.57-.6,5.148-.243,2.4-.4,4.805a143.416,143.416,0,0,0-.144,15.968q.061,1.46.16,2.92c-12.424-.3-23.746-6.775-34.46-13.071-2.448-1.437-4.973-2.95-6.562-5.323a12.014,12.014,0,0,1-1.756-7.824,8.633,8.633,0,0,1,.122-1.156,31.621,31.621,0,0,1,1.741-6.6,81.511,81.511,0,0,1,14.591-24.826c2.722-3.178,5.786-6.288,7.056-10.28.555-1.741.76-3.589,1.323-5.323,2.524-7.512,11.633-11.063,14.751-18.355.76-1.741,1.11-3.65,2.053-5.323a13.406,13.406,0,0,1,3.232-3.612c.555-.464,1.133-.912,1.7-1.361q8.014-6.281,15.443-13.268,1.384-1.3,2.737-2.631a45.225,45.225,0,0,0,.814,10.265Z" transform="translate(-154.263 -239.75)"/>
    <path id="Path_598" data-name="Path 598" class="cls-8" d="M717.607,489.338c-1.095,1.156-2.281,2.243-3.445,3.323l-.312.281-1.232,1.141a29.655,29.655,0,0,0-5.741,6.684l-.129.213c-3.878,6.942-2.441,15.489-1.361,23.374a198.873,198.873,0,0,1,1.8,29.654c-.2,13.687-1.81,27.282-1.84,40.953q0,4.653.205,9.3c.221,5.041.6,10.075,1.057,15.108.494,5.52,1.087,11.033,1.642,16.546.441,4.266.859,8.524,1.209,12.782.175,2.205.342,4.4.479,6.607.16,2.585.289,5.178.365,7.763h0c.053,1.642.084,3.277.084,4.919v2.791q0,2.669-.144,5.323-.152,3.414-.464,6.843c-.236,2.486-.654,5.2-2.4,6.95-.107.106-.22.205-.335.3l-2.464-.3a252.983,252.983,0,0,0-51.172-.912c.373-2.57.715-5.132,1.049-7.71.152-1.217.3-2.441.449-3.665q.251-2.1.479-4.2.262-2.281.487-4.562.593-5.878,1.042-11.763.662-8.584,1-17.2.167-4.114.259-8.235.129-5.109.122-10.227,0-4.973-.084-9.961c0-1.095-.046-2.19-.137-3.277a20.8,20.8,0,0,0-.4-2.912,37.923,37.923,0,0,0-2.281-6.448c-.167-.4-.327-.76-.487-1.179-.091-.205-.175-.418-.258-.623,4.38-3.9,7.5-9.124,10.493-14.264,4.859-8.28,9.831-16.926,10.645-26.491s-3.939-20.309-13.078-23.229a63.513,63.513,0,0,0-7.68-1.422c-2.418-.426-7.459-1.392-10.257-3.125q-2.281,2.342-4.562,4.6a16.842,16.842,0,0,1,1.65-6.623l1.08.053a2.061,2.061,0,0,1-.122-.76c0-.814.563-1.734,1.764-2.753,3.581-3.041,9.216-3.718,11.474-7.832.943-1.711,1.1-3.749,1.863-5.543,2.182-5.117,8.448-7,12.219-11.094s4.714-9.885,7.763-14.447a21.762,21.762,0,0,1,9.124-7.6c.3-.145.616-.289.928-.418,6.311-2.7,13.808-3.315,20.347-3.3,2.54,0,9.124.076,12.348,1.361a4.044,4.044,0,0,1,1.407.859C725.492,478.731,720.147,486.631,717.607,489.338Z" transform="translate(-174.709 -220.754)"/>
    <path id="Path_599" data-name="Path 599" class="cls-8" d="M638.234,542.071a46.291,46.291,0,0,1,35.539,3.7c5.475,3.041,10.386,7.284,13.4,12.759,4.524,8.212,4.326,18.112,4.007,27.487-.16,4.691-.365,9.55-2.433,13.763-2.4,4.874-6.912,8.219-11.519,10.957a32.118,32.118,0,0,1-9.368,4.053c-5.11,1.11-10.417.167-15.565-.76-5.6-1.034-11.6-2.281-15.489-6.448-2.281-2.418-3.528-5.558-4.76-8.63q-2.654-6.653-5.323-13.291c-3.079-7.687-4.121-14.082-.053-21.571,1.848-3.414,4.106-6.608,5.931-10.044C633.512,552.3,636.782,542.519,638.234,542.071Z" transform="translate(-170.825 -236.89)"/>
    <path id="Path_600" data-name="Path 600" class="cls-9" d="M841.1,701.436V724.17a127.209,127.209,0,0,1-49.218,9.733H586.822c-.106.106-.22.205-.335.3l-2.464-.3H219.255c-30.6,0-58.966-8.258-82.225-22.324V676.868L312.461,656.62h.137l102.162,8.653,26.438,2.281,13.732,1.163,28.422,2.41,14.622,1.239,21.29,1.81,3,.251,15.344,1.3,20.819,1.711,29.274,2.479,48.8,4.144,34.33,2.912,56.373,4.783,10.721.9,1.156.1,1,.084,14.158,1.2,15.542,1.323,1.8.152Z" transform="translate(-54.128 -264.811)"/>
    <path id="Path_601" data-name="Path 601" class="cls-10" d="M692.024,561.294,472.174,523.77l-8.524,43.1,100.778,12.067,31.03,3.885,85.358-16.812Z" transform="translate(-111.109 -125.506)"/>
    <path id="Path_602" data-name="Path 602" class="cls-10" d="M642.33,733.393l110.146-20.7a3.8,3.8,0,0,1,4.517,3.749h0a3.8,3.8,0,0,1-3.11,3.749L646.314,740.328Z" transform="translate(-175.217 -278.231)"/>
    <path id="Path_603" data-name="Path 603" class="cls-7" d="M678.153,649.669a28.41,28.41,0,0,0,9.991-2.38c3.8-1.893,6.76-5.155,10.28-7.558,7.74-5.323,18.1-6.037,26.97-2.981s16.279,9.6,21.465,17.42c3.444,5.208,6.03,11.854,3.6,17.6a23.2,23.2,0,0,1-3.133,4.9l-6.341,8.288a22.051,22.051,0,0,1-4.3,4.631,18.287,18.287,0,0,1-8.227,2.859c-7.718,1.125-15.572.487-23.351,1-13.36.89-26.407,5.193-39.8,5.049-7.695-.084-15.291-1.635-22.811-3.186l-33.281-6.843c-5.794-1.186-12.341-2.92-15.07-8.174a18.95,18.95,0,0,1-1.6-7.763c-.4-7.33,0-15.481,5.079-20.765,4.775-4.958,12.325-6.524,18.028-10.189,6.98-4.494,9.284-3.041,16.644.335a91.243,91.243,0,0,0,45.857,7.756Z" transform="translate(-163.259 -259.617)"/>
    <path id="Path_604" data-name="Path 604" class="cls-11" d="M678.153,649.669a28.41,28.41,0,0,0,9.991-2.38c3.8-1.893,6.76-5.155,10.28-7.558,7.74-5.323,18.1-6.037,26.97-2.981s16.279,9.6,21.465,17.42c3.444,5.208,6.03,11.854,3.6,17.6a23.2,23.2,0,0,1-3.133,4.9l-6.341,8.288a22.051,22.051,0,0,1-4.3,4.631,18.287,18.287,0,0,1-8.227,2.859c-7.718,1.125-15.572.487-23.351,1-13.36.89-26.407,5.193-39.8,5.049-7.695-.084-15.291-1.635-22.811-3.186l-33.281-6.843c-5.794-1.186-12.341-2.92-15.07-8.174a18.95,18.95,0,0,1-1.6-7.763c-.4-7.33,0-15.481,5.079-20.765,4.775-4.958,12.325-6.524,18.028-10.189,6.98-4.494,9.284-3.041,16.644.335a91.243,91.243,0,0,0,45.857,7.756Z" transform="translate(-163.259 -259.617)"/>
    <path id="Path_605" data-name="Path 605" class="cls-7" d="M818.889,639.373c-9.337,3.612-18.728,7.239-28.506,9.39-16.393,3.612-33.547,3.041-49.811,7.17-8.592,2.19-17.131,5.718-25.959,5-3.946-.319-7.756-1.521-11.6-2.433-21.572-5.323-46.093-3.6-63.612,10.09a79.163,79.163,0,0,0-15.344,16.728,11.177,11.177,0,0,0,4.494,16.637,65.861,65.861,0,0,0,21.579,5.756c9.984.882,20.013-.532,29.943-1.947,14.736-2.091,29.479-4.19,44.177-6.539,5.277-.844,10.554-1.718,15.861-2.388,38.193-4.828,77.078,1.042,115.37-2.988,3.87-.411,7.809-.943,11.329-2.593,8.911-4.182,13.322-15.207,11.481-24.894s-8.942-17.739-17.488-22.682c-7.163-4.159-14.888-5.84-22.864-7.6C830.538,634.355,826.021,636.636,818.889,639.373Z" transform="translate(-170.347 -259.746)"/>
    <path id="Path_606" data-name="Path 606" class="cls-12" d="M957.278,554.22c4.212,5.52,5.11,12.926,4.653,19.838s-2.1,13.747-2.342,20.689c-.335,9.52,1.962,19.009,1.574,28.5a81.988,81.988,0,0,1-3.711,19.518c-2.2,7.52-5.376,15.6-12.318,19.214-9.216,4.8-28.544,2.1-38.239,5.855.882-5.5,9.337-13.458,10.219-18.956.608-3.8,1.224-7.71.57-11.519-.836-4.859-3.688-9.17-7.071-12.759a37.313,37.313,0,0,0-20.127-11.405c-7.718-1.4-26.613-.251-32.787,4.623-.76-5.034,13.382-9.885,18.355-10.972,2.479-.555,5.323-.243,7.307-1.817,3.8-2.981,1.042-8.919,1.224-13.687.144-3.8,2.365-7.284,2.813-11.086.76-6.083-3.209-12.28-1.65-18.249.578-2.205,1.863-4.144,2.752-6.243,2.707-6.425,1.521-13.755.076-20.583-.9-4.288-1.772-9.124.616-12.782,2.213-3.414,8.493,8.744,12.516,8.182,13.284-1.863,25.3-11.71,36.034-3.65,5.467,4.106,6.182,8.364,8.364,14.226C948.229,546.738,953.727,549.6,957.278,554.22Z" transform="translate(-226.822 -232.502)"/>
    <path id="Path_607" data-name="Path 607" class="cls-8" d="M960.278,552.6c4.212,5.52,5.11,12.926,4.653,19.838s-2.1,13.747-2.342,20.689c-.335,9.52,1.962,19.009,1.574,28.5a81.985,81.985,0,0,1-3.711,19.518c-2.2,7.52-5.376,15.6-12.318,19.214-9.216,4.8-28.544,2.1-38.239,5.855.882-5.5,9.337-13.458,10.219-18.956.608-3.8,1.224-7.71.57-11.52-.836-4.859-3.688-9.17-7.071-12.759a37.312,37.312,0,0,0-20.127-11.405c-7.718-1.4-26.613-.251-32.787,4.623-.76-5.034,13.382-9.885,18.355-10.972,2.479-.555,5.323-.243,7.307-1.817,3.8-2.981,1.042-8.919,1.224-13.687.145-3.8,2.365-7.284,2.813-11.086.76-6.083-3.209-12.28-1.65-18.249.578-2.205,1.863-4.144,2.752-6.243,2.707-6.425,1.521-13.755.076-20.583-.9-4.288-1.772-9.124.616-12.782,2.213-3.414,6.539-4.707,10.561-5.277a52.024,52.024,0,0,1,38.018,9.809c5.467,4.106,6.182,8.364,8.364,14.226C951.229,545.118,956.727,547.977,960.278,552.6Z" transform="translate(-227.54 -230.882)"/>
    <path id="Path_608" data-name="Path 608" class="cls-10" d="M329.895,508.973,371.236,661.76a9.542,9.542,0,0,0,8.3,7l186.076,17.876a9.535,9.535,0,0,0,10.174-11.77l-45.272-184.3a9.535,9.535,0,0,0-9.976-7.231L338.358,496.967a9.535,9.535,0,0,0-8.463,12.006Z" transform="translate(-100.266 -223.281)"/>
    <ellipse id="Ellipse_5" data-name="Ellipse 5" class="cls-13" cx="20.454" cy="20.72" rx="20.454" ry="20.72" transform="translate(578.034 274.067)"/>
    <path id="Path_609" data-name="Path 609" class="cls-13" d="M834.037,479.207s4.311,12.82-8.41,18.211L824,500.261l7.969,7.862s9.824-17.922,8.759-24.286C840.728,483.837,839.207,477.374,834.037,479.207Z" transform="translate(-218.753 -222.218)"/>
    <circle id="Ellipse_6" data-name="Ellipse 6" class="cls-3" cx="19.724" cy="19.724" r="19.724" transform="translate(581.114 276.059)"/>
    <path id="Path_610" data-name="Path 610" class="cls-3" d="M838.236,476.733l-3.133-5.17-4.562-.646c.973-17.025-3.445-22.1-3.445-22.1l-1.026-.1-4.471-.433-8.41-8.729V437.08c11.816,1.407,18.347,7.018,21.876,13.6C841.3,462.218,838.236,476.733,838.236,476.733Z" transform="translate(-216.162 -212.201)"/>
    <path id="Path_611" data-name="Path 611" class="cls-14" d="M826.12,446.37V449.5l-4.471-.433-8.41-8.729S826.25,443.252,826.12,446.37Z" transform="translate(-216.174 -212.982)"/>
    <path id="Path_612" data-name="Path 612" class="cls-14" d="M845.143,481.027l-3.133-5.17V455C848.207,466.512,845.143,481.027,845.143,481.027Z" transform="translate(-223.069 -216.496)"/>
    <ellipse id="Ellipse_7" data-name="Ellipse 7" class="cls-13" cx="10.972" cy="20.013" rx="10.972" ry="20.013" transform="translate(534.878 274.715) rotate(-30)"/>
    <path id="Path_613" data-name="Path 613" class="cls-3" d="M754.255,511.1c5.528,9.573,12.31,15.968,7.064,19.009s-20.53,1.521-26.058-8.06S734.752,499.241,740,496.2,748.719,501.507,754.255,511.1Z" transform="translate(-196.91 -226.216)"/>
    <path id="Path_614" data-name="Path 614" class="cls-12" d="M792.034,409.316c0,30.589-20.933,60.069-51.522,60.069a55.392,55.392,0,1,1,0-110.785C771.1,358.63,792.034,378.719,792.034,409.316Z" transform="translate(-185.472 -193.394)"/>
    <circle id="Ellipse_8" data-name="Ellipse 8" class="cls-7" cx="55.392" cy="55.392" r="55.392" transform="translate(499.648 163.715)"/>
    <path id="Path_615" data-name="Path 615" class="cls-15" d="M728.35,374.466c6.592,2.426,10.493,9.238,16.409,13.033,8.364,5.323,19.252,3.946,28.8,1.315,5.323-1.452,10.888-3.224,16.127-1.612a4.563,4.563,0,0,0,2.456.35c1.141-.327,1.7-1.589,2.076-2.714,6.478-19.313,3.566-41.189-6.212-59.057-2.524-4.608-5.551-9.064-9.718-12.265a40.535,40.535,0,0,0-11.04-5.573,110.256,110.256,0,0,0-21.959-5.421,13.642,13.642,0,0,0-4.007-.129,16.78,16.78,0,0,0-5.11,2.167,52.3,52.3,0,0,1-22.7,6.167c-10.645.4-22.811-2.106-31.015,4.722-9.885,8.189-7.421,24.164-13.831,35.281-4.243,7.353-12.424,12.69-13.77,21.062a19.443,19.443,0,0,0,.479,7.657c3.133,12.88,15.6,22.856,28.894,23.092a10.964,10.964,0,0,0,5.9-1.209,13.349,13.349,0,0,0,3.11-2.958C701.943,388.061,711.9,368.414,728.35,374.466Z" transform="translate(-178.175 -179.903)"/>
    <path id="Path_616" data-name="Path 616" class="cls-12" d="M794.213,397.506c-.373,1.125-.935,2.388-2.076,2.715a4.562,4.562,0,0,1-2.456-.35c-5.239-1.612-10.835.16-16.12,1.612-9.558,2.631-20.469,4.038-28.8-1.315-5.923-3.8-9.816-10.645-16.416-13.033-16.447-6.083-26.407,13.6-35.136,23.906A13.345,13.345,0,0,1,690.1,414a10.965,10.965,0,0,1-5.9,1.209c-13.245-.236-25.723-10.212-28.894-23.092-.175-.76-.327-1.521-.441-2.281a.369.369,0,0,1-.038.2,19.442,19.442,0,0,0,.479,7.657c3.133,12.881,15.61,22.856,28.894,23.092a10.965,10.965,0,0,0,5.9-1.209,13.343,13.343,0,0,0,3.11-2.958c8.729-10.311,18.69-29.958,35.136-23.906,6.6,2.426,10.493,9.238,16.416,13.033,8.364,5.323,19.245,3.946,28.8,1.315,5.323-1.452,10.881-3.224,16.12-1.612a4.563,4.563,0,0,0,2.456.35c1.141-.327,1.7-1.589,2.076-2.714a68.654,68.654,0,0,0,3.406-24.529,67.52,67.52,0,0,1-3.406,18.956Z" transform="translate(-178.168 -198.175)"/>
  </g>
</svg>
