<svg xmlns="http://www.w3.org/2000/svg" xmlns:xlink="http://www.w3.org/1999/xlink" viewBox="0 0 772.902 583.497">
  <defs>
    <style>
      .cls-1, .cls-11, .cls-2 {
        fill: #6c63ff;
      }

      .cls-1, .cls-12, .cls-22, .cls-24 {
        opacity: 0.1;
      }

      .cls-3 {
        fill: #444053;
      }

      .cls-4, .cls-5 {
        fill: none;
        stroke: #444053;
        stroke-miterlimit: 10;
      }

      .cls-5 {
        stroke-width: 0.75px;
      }

      .cls-6 {
        fill: url(#linear-gradient);
      }

      .cls-7 {
        fill: #fff;
      }

      .cls-10, .cls-24, .cls-8, .cls-9 {
        fill: #5a5773;
      }

      .cls-8 {
        opacity: 0.04;
      }

      .cls-10, .cls-11 {
        opacity: 0.2;
      }

      .cls-13 {
        fill: #ffd037;
      }

      .cls-14 {
        fill: #65617d;
      }

      .cls-15 {
        fill: #9d9cb5;
      }

      .cls-16 {
        fill: url(#linear-gradient-2);
      }

      .cls-17 {
        fill: #fbbebe;
      }

      .cls-18 {
        fill: #e7effd;
      }

      .cls-19 {
        fill: #3f3d56;
      }

      .cls-20 {
        fill: #5f5d7e;
      }

      .cls-21 {
        fill: #7c5c5c;
      }

      .cls-23 {
        fill: #e6e8ec;
      }

      .cls-25 {
        fill: url(#linear-gradient-3);
      }

      .cls-26 {
        fill: #2d293d;
      }

      .cls-27 {
        fill: #575988;
      }

      .cls-28, .cls-29 {
        opacity: 0.05;
      }

      .cls-30 {
        fill: #ffcdd3;
      }

      .cls-31 {
        fill: #dce6f2;
      }

      .cls-32 {
        fill: #656691;
      }
    </style>
    <linearGradient id="linear-gradient" x1="0.5" y1="1" x2="0.5" gradientUnits="objectBoundingBox">
      <stop offset="0" stop-color="gray" stop-opacity="0.251"/>
      <stop offset="0.54" stop-color="gray" stop-opacity="0.122"/>
      <stop offset="1" stop-color="gray" stop-opacity="0.102"/>
    </linearGradient>
    <linearGradient id="linear-gradient-2" x1="0.5" y1="1" x2="0.5" y2="0" xlink:href="#linear-gradient"/>
    <linearGradient id="linear-gradient-3" x1="3.499" y1="1.031" x2="3.499" y2="0.019" xlink:href="#linear-gradient"/>
  </defs>
  <g id="undraw_content_vbqo" transform="translate(0 0.077)">
    <ellipse id="Ellipse_9" data-name="Ellipse 9" class="cls-1" cx="67.687" cy="16.721" rx="67.687" ry="16.721" transform="translate(624.5 547.193)"/>
    <ellipse id="Ellipse_10" data-name="Ellipse 10" class="cls-1" cx="67.687" cy="16.721" rx="67.687" ry="16.721" transform="translate(26.998 549.979)"/>
    <path id="Path_617" data-name="Path 617" class="cls-2" d="M626.875,179.2s-9.513-3.861-39.763,10.02-34.05,12.109-41.866,9.986-12.17-2.623-20.595-14.2c0,0-5.923-32.1-11.65-37.079s-30.088,2.833-30.088,2.833-29.2,6.7-34.767-32.326c0,0,3.949-29.418-1.427-38.445,0,0,10.818,4.686,28.763-2.874s32.245,8.114,32.245,8.114,4.517,11.7,4.057,18.668,2.387,9.588,10.933,6.22c0,0,4.192-5.97-1.751-15.835S510.783,77.06,512.446,69.4s6.423-18.255,21.744-23.6,36.132-6.342,46.125-10.5,12.407-6.863,12.407-6.863-6.159,6.18,8.343,32.285,5.254,37.444,5.254,37.444-7.708,18.364-41.717,16.9c0,0-32.772,1.2-14.875,15.1,0,0,11.447-2.333,28.553-7.769s29.459,17,32.522,32.623S626.875,179.2,626.875,179.2Z" transform="translate(-163.902 -21.771)"/>
    <path id="Path_618" data-name="Path 618" class="cls-3" d="M635.631,57.727l.183-.047c1.312,4.983-13.34,25.017-25.855,40.926l-.149-.115C627.477,76.037,636.652,61.561,635.631,57.727Z" transform="translate(-216.722 -31.241)"/>
    <path id="Path_619" data-name="Path 619" class="cls-3" d="M593.106,117.55l.074.2c-10,12.718-22.576,27.89-32.643,39.128-.96,1.075-1.913,2.2-2.833,3.347l-.284-.237c.92-1.149,1.88-2.279,2.84-3.381C570.321,145.407,583.113,130.261,593.106,117.55Z" transform="translate(-199.755 -50.631)"/>
    <path id="Path_620" data-name="Path 620" class="cls-3" d="M546.629,179.88l.2.338c-18.323,22.873-19.533,58.39-19.608,58.7l-3.867-4.462C523.431,234.146,528.178,202.909,546.629,179.88Z" transform="translate(-188.72 -70.818)"/>
    <path id="Path_621" data-name="Path 621" class="cls-4" d="M613.436,197.149s-21.636-11.23-38.438-7.2-54.766-14.239-54.766-14.239-16.1-6.545-19.331-14c0,0-11.041-11.67-11.67-17.715s-11.379-21.23-18.391-21.819" transform="translate(-171.714 -52.131)"/>
    <path id="Path_622" data-name="Path 622" class="cls-4" d="M672.464,241.449s-10.9-7.329-9.615-15.869" transform="translate(-233.866 -85.619)"/>
    <path id="Path_623" data-name="Path 623" class="cls-4" d="M644.23,249.746s-15.551-5.652-17.12-27.8" transform="translate(-222.325 -84.444)"/>
    <path id="Path_624" data-name="Path 624" class="cls-4" d="M610.06,255.3s-14.875-12.339-9.932-33.894" transform="translate(-213.261 -84.269)"/>
    <path id="Path_625" data-name="Path 625" class="cls-4" d="M568.407,246.2s-9.905-20.764-1.1-34.273" transform="translate(-201.776 -81.198)"/>
    <path id="Path_626" data-name="Path 626" class="cls-4" d="M677.721,212.82s-11.258,3.57-8.844,9.466" transform="translate(-235.743 -81.487)"/>
    <path id="Path_627" data-name="Path 627" class="cls-4" d="M654.616,182.61s-15.057,4.78-15.416,26.078" transform="translate(-226.241 -71.703)"/>
    <path id="Path_628" data-name="Path 628" class="cls-4" d="M624.9,175.34s-13.7,16.9-12.691,32.285" transform="translate(-217.481 -69.348)"/>
    <path id="Path_629" data-name="Path 629" class="cls-4" d="M589.719,185.15s-13.61,13.009-11.873,20.25" transform="translate(-206.321 -72.525)"/>
    <path id="Path_630" data-name="Path 630" class="cls-4" d="M576.37,177.44s-12.765,2.292-14.55-1.9" transform="translate(-201.18 -69.413)"/>
    <path id="Path_631" data-name="Path 631" class="cls-4" d="M558.81,155.56s6.45,8.54,8.114,6.626" transform="translate(-200.205 -62.942)"/>
    <path id="Path_632" data-name="Path 632" class="cls-4" d="M634.459,144.043s-32.17,2.319-39.459-7.363" transform="translate(-211.926 -56.827)"/>
    <path id="Path_633" data-name="Path 633" class="cls-4" d="M548.8,91.91s15.1,32.407,26.058,36.511" transform="translate(-196.963 -42.327)"/>
    <path id="Path_634" data-name="Path 634" class="cls-4" d="M572.22,69.08s9.276,29.811,20.764,39.114" transform="translate(-204.548 -34.933)"/>
    <path id="Path_635" data-name="Path 635" class="cls-5" d="M654.631,111.132s-24.469,10.5-39.161-.122" transform="translate(-218.555 -48.513)"/>
    <path id="Path_636" data-name="Path 636" class="cls-5" d="M604.46,59.68s5.592,21.913,13.124,27.207" transform="translate(-214.99 -31.889)"/>
    <path id="Path_637" data-name="Path 637" class="cls-5" d="M658.874,74.89S645.129,80.1,639.99,76.107" transform="translate(-226.497 -36.815)"/>
    <path id="Path_638" data-name="Path 638" class="cls-4" d="M538.9,166.15s0,19.1-5.2,20.46" transform="translate(-192.072 -66.372)"/>
    <path id="Path_639" data-name="Path 639" class="cls-4" d="M478.52,198.494s20.649,1.771,30.176-8.884" transform="translate(-174.201 -73.97)"/>
    <path id="Path_640" data-name="Path 640" class="cls-4" d="M524.513,132.78s-5,19.371-18.783,24.591" transform="translate(-183.014 -55.564)"/>
    <path id="Path_641" data-name="Path 641" class="cls-4" d="M460.2,168.807s14.618,5.084,27.187-7.857" transform="translate(-168.268 -64.687)"/>
    <path id="Path_642" data-name="Path 642" class="cls-4" d="M504.524,108.15S503.172,124.6,494.2,132.3" transform="translate(-179.28 -47.587)"/>
    <path id="Path_643" data-name="Path 643" class="cls-4" d="M461,133.637s12.13.088,14.97-3.867" transform="translate(-168.527 -54.589)"/>
    <path id="Path_644" data-name="Path 644" class="cls-1" d="M431.083,111.456c-48.276,8.053-96.626,3.719-143.17-2.285S194.932,95.5,146.555,97c-31.1.974-65.7,7.086-87.221,25.842-20.7,18.046-23.665,42.718-23.468,65.03.149,16.782,1.724,34.165,13.09,47.66,7.89,9.364,19.953,16.166,29.074,24.827,31.778,30.142,22.765,76.835,2.644,116.375C71.207,395.288,59.639,413.5,53.29,432.515s-6.978,39.506,4.976,55.253c11.859,15.612,34.543,24.6,58.147,29.425,47.931,9.784,101.129,4.733,152.582-2.292C382.882,499.276,495.5,474,607.79,448.776c41.562-9.331,83.306-18.715,123.292-32.454,22.2-7.613,44.794-17.194,59.013-32.346,18.046-19.236,18.208-45.787.379-61.893-29.912-27.045-96.828-21.961-120.08-52.738-12.806-16.9-7.593-39.635,2.191-59.614,20.96-42.867,62.035-84.956,56.119-128.032-4.057-29.587-32.711-54.361-70.777-61.21-39.892-7.174-90.878,4.807-113.441,34.226C521.252,85.087,473.707,104.356,431.083,111.456Z" transform="translate(-30.835 -18.54)"/>
    <rect id="Rectangle_192" data-name="Rectangle 192" class="cls-6" width="642.545" height="363.98" rx="12.49" transform="translate(51.582 101.469)"/>
    <rect id="Rectangle_193" data-name="Rectangle 193" class="cls-7" width="640.578" height="357.652" rx="12.49" transform="translate(52.603 106.587)"/>
    <rect id="Rectangle_194" data-name="Rectangle 194" class="cls-7" width="640.578" height="357.652" rx="12.49" transform="translate(52.603 106.587)"/>
    <rect id="Rectangle_195" data-name="Rectangle 195" class="cls-8" width="640.578" height="357.652" rx="12.49" transform="translate(52.603 106.587)"/>
    <path id="Path_645" data-name="Path 645" class="cls-9" d="M743.543,170.15h-634.1a3.252,3.252,0,0,0-3.252,3.252v13.752H746.768V173.429a3.252,3.252,0,0,0-3.225-3.279Z" transform="translate(-53.614 -67.667)"/>
    <g id="buttons" transform="translate(61 106.587)">
      <circle id="Ellipse_11" data-name="Ellipse 11" class="cls-7" cx="4.395" cy="4.395" r="4.395"/>
      <circle id="Ellipse_12" data-name="Ellipse 12" class="cls-7" cx="4.395" cy="4.395" r="4.395" transform="translate(11.832)"/>
      <circle id="Ellipse_13" data-name="Ellipse 13" class="cls-7" cx="4.395" cy="4.395" r="4.395" transform="translate(23.665)"/>
    </g>
    <rect id="Rectangle_196" data-name="Rectangle 196" class="cls-7" width="534.142" height="265.57" rx="10.19" transform="translate(95.483 198.662)"/>
    <rect id="Rectangle_197" data-name="Rectangle 197" class="cls-10" width="153.643" height="16.126" rx="3.86" transform="translate(72.833 137.533)"/>
    <rect id="Rectangle_198" data-name="Rectangle 198" class="cls-11" width="153.643" height="16.126" rx="3.86" transform="translate(362.554 229.487)"/>
    <rect id="Rectangle_199" data-name="Rectangle 199" class="cls-11" width="239.911" height="16.126" rx="3.86" transform="translate(362.554 274.639)"/>
    <rect id="Rectangle_200" data-name="Rectangle 200" class="cls-11" width="239.911" height="16.126" rx="3.86" transform="translate(362.554 301.008)"/>
    <rect id="Rectangle_201" data-name="Rectangle 201" class="cls-11" width="239.911" height="16.126" rx="3.86" transform="translate(362.554 327.377)"/>
    <rect id="Rectangle_202" data-name="Rectangle 202" class="cls-11" width="239.911" height="16.126" rx="3.86" transform="translate(362.554 353.746)"/>
    <rect id="Rectangle_203" data-name="Rectangle 203" class="cls-11" width="478.023" height="16.126" rx="3.86" transform="translate(124.441 382.819)"/>
    <rect id="Rectangle_204" data-name="Rectangle 204" class="cls-11" width="478.023" height="16.126" rx="3.86" transform="translate(124.441 409.188)"/>
    <rect id="Rectangle_205" data-name="Rectangle 205" class="cls-11" width="478.023" height="16.126" rx="3.86" transform="translate(124.441 435.557)"/>
    <path id="Path_646" data-name="Path 646" class="cls-2" d="M752.447,678.54s4.009,5.24-1.853,13.157-10.69,14.6-8.736,19.533c0,0,8.837-14.7,16.038-14.875S760.364,687.377,752.447,678.54Z" transform="translate(-259.346 -232.32)"/>
    <path id="Path_647" data-name="Path 647" class="cls-12" d="M752.555,678.54a6.493,6.493,0,0,1,.818,1.643c7.025,8.249,10.764,15.95,4.016,16.139-6.288.183-13.834,11.427-15.639,14.26a5.208,5.208,0,0,0,.216.676s8.837-14.7,16.038-14.875S760.472,687.377,752.555,678.54Z" transform="translate(-259.454 -232.32)"/>
    <path id="Path_648" data-name="Path 648" class="cls-13" d="M768.31,687.855c0,1.846-.2,3.34-.46,3.34s-.46-1.494-.46-3.34.257-.974.514-.974S768.31,686.009,768.31,687.855Z" transform="translate(-267.758 -234.955)"/>
    <path id="Path_649" data-name="Path 649" class="cls-13" d="M771.023,691.057c-1.623.879-3.036,1.413-3.158,1.19s1.1-1.122,2.7-2.028.98-.243,1.1,0S772.639,690.171,771.023,691.057Z" transform="translate(-267.909 -235.953)"/>
    <path id="Path_650" data-name="Path 650" class="cls-2" d="M722.1,678.54s-4.009,5.24,1.846,13.157,10.7,14.6,8.742,19.533c0,0-8.844-14.7-16.038-14.875S714.183,687.377,722.1,678.54Z" transform="translate(-250.176 -232.32)"/>
    <path id="Path_651" data-name="Path 651" class="cls-12" d="M722.1,678.54a6.346,6.346,0,0,0-.825,1.643c-7.018,8.249-10.757,15.95-4.009,16.139,6.288.183,13.827,11.427,15.632,14.26a5.181,5.181,0,0,1-.21.676s-8.844-14.7-16.038-14.875S714.183,687.377,722.1,678.54Z" transform="translate(-250.176 -232.32)"/>
    <path id="Path_652" data-name="Path 652" class="cls-13" d="M715.38,687.858c0,1.846.21,3.34.467,3.34s.46-1.494.46-3.34-.257-.96-.507-.96S715.38,686.013,715.38,687.858Z" transform="translate(-250.913 -234.958)"/>
    <path id="Path_653" data-name="Path 653" class="cls-13" d="M711.13,691.057c1.623.879,3.036,1.413,3.158,1.19s-1.1-1.122-2.7-2.028-.98-.243-1.1,0S709.507,690.171,711.13,691.057Z" transform="translate(-249.219 -235.953)"/>
    <ellipse id="Ellipse_14" data-name="Ellipse 14" class="cls-1" cx="41.92" cy="6.43" rx="41.92" ry="6.43" transform="translate(440.593 506.152)"/>
    <path id="Path_654" data-name="Path 654" class="cls-14" d="M753.317,715.277l-.2,1.636-.277,2.312-.122.967-.277,2.312-.122.967-.284,2.306-3.2,26.3c-.291,2.346-4.124,4.178-8.79,4.178H723.391c-4.631,0-8.458-1.832-8.742-4.178L711.431,725.8l-.277-2.306-.122-.967-.284-2.312-.115-.967-.284-2.312-.2-1.636c-.156-1.352,1.92-2.448,4.537-2.448h34.09C751.39,712.83,753.466,713.945,753.317,715.277Z" transform="translate(-249.216 -243.432)"/>
    <path id="Path_655" data-name="Path 655" class="cls-15" d="M724.772,700.32l-.277,2.312H682.3l-.284-2.312Z" transform="translate(-220.887 -226.839)"/>
    <path id="Path_656" data-name="Path 656" class="cls-15" d="M724.564,705.16l-.277,2.312H682.894l-.284-2.312Z" transform="translate(-221.078 -228.406)"/>
    <path id="Path_657" data-name="Path 657" class="cls-15" d="M724.359,710.01l-.284,2.312H683.487l-.277-2.312Z" transform="translate(-221.272 -229.977)"/>
    <rect id="Rectangle_206" data-name="Rectangle 206" class="cls-11" width="204.191" height="149.79" rx="8.5" transform="translate(124.441 220.542)"/>
    <path id="Path_658" data-name="Path 658" class="cls-16" d="M1091.847,551.6c.257-.676-1.65-4.544-1.65-4.733s-1.968-2.333-1.968-3.529-2.6-3.786-2.6-3.786-3.5-1.447-3.874-4.6-4.185-3.212-4.192-3.212h0v-.724a9.954,9.954,0,0,0-.467-3.685,3.712,3.712,0,0,0-2.157-1.832s-.385-2.461-1.143-3.218a3.617,3.617,0,0,1-.892-3.381c.385-1.19-.507-4.219-2.346-4.665s-3.942-1.136-3.942-1.136l-.507.088-.25-.088a10.538,10.538,0,0,1-1.352.169,1.67,1.67,0,0,1-1.075-.352c-.635-.676-5.781-2.028-6.761-2.028a15.457,15.457,0,0,1-3.685-1.264s-1.907-1.447-2.7-2.082a17.737,17.737,0,0,1-2.394-3.293V504.2h0a11.647,11.647,0,0,1-.575-1.657h0a14.913,14.913,0,0,0,2.36-3.252c.068-.122.128-.243.189-.372a1.418,1.418,0,0,0,.412-.061l.169-.068a2.745,2.745,0,0,0,1.352-1.609h0a4.273,4.273,0,0,0,.122-.419v-.142l.061-.284a1.333,1.333,0,0,1,0-.162l.041-.284v-.162a.938.938,0,0,1,.047-.358h0a12.624,12.624,0,0,1,.2-1.352h0c.379-1.711,1.413-3.158,2.137-4.733h0c.1-.223.2-.453.291-.676s.176-.507.25-.764l.061-.237c.047-.189.088-.379.128-.568s0-.169.047-.257q.061-.385.1-.791a9.777,9.777,0,0,0-.676-4.429c-.473-1.183-1.183-2.252-1.663-3.435-.73-1.792-.926-3.827-1.812-5.538a6.592,6.592,0,0,0-7.911-3.218c-1.352.514-2.583,1.508-3.982,1.954-1.88.6-3.881.149-5.828-.115s-4.057-.3-5.652.974c-1.8,1.46-2.285,4.206-3.976,5.808-.676.676-1.589,1.1-2.339,1.724a3.819,3.819,0,0,0-1.177,1.609l-.041.128a1.217,1.217,0,0,0-.041.169,1.579,1.579,0,0,0-.034.189.766.766,0,0,0,0,.129,1.424,1.424,0,0,0,0,.338h0a2.581,2.581,0,0,0,.047.318v.088a.791.791,0,0,0,.081.264c.034.088,0,.034,0,.047s.074.2.115.291l.061.142a.113.113,0,0,0,.054.115,8.419,8.419,0,0,1,.588,1.467,1.63,1.63,0,0,1-.061.967,2.852,2.852,0,0,1-.676.926,13.083,13.083,0,0,0-2.867,4.591q-.115.3-.2.588h.088a3.837,3.837,0,0,0,.554.115,2.7,2.7,0,0,0,.318,0,4.949,4.949,0,0,0,1.3-.095l.325-.081a7.344,7.344,0,0,0,1.285-.466q0,.193,0,.385v.216a15,15,0,0,0,8.337,13.414,2.8,2.8,0,0,0,.054.406l.041.345-.169-.162s-1.143-.568-2.224,1.068a7.18,7.18,0,0,1-3.11,2.4s-11.562,1.826-12.008,3.34l-5.409.318s-1.907.25-2.1,4.226-1.2,4.348-1.2,4.348-2.224,3.915-2.028,5.93a3.306,3.306,0,0,1-1.717,3.029l-.25,3.6a2.481,2.481,0,0,0-2.7,2.143,8.553,8.553,0,0,1-1.582,3.59s-3.5,2.907-3.685,5.362l-2.164,1.352s-5.017-1.136-6.159-3.151c0,0-.135-.135-.352-.331v-.047h0a20.361,20.361,0,0,0-2.1-1.846,1.52,1.52,0,0,1,.1,1.014l-.372-.412-1-1.109s-8.114-7.6-12.846-8.2h0c-.061-.122-.372-1.352-1.183-.575a6.626,6.626,0,0,0-.047,9.716l7.6,7.093.2.142,1.63,2.1a19.041,19.041,0,0,0-.676,1.88v.061l-.122.365a.825.825,0,0,0-.034.122c-.04.122-.074.237-.108.352l-.061.2v.122c-.182.636-.3,1.122-.352,1.393l-.426-.135.412.183v.2l.392.169c2.224.967,13.327,5.842,13.894,6.579s4.828,3.218,8.641,1.2a9.1,9.1,0,0,0,4.631-5.1s3.685-5.112,3.813-5.869,2.982-1.636,2.982-1.636.257,8.445-1.2,11.542-4.192,16.775-4.192,16.775a1.935,1.935,0,0,1,.541,0l-.162.791a1.836,1.836,0,0,1,.676,0c-.2,1.555-1.352,8.79-1.352,8.79a18.011,18.011,0,0,1-1.014,4.415c-.636,1.136-.676,7.066-.676,7.066l-1.021,4.287s.135.3.385.737h0a10.974,10.974,0,0,0,2.921,3.78,7.483,7.483,0,0,1-.514,1.961,6.9,6.9,0,0,0-.507,3.029,39.331,39.331,0,0,0-.953,6.241,23.841,23.841,0,0,1-.676,4.794L998.8,636.5s-.757,9.52-.379,12.109a23.238,23.238,0,0,1-.257,6.085s.764,7.505.575,8.323-1.143,4.354-.575,6.308.257,7.316.257,7.316.379,7.066.825,9.337a15.985,15.985,0,0,1-.128,5.172,42.626,42.626,0,0,1-.636,4.855c-.189,0-1.839,3.34,1.521,6.619s1.278,2.772,1.278,2.772-2.7-1.352-2.353,1.393c.3,2.576.717,1.907.757,1.832l-.635,2.076.446.061-.365.44a9.5,9.5,0,0,1-1.285,1.352,2.752,2.752,0,0,0-.825,1.826s-4.7,5.111-9.08,7.694a26.258,26.258,0,0,0-5.159,3.469c-.784.852-.676,1.542.967,2.082,3.428,1.136,9.466,1.7,13.779.25a16.119,16.119,0,0,0,6.761-4.348,9.569,9.569,0,0,1,5.409-.886c2.7.507,8.005-2.961,8.005-2.961l-.1-.892-.277-2.583a2.028,2.028,0,0,1-.446-1.569,8.1,8.1,0,0,0-.223-2.272c-.047-.25-.095-.5-.142-.73l.487-.095s-.629-3.212.514-3.847.818-8.891.818-8.891a9.971,9.971,0,0,0-2.218-2.2c-.764-.311-.068-4.233.068-4.733s1.143-10.284,1.143-10.284-.385-3.083.122-4.408-.635-6.437-.635-6.437a1.176,1.176,0,0,1,.318-1.386c.676-.757.446-7.505.446-7.505s-.061-3.381-.061-4.293a15.23,15.23,0,0,1,1.46-5.166c.7-1.068.25-4.415.25-4.415h0l.041-.25a.94.94,0,0,1,.054-.358l.054-.338a49.179,49.179,0,0,1,1.244-5.477c.825-2.644,1.778-7.309,1.778-7.309l5.9-15.4.068-.183s2.7,5.044,2.7,9.716a61.326,61.326,0,0,1,.514,7.126c-.162,1.514.439,8.634.439,8.634s.825,10.216.825,10.656,1.021,8.323,1.656,9.527-.635,4.855-1.021,5.233.128,9.648.128,9.648-.953,7.316-1.143,8.83-.953,7.316-.318,9.588.379,2.583.379,2.583,2.292,2.339.953,2.529a3.5,3.5,0,0,0-2.542,4.6,60.582,60.582,0,0,0,2.8,6.761l1.055-.223v.75l.074,3.759a21.922,21.922,0,0,1,.189,4.415c-.183.595-.439,3.421-.561,4.9-.047.541-.074.9-.074.9s0,3.34,7.052,2.333,8.316-3.786,8.316-3.786l.054-.345c.1-.636.331-1.988.521-2.745.25-1.007-2.028-5.551-2.028-5.551s-.379-3.09-1.014-3.78a3.38,3.38,0,0,1-.514-1.352c-.054-.257-.108-.521-.149-.778a4.6,4.6,0,0,1,.473.081s-.385-2.2,1.082-2.9a2.077,2.077,0,0,0,.886-2.772,21.417,21.417,0,0,1,.568-4.165,2.028,2.028,0,0,1,.507-2.028c.892-.886,1.589-7.066,1.589-7.066l.128-23.84s.446-4.226-.061-5.93-1.014-4.983-.318-5.869.061-4.976.061-4.976,0-8.641.953-10.818.635-15.706.635-15.706l.25-8.891s2.076-1.961,1.589-12.17c2.211-.142,4.733-.223,5.084.088.676.568,5.206,3.469,7.877,1.636a35.365,35.365,0,0,0,3.171-2.454l-1.122-18.932,1.122,1.751c0-2.644,7.5-11.224,7.5-11.224s6.984-9.02,8.506-10.088,4.51-6.761,4.51-6.761a27.432,27.432,0,0,1,1.528-3.151C1093.882,555.32,1091.6,552.291,1091.847,551.6Zm-16.383,6.619c-1.907.189-5.909,4.544-5.97,5.49a3.9,3.9,0,0,1-.845,1.69c0-.379-.061-.764-.095-1.156-.446-5.578-.933-12.366-.676-13.022.379-1.136.25-6.247.25-6.247h0l.074-.1c1.278,3.962,5.254,8.627,5.254,8.627s.676,2.028,1.528,2.076S1075.465,558.221,1075.465,558.221Z" transform="translate(-331.169 -164.469)"/>
    <path id="Path_659" data-name="Path 659" class="cls-14" d="M978.65,592.98s2.319-12.17,9.763-12.17l5.45,11.2-3.631,2.5S982.342,594.732,978.65,592.98Z" transform="translate(-336.179 -200.668)"/>
    <path id="Path_660" data-name="Path 660" class="cls-12" d="M993.863,591.97l-3.631,2.5a42.99,42.99,0,0,1-9.52-.8A10.982,10.982,0,0,1,978.65,593l.041-.2v-.041A27.047,27.047,0,0,1,980.1,588.3c.23-.548.487-1.109.771-1.67a11.321,11.321,0,0,1,4.733-5.172,6.416,6.416,0,0,1,2.481-.676h.331l.122.25,1.839,3.786Z" transform="translate(-336.179 -200.658)"/>
    <path id="Path_661" data-name="Path 661" class="cls-14" d="M1089.88,655.3s7.823-.75,8.512-.183,5.132,3.442,7.755,1.623.879-8.114.879-8.384-.25-9.2-.25-9.2l-4.692-6.322L1096.2,621.76l-12.022-1.19.311,17.579-.061,9.013Z" transform="translate(-370.357 -213.545)"/>
    <path id="Path_662" data-name="Path 662" class="cls-12" d="M1089.88,655.3s7.823-.75,8.512-.183,5.132,3.442,7.755,1.623.879-8.114.879-8.384-.25-9.2-.25-9.2l-4.692-6.322L1096.2,621.76l-12.022-1.19.311,17.579-.061,9.013Z" transform="translate(-370.357 -213.545)"/>
    <path id="Path_663" data-name="Path 663" class="cls-17" d="M982.221,574.781s-.629,7.633-5.409,7.762c0,0-1.352-.811-3.164-2.17-4.178-3.13-10.818-9.141-8.979-14.733,2.63-8.012,15.4,6.761,15.4,6.761l.987,1.1Z" transform="translate(-331.549 -194.983)"/>
    <path id="Path_664" data-name="Path 664" class="cls-12" d="M986.479,579.675s-.629,7.633-5.409,7.762c0,0-1.352-.811-3.164-2.17l-.406-.521a6.228,6.228,0,0,0,2.61.676,3.523,3.523,0,0,0,3.381-2.143,27.057,27.057,0,0,0,1.352-3.036,9.458,9.458,0,0,0,.48-1.873Z" transform="translate(-335.807 -199.878)"/>
    <path id="Path_665" data-name="Path 665" class="cls-18" d="M984.6,593.214l-1.068-1.352-3.6-4.638L978.1,584.85a6.173,6.173,0,0,0,2.6.676,3.5,3.5,0,0,0,3.381-2.143,26.5,26.5,0,0,0,1.318-3.029c.595-1.69.581-2.556.372-2.853a16.7,16.7,0,0,1,2.069,1.839h0l.345.325.128.257,1.886,3.651a.986.986,0,0,1,0,.155C990.338,584.877,990.946,592.173,984.6,593.214Z" transform="translate(-336.001 -199.583)"/>
    <path id="Path_666" data-name="Path 666" class="cls-14" d="M1026.492,834.187s-5.26,3.448-7.89,2.941a9.466,9.466,0,0,0-5.321.879,15.8,15.8,0,0,1-6.633,4.32c-4.26,1.44-10.2.872-13.583-.25-1.6-.534-1.724-1.224-.953-2.069a28.854,28.854,0,0,1,5.084-3.442,49.155,49.155,0,0,0,8.952-7.634,2.7,2.7,0,0,1,.811-1.819,9.325,9.325,0,0,0,1.264-1.352c.676-.791,1.3-1.623,1.3-1.623l15.49.581s.264,1.116.473,2.258a8.171,8.171,0,0,1,.216,2.251,2.028,2.028,0,0,0,.44,1.562l.277,2.556Z" transform="translate(-340.39 -279.476)"/>
    <path id="Path_667" data-name="Path 667" class="cls-14" d="M1083.476,839.114c-.182.75-.412,2.089-.514,2.7a1.141,1.141,0,0,1-.047.345s-1.251,2.752-8.2,3.753-6.944-2.312-6.944-2.312l.068-.9c.122-1.46.372-4.266.554-4.861a22.227,22.227,0,0,0-.182-4.381l-.074-3.732-.054-2.59,11.494-1.19a22.171,22.171,0,0,0,.372,2.563,3.292,3.292,0,0,0,.507,1.352c.622.676,1,3.753,1,3.753S1083.747,838.114,1083.476,839.114Z" transform="translate(-365.042 -280.062)"/>
    <path id="Path_668" data-name="Path 668" class="cls-12" d="M1032.926,824.757s.264,1.116.473,2.258c-1.67.3-8.972,1.569-10.818.676a28.652,28.652,0,0,0-6.511-1.562l.074-.257c.676-.791,1.3-1.623,1.3-1.623Z" transform="translate(-348.298 -279.511)"/>
    <path id="Path_669" data-name="Path 669" class="cls-12" d="M1080.146,828.543c-2.914-.494-9.317.676-11.832,1.217l-.054-2.59,11.494-1.19a22.166,22.166,0,0,0,.392,2.563Z" transform="translate(-365.201 -280.072)"/>
    <path id="Path_670" data-name="Path 670" class="cls-19" d="M1069.2,671.245l-.243,8.79s.311,13.455-.629,15.551-.94,10.7-.94,10.7.629,4.057-.061,4.943-.189,4.131.311,5.821.061,5.882.061,5.882l-.122,23.664s-.676,6.133-1.568,7.011a2.062,2.062,0,0,0-.5,2.028,21.081,21.081,0,0,0-.561,4.131,2.078,2.078,0,0,1-.872,2.752c-1.433.69-1.068,2.88-1.068,2.88-3.442-.818-13.2,1.352-13.2,1.352a59.887,59.887,0,0,1-2.759-6.7,3.469,3.469,0,0,1,2.508-4.571c1.312-.183-.94-2.5-.94-2.5s.25-.311-.379-2.569.128-8.012.318-9.513,1.122-8.79,1.122-8.79-.5-9.2-.122-9.574,1.623-4.009,1-5.193-1.629-9.013-1.629-9.466-.811-10.581-.811-10.581a84.389,84.389,0,0,1-.561-8.573,55.221,55.221,0,0,0-.507-7.072c0-4.631-2.7-9.642-2.7-9.642l-.068.183-5.815,15.389s-.94,4.631-1.751,7.262a47.694,47.694,0,0,0-1.224,5.409l-.054.338-.054.352-.041.25h0s.433,3.313-.257,4.381a15.624,15.624,0,0,0-1.433,5.132c0,.879.061,4.26.061,4.26s.25,6.694-.439,7.437a1.17,1.17,0,0,0-.311,1.352s1.122,5.071.622,6.383-.122,4.381-.122,4.381-1,9.7-1.129,10.2-.811,4.381-.061,4.692a10.018,10.018,0,0,1,2.191,2.191s.311,8.2-.811,8.823-.507,3.82-.507,3.82S1024.063,766,1022,765a28.564,28.564,0,0,0-6.511-1.562l.622-2.028c-.041.074-.453.744-.744-1.819-.318-2.7,2.312-1.352,2.312-1.352s2.069.5-1.251-2.752-1.69-6.572-1.5-6.572a41.977,41.977,0,0,0,.622-4.821,15.936,15.936,0,0,0,.128-5.132c-.44-2.251-.811-9.263-.811-9.263s.311-5.321-.257-7.262.379-5.409.568-6.261-.568-8.262-.568-8.262a23.17,23.17,0,0,0,.257-6.085c-.379-2.569.372-12.022.372-12.022l1.129-10.886a22.5,22.5,0,0,0,.676-4.733c-.135-1.352.94-6.193.94-6.193a6.869,6.869,0,0,1,.5-3.009c.629-1.251.879-5.409.879-5.409l6.011-13.766,2.941-12.17,39.743-.379s.142,1.055.385,2.968.581,4.733.96,8.242c.345,3.178.724,6.917,1.1,11.075C1071.71,668.865,1069.2,671.245,1069.2,671.245Z" transform="translate(-347.745 -217.655)"/>
    <path id="Path_671" data-name="Path 671" class="cls-17" d="M1079.885,522.466l-9.256,9.905s-11.886-4.733-10.635-6.389c.48-.629.406-2.617.128-4.807-.44-3.469-1.352-7.437-1.352-7.437s20.777-3.381,19.02.122a5.76,5.76,0,0,0-.128,4.158,15.745,15.745,0,0,0,2.224,4.449Z" transform="translate(-362.128 -178.47)"/>
    <path id="Path_672" data-name="Path 672" class="cls-12" d="M1077.762,513.809c-.635,1.285-.94,1.406-.541,2.786-2.7,2.914-6.173,6.085-10.473,6.085a14.821,14.821,0,0,1-6.626-1.555c-.44-3.469-1.352-7.437-1.352-7.437S1079.52,510.307,1077.762,513.809Z" transform="translate(-362.127 -178.454)"/>
    <path id="Path_673" data-name="Path 673" class="cls-17" d="M1078.337,497.943a14.9,14.9,0,0,1-29.8,0v-.216a14.9,14.9,0,1,1,29.79.216Z" transform="translate(-358.814 -168.971)"/>
    <path id="Path_674" data-name="Path 674" class="cls-12" d="M1075.727,646.538c-1.974,0-8.546.068-15.889.189h-.088l-2.427.041h-.074c-8.709.135-17.289-1.562-20.737-1.244-7.322.676,2.63-6.761,2.63-6.761a61.412,61.412,0,0,0,16.68,1.684l2.109-.108c6.653-.379,13.34-1,16.836-2.028C1075.011,640.23,1075.349,643.043,1075.727,646.538Z" transform="translate(-354.048 -219.291)"/>
    <path id="Path_675" data-name="Path 675" class="cls-20" d="M1075.727,645.982c-1.974,0-8.546.074-15.889.189h-.088l-2.427.041h-.074c-8.709.142-17.289-1.562-20.737-1.237-7.322.676,2.63-6.761,2.63-6.761a61.1,61.1,0,0,0,16.68,1.684l2.109-.108c6.653-.372,13.34-1,16.836-2.028C1075.011,639.673,1075.349,642.486,1075.727,645.982Z" transform="translate(-354.048 -219.113)"/>
    <path id="Path_676" data-name="Path 676" class="cls-12" d="M1054.885,532.4l-11.494,5.409-8.891,68.722s5.26-2.38,8.262-.879,12.265.128,12.265.128,6.761-.379,7.762.379,12.772-3.13,12.772-3.13,2.13-4.733.5-5.51.5-8.114.5-8.114l-1-49.574-2.028-6.383-5.409-3.259-5.5,4.381-2.63.379Z" transform="translate(-354.267 -184.274)"/>
    <path id="Path_677" data-name="Path 677" class="cls-18" d="M1054.876,531.294l-11.494,5.409-8.911,68.729s5.26-2.38,8.262-.879,12.265.128,12.265.128,6.761-.379,7.762.372,12.772-3.124,12.772-3.124,2.13-4.733.5-5.51.5-8.114.5-8.114l-1-49.574-2.028-6.383-5.409-3.259-5.5,4.381-2.63.379Z" transform="translate(-354.257 -183.917)"/>
    <path id="Path_678" data-name="Path 678" class="cls-12" d="M1060.069,536.6s3.32,3.942,3.259,4.733-.189,2.759-.189,2.759l-2.5,5.064s-1.352,6.322-1.352,7.64-2.191,12.7-2.191,12.7l-2.684,17.546-3.32,22.988,3.381,5.821,4.01-3.381,5.321-40.933,1.122-8.073s1.19-14.523,1.19-16.024a51.044,51.044,0,0,0-.676-5.443s.818-3.759,4.2-4.631-.257-.189-.257-.189l-1.934-1.562-1.69.676S1061.07,534.849,1060.069,536.6Z" transform="translate(-359.64 -186.032)"/>
    <path id="Path_679" data-name="Path 679" class="cls-2" d="M1059.545,536.024s3.313,3.942,3.252,4.733-.189,2.752-.189,2.752l-2.5,5.071s-1.352,6.322-1.352,7.633-2.191,12.7-2.191,12.7l-2.623,17.525-3.32,22.988,3.381,5.821,4-3.381,5.321-40.933,1.129-8.073s1.19-14.523,1.19-16.024a51.206,51.206,0,0,0-.676-5.45s.811-3.752,4.192-4.631-.25-.182-.25-.182l-1.941-1.569-1.69.676S1060.546,534.273,1059.545,536.024Z" transform="translate(-359.488 -185.835)"/>
    <path id="Path_680" data-name="Path 680" class="cls-12" d="M1059.378,526.79s-.5.379-.629,2.88-1.88,8.114-1.88,8.114,6.511-4.5,9.763-4Z" transform="translate(-361.512 -183.173)"/>
    <path id="Path_681" data-name="Path 681" class="cls-18" d="M1059.378,525.68s-.5.379-.629,2.88-1.88,8.114-1.88,8.114,6.511-4.5,9.763-4Z" transform="translate(-361.512 -182.813)"/>
    <path id="Path_682" data-name="Path 682" class="cls-12" d="M1081.954,523.83l-10.264,9.013s8.634,5.132,9.763,6.383,2.251-12.265,2.251-12.265Z" transform="translate(-366.312 -182.214)"/>
    <path id="Path_683" data-name="Path 683" class="cls-18" d="M1082.5,522.72l-10.264,9.013s8.641,5.132,9.763,6.383,2.251-12.265,2.251-12.265Z" transform="translate(-366.49 -181.854)"/>
    <path id="Path_684" data-name="Path 684" class="cls-12" d="M1046.851,526.745s-1.123-.561-2.191,1.068a7.066,7.066,0,0,1-3.063,2.373s-11.393,1.819-11.832,3.32l-5.321.311s-1.88.25-2.028,4.2-1.19,4.314-1.19,4.314-2.191,3.881-2.028,5.882a3.293,3.293,0,0,1-1.69,3.009l7.823,20.338s.25,8.391-1.19,11.454-4.131,16.653-4.131,16.653,1.129-.25,1.062.5-1.352,8.952-1.352,8.952a18.224,18.224,0,0,1-1,4.381c-.622,1.129-.676,7-.676,7l-1,4.26s2.373,5.321,6,4.571,10.2-14.963,10.2-14.963l4.192-15.335,3.259-15.145.94-10.264,1.5-22.725,2.191-15.017S1047.729,527.814,1046.851,526.745Z" transform="translate(-348.612 -183.128)"/>
    <path id="Path_685" data-name="Path 685" class="cls-14" d="M1046.3,525.635s-1.129-.561-2.191,1.068a7.107,7.107,0,0,1-3.07,2.373s-11.393,1.819-11.832,3.32l-5.314.311s-1.88.25-2.069,4.192-1.19,4.32-1.19,4.32-2.191,3.881-2.028,5.882a3.279,3.279,0,0,1-1.69,3.009l7.85,20.365s.25,8.391-1.19,11.454-4.131,16.653-4.131,16.653,1.129-.25,1.068.5-1.352,8.945-1.352,8.945a17.828,17.828,0,0,1-1,4.381c-.629,1.122-.676,7.011-.676,7.011l-1,4.26s2.38,5.321,6.011,4.564,10.2-14.956,10.2-14.956l4.192-15.335,3.252-15.145.9-10.3,1.5-22.725,2.191-15.017S1047.169,526.7,1046.3,525.635Z" transform="translate(-348.431 -182.768)"/>
    <path id="Path_686" data-name="Path 686" class="cls-12" d="M993.685,591.8l-3.631,2.5a42.992,42.992,0,0,1-9.52-.8l-2.028-.9-.406-.176.419.135a8.29,8.29,0,0,0,5.01.176c5.139-1.731,4.571-10.209,4.368-12.13a1.772,1.772,0,0,0-.041-.365h0v.047a3.4,3.4,0,0,0,.237.331l.23.243h0l1.88,3.611a.986.986,0,0,1,0,.155Z" transform="translate(-336.001 -200.483)"/>
    <path id="Path_687" data-name="Path 687" class="cls-14" d="M1006.432,561.14l-1.751.5-.25,3.563a2.423,2.423,0,0,0-2.63,2.13,8.6,8.6,0,0,1-1.562,3.57s-3.442,2.88-3.631,5.321l-2.13,1.312s-4.943-1.129-6.085-3.13c0,0,2.258,16.146-9.763,12.17,0,0,13.455,5.882,14.084,6.7a7.867,7.867,0,0,0,8.512,1.19,8.928,8.928,0,0,0,4.571-5.071s3.631-5.071,3.752-5.822,2.941-1.629,2.941-1.629l5.409-13.016Z" transform="translate(-336.172 -194.298)"/>
    <path id="Path_688" data-name="Path 688" class="cls-12" d="M1084.147,530.982l1.812-8.262s.818,2.7,1.629,3.32l2.7,2.028a15.876,15.876,0,0,0,3.631,1.251c.926,0,6.011,1.352,6.633,2.028s3.13.189,3.13.189,2.062.676,3.881,1.129,2.7,3.442,2.312,4.631a3.617,3.617,0,0,0,.879,3.381c.75.75,1.129,3.191,1.129,3.191a3.665,3.665,0,0,1,2.123,1.812c.629,1.352.439,4.381.439,4.381l-9.324,13.144s.122,5.071-.25,6.2,1.312,20.284,1.312,20.284l1.94,32.921a34.14,34.14,0,0,1-3.13,2.441c-.561.25-1.122-11.643-1.122-12.076s-14.462-21.636-14.462-21.636-1.941-3.13-1.941-3.82-1.812-7.011-1.812-7.011l-2.752-12.17Z" transform="translate(-369.946 -181.854)"/>
    <path id="Path_689" data-name="Path 689" class="cls-14" d="M1115.572,549.356v.717l-9.317,13.13h0s.128,5.071-.25,6.2c-.216.676.257,7.39.676,12.921.318,3.989.609,7.356.609,7.356l.825,13.962,1.116,18.932a34.118,34.118,0,0,1-3.13,2.441c-.561.25-1.122-11.643-1.122-12.083s-14.463-21.636-14.463-21.636-1.94-3.13-1.94-3.82-1.812-7.011-1.812-7.011l-2.752-12.17,1.251-37.3,1.062-8.262a17.738,17.738,0,0,0,2.38,3.313l2.7,2.069a15.875,15.875,0,0,0,3.631,1.251c.926,0,6.011,1.352,6.633,2.028s3.13.189,3.13.189,2.069.676,3.881,1.129,2.7,3.441,2.312,4.631a3.624,3.624,0,0,0,.879,3.381c.75.751,1.129,3.191,1.129,3.191a3.664,3.664,0,0,1,2.123,1.812A10.141,10.141,0,0,1,1115.572,549.356Z" transform="translate(-370.302 -181.858)"/>
    <path id="Path_690" data-name="Path 690" class="cls-12" d="M1017.53,808.76c.311,0,13.455.5,13.2,2.63S1017.53,808.76,1017.53,808.76Z" transform="translate(-348.771 -274.495)"/>
    <path id="Path_691" data-name="Path 691" class="cls-12" d="M1021.88,814s8.823,1.44,6.511,2.752S1021.88,814,1021.88,814Z" transform="translate(-350.18 -276.192)"/>
    <path id="Path_692" data-name="Path 692" class="cls-12" d="M1070.39,806.73s14.645,1.251,12.454,2.874-7.383,1.88-7.634,1.94S1070.39,806.73,1070.39,806.73Z" transform="translate(-365.891 -273.837)"/>
    <path id="Path_693" data-name="Path 693" class="cls-12" d="M1067.8,816.26s8.114,1.352,8.384,2.941S1067.8,816.26,1067.8,816.26Z" transform="translate(-365.052 -276.924)"/>
    <path id="Path_694" data-name="Path 694" class="cls-12" d="M1074.46,760.53s7.438,1.751,7.89,2.941Z" transform="translate(-367.209 -258.874)"/>
    <path id="Path_695" data-name="Path 695" class="cls-12" d="M1031.156,768.49s-3.881,1.129-.122,3.381S1031.156,768.49,1031.156,768.49Z" transform="translate(-352.614 -261.452)"/>
    <path id="Path_696" data-name="Path 696" class="cls-12" d="M1057.43,678.808c.44,0,7.262-2.252,9.642-1.251a15.854,15.854,0,0,0,5.314,1Z" transform="translate(-361.694 -231.919)"/>
    <path id="Path_697" data-name="Path 697" class="cls-12" d="M1054.478,688.425l-.068.622-5.835,15.28s-.94,4.631-1.751,7.262A47.721,47.721,0,0,0,1045.6,717l5.166-32.028Z" transform="translate(-357.862 -234.402)"/>
    <path id="Path_698" data-name="Path 698" class="cls-19" d="M1070.288,647.143l-2.427.041h-.074l-1.427-6.308,2.11-.115Z" transform="translate(-364.586 -220.084)"/>
    <path id="Path_699" data-name="Path 699" class="cls-17" d="M1103.771,636.021l-1.555,1.285-5.206,4.28s-14.077,7.512-17.958.379c-3.421-6.288,12.542-10.778,16.389-11.758l.818-.2Z" transform="translate(-368.542 -216.603)"/>
    <path id="Path_700" data-name="Path 700" class="cls-12" d="M1026.88,547.9s2.752,1.251,3.381,3S1026.88,547.9,1026.88,547.9Z" transform="translate(-351.799 -190.009)"/>
    <path id="Path_701" data-name="Path 701" class="cls-12" d="M1012.964,575.67s-4,4.882-2.38,6.761S1012.964,575.67,1012.964,575.67Z" transform="translate(-346.396 -199.003)"/>
    <path id="Path_702" data-name="Path 702" class="cls-12" d="M1118.331,552s-3.753.379-3.881,3.631Z" transform="translate(-380.161 -191.337)"/>
    <path id="Path_703" data-name="Path 703" class="cls-12" d="M1068.72,622.091c.379-.379,9.013-13.144,11.021-12.015Z" transform="translate(-365.35 -210.124)"/>
    <path id="Path_704" data-name="Path 704" class="cls-12" d="M1078.353,497.959a14.874,14.874,0,0,1-1.765,7.032h-.108c-.947-.2-1.44-1.3-2.157-1.988a2.928,2.928,0,0,0-3.381-.473,3.434,3.434,0,0,0-1.663,3.212c-.473-2.028-.325-4.138-.791-6.146s-1.866-4.057-3.786-4.057c-.825,0-1.792.3-2.387-.318a5.921,5.921,0,0,1-.676-1.413c-1.352-2.224-5.544-1.1-7.248.041s-3.685,2.955-5.8,3.928a14.9,14.9,0,0,1,29.79.216Z" transform="translate(-358.831 -168.987)"/>
    <path id="Path_705" data-name="Path 705" class="cls-21" d="M1059.776,489.545a9.5,9.5,0,0,0,.676,1.42c.6.615,1.562.3,2.387.311,1.92.034,3.327,2.069,3.786,4.057s.318,4.138.8,6.139a3.381,3.381,0,0,1,1.657-3.2,2.941,2.941,0,0,1,3.38.467c.717.676,1.21,1.792,2.157,1.988s1.853-.71,2.191-1.7a26.114,26.114,0,0,0,.541-3.117c.426-1.947,1.7-3.55,2.407-5.409a9.811,9.811,0,0,0-.061-6.991c-.473-1.176-1.17-2.231-1.643-3.381-.724-1.778-.913-3.793-1.792-5.49a6.491,6.491,0,0,0-7.8-3.2c-1.352.514-2.542,1.5-3.922,1.947-1.853.6-3.827.149-5.74-.122s-4.057-.291-5.571.967c-1.771,1.454-2.258,4.178-3.922,5.767-.676.676-1.569,1.1-2.306,1.711a3.178,3.178,0,0,0-1.291,2.542c.115,1.3,1.352,2.475.913,3.678a2.854,2.854,0,0,1-.676.913,13.1,13.1,0,0,0-3.029,5.159c3.381,1.041,6.978-2.65,9.594-4.395C1054.232,488.45,1058.4,487.328,1059.776,489.545Z" transform="translate(-356.994 -165.137)"/>
    <path id="Path_706" data-name="Path 706" class="cls-12" d="M1111.733,636.021l-1.555,1.285c-1.352-2.292-7.018-6.863-7.018-6.863l.243-.237.818-.2Z" transform="translate(-376.504 -216.603)"/>
    <path id="Path_707" data-name="Path 707" class="cls-18" d="M1113.416,632.74s-.554,1.393-1.136,2.6-1.21,2.3-1.237,1.413c-.068-1.758-7.323-7.64-7.323-7.64l.98-.96,1.143-1.109Z" transform="translate(-376.686 -215.641)"/>
    <path id="Path_708" data-name="Path 708" class="cls-12" d="M1113.7,618.246l.825,13.962c-1.947-3.022-7.282-10.771-10.71-10.521l8.323-9.574a11.15,11.15,0,0,0,.953-1.224C1113.4,614.879,1113.7,618.246,1113.7,618.246Z" transform="translate(-376.715 -210.41)"/>
    <path id="Path_709" data-name="Path 709" class="cls-12" d="M1113.885,632.74s-.554,1.393-1.136,2.6c-2.184-2.988-5.179-6.525-7.579-7.187l1.143-1.109Z" transform="translate(-377.155 -215.641)"/>
    <path id="Path_710" data-name="Path 710" class="cls-14" d="M1119.884,560.58l2.251,1.751s3.759.068,4.131,3.191,3.82,4.571,3.82,4.571,2.563,2.569,2.563,3.759,1.941,3.313,1.941,3.5,1.88,4,1.63,4.692,2.028,3.692,1.312,4.821a29.03,29.03,0,0,0-1.5,3.13s-2.941,5.632-4.442,6.694-8.384,10.02-8.384,10.02-7.39,8.506-7.39,11.136c0,0-7.194-12.015-11.454-11.7l8.323-9.574a6.491,6.491,0,0,0,1.508-2.5c.068-.933,4-5.26,5.882-5.45,0,0,.311-2.563-.5-2.63s-1.5-2.028-1.5-2.028-5.51-6.511-5.571-10.642S1119.884,560.58,1119.884,560.58Z" transform="translate(-376.893 -194.116)"/>
    <path id="Path_711" data-name="Path 711" class="cls-12" d="M1130.175,569.37s-5.26,3.881-4.131,5.139S1130.175,569.37,1130.175,569.37Z" transform="translate(-383.864 -196.963)"/>
    <path id="Path_712" data-name="Path 712" class="cls-12" d="M1132.6,592.4s9.763-3.13,10.764,0Z" transform="translate(-386.039 -203.972)"/>
    <path id="Path_713" data-name="Path 713" class="cls-12" d="M1026.492,838.576s-5.26,3.448-7.89,2.941a9.466,9.466,0,0,0-5.321.879,15.8,15.8,0,0,1-6.633,4.32c-4.26,1.44-10.2.872-13.583-.25-1.6-.534-1.724-1.224-.953-2.069,3.671.73,11.886,2.184,14.1,1.129a58.669,58.669,0,0,0,7.011-4.381s5.409-.75,6.133-.75a66.959,66.959,0,0,0,7.039-2.7Z" transform="translate(-340.39 -283.864)"/>
    <path id="Path_714" data-name="Path 714" class="cls-12" d="M1082.993,849.45a1.139,1.139,0,0,1-.047.345s-1.251,2.752-8.2,3.753-6.944-2.312-6.944-2.312l.068-.9C1070.065,851.174,1074.866,852.1,1082.993,849.45Z" transform="translate(-365.052 -287.673)"/>
    <path id="Path_715" data-name="Path 715" class="cls-12" d="M1029.974,568.26s0,14.273-1.217,15.679S1029.974,568.26,1029.974,568.26Z" transform="translate(-352.297 -196.603)"/>
    <path id="Path_716" data-name="Path 716" class="cls-12" d="M1114.17,575.07l1.819,5.1S1116.706,575.165,1114.17,575.07Z" transform="translate(-380.07 -198.809)"/>
    <g id="Group_8" data-name="Group 8" class="cls-22" transform="translate(685.96 317.965)">
      <path id="Path_717" data-name="Path 717" d="M1048.189,492.433c.46-1.17-.744-2.326-.9-3.583a2.305,2.305,0,0,0-.2,1.129c.081.953.784,1.839.967,2.7A1.543,1.543,0,0,0,1048.189,492.433Z" transform="translate(-1044.301 -488.85)"/>
      <path id="Path_718" data-name="Path 718" d="M1067.628,507.814c-.446-1.974-.311-4.057-.771-6.038s-1.866-4.057-3.786-4.057c-.825,0-1.792.3-2.387-.318-.365-.372-.433-.96-.676-1.42-1.352-2.218-5.544-1.089-7.255.047-2.556,1.7-6.085,5.26-9.358,4.449-.156.379-.3.764-.426,1.163,3.381,1.041,6.978-2.65,9.594-4.395,1.711-1.136,5.882-2.258,7.255-.041a9.5,9.5,0,0,0,.676,1.42c.6.615,1.562.3,2.387.311,1.92.034,3.327,2.069,3.786,4.057s.318,4.138.8,6.139a3.38,3.38,0,0,1,.162-1.318Z" transform="translate(-1042.97 -490.748)"/>
      <path id="Path_719" data-name="Path 719" d="M1088.861,510.1c-.338.994-1.231,1.907-2.2,1.7s-1.433-1.3-2.15-1.988a2.948,2.948,0,0,0-3.381-.473,3.421,3.421,0,0,0-1.663,3.036,3.266,3.266,0,0,1,1.474-1.812,2.941,2.941,0,0,1,3.381.467c.717.676,1.21,1.792,2.157,1.988s1.853-.71,2.191-1.7a7.985,7.985,0,0,0,.345-1.8,4.312,4.312,0,0,1-.155.582Z" transform="translate(-1054.791 -495.379)"/>
      <path id="Path_720" data-name="Path 720" d="M1096.479,497.333c-.676,1.853-1.981,3.455-2.407,5.409-.081.392-.135.8-.183,1.2.433-1.947,1.7-3.543,2.4-5.409a9.39,9.39,0,0,0,.575-2.6A9.458,9.458,0,0,1,1096.479,497.333Z" transform="translate(-1059.461 -491.146)"/>
    </g>
    <circle id="Ellipse_15" data-name="Ellipse 15" class="cls-23" cx="0.156" cy="0.156" r="0.156" transform="translate(632.37 369.162)"/>
    <rect id="Rectangle_207" data-name="Rectangle 207" class="cls-7" width="122.501" height="140.784" rx="6.61" transform="translate(574.114 372.806)"/>
    <rect id="Rectangle_208" data-name="Rectangle 208" class="cls-24" width="122.501" height="140.784" rx="6.61" transform="translate(574.114 372.806)"/>
    <rect id="Rectangle_209" data-name="Rectangle 209" class="cls-7" width="110.006" height="126.423" rx="6.61" transform="translate(580.362 379.986)"/>
    <rect id="Rectangle_210" data-name="Rectangle 210" class="cls-2" width="75.469" height="26.044" rx="6.03" transform="translate(596.366 405.341)"/>
    <rect id="Rectangle_211" data-name="Rectangle 211" class="cls-2" width="69.932" height="5.314" transform="translate(599.138 440.912)"/>
    <rect id="Rectangle_212" data-name="Rectangle 212" class="cls-2" width="96.227" height="5.314" transform="translate(587.252 452.129)"/>
    <rect id="Rectangle_213" data-name="Rectangle 213" class="cls-2" width="96.227" height="5.314" transform="translate(587.252 463.935)"/>
    <rect id="Rectangle_214" data-name="Rectangle 214" class="cls-2" width="96.227" height="5.314" transform="translate(587.252 475.74)"/>
    <rect id="Rectangle_215" data-name="Rectangle 215" class="cls-7" width="288.443" height="140.784" rx="6.61" transform="translate(0 326.268)"/>
    <rect id="Rectangle_216" data-name="Rectangle 216" class="cls-24" width="288.443" height="140.784" rx="6.61" transform="translate(0 326.268)"/>
    <rect id="Rectangle_217" data-name="Rectangle 217" class="cls-7" width="259.011" height="126.423" rx="6.61" transform="translate(14.713 333.448)"/>
    <rect id="Rectangle_218" data-name="Rectangle 218" class="cls-2" width="177.693" height="26.044" rx="6.03" transform="translate(52.407 358.81)"/>
    <rect id="Rectangle_219" data-name="Rectangle 219" class="cls-2" width="164.658" height="5.314" transform="translate(58.925 394.374)"/>
    <rect id="Rectangle_220" data-name="Rectangle 220" class="cls-2" width="226.571" height="5.314" transform="translate(30.933 405.591)"/>
    <rect id="Rectangle_221" data-name="Rectangle 221" class="cls-2" width="226.571" height="5.314" transform="translate(30.933 417.397)"/>
    <rect id="Rectangle_222" data-name="Rectangle 222" class="cls-2" width="226.571" height="5.314" transform="translate(30.933 429.202)"/>
    <path id="Path_721" data-name="Path 721" class="cls-25" d="M132.683,739.45c.8-2.934,1.352-5.517,1.352-5.517a11.494,11.494,0,0,1,1.5-5.592v-.811h0l.23-5.957a19.828,19.828,0,0,0-1.352-3.178c-1-1.913.338-8.736.338-8.736s4.348-9.513,3.617-15.686,9.209-26.93,9.209-26.93a26.693,26.693,0,0,0-.622-6.085,4.666,4.666,0,0,1-.068-1.264,1.2,1.2,0,0,1,0-.155v.047c.291-4.057,3.78-11.494,3.78-11.494l.128-14.469s-1.717-8.6,2.028-19.912c1.318-3.949,2.184-7.113,2.752-9.56.068-.277.128-.541.183-.8-6.815-1.312-12.022-2.38-12.022-2.38s4.618-16.484,7.437-19.29,5.294-11.88,5.294-11.88,1.853-11.7-.27-15.213-2.218-9.466-2.218-9.466-5.017-3.942-5.6-5.625a27.581,27.581,0,0,1-1.433-7.437c.074-1.961.791-3.719.615-4.767s1.7-4.929.906-6.836a5.233,5.233,0,0,1-.27-1.819v-.054h0a25.3,25.3,0,0,1,.642-4.861,13.793,13.793,0,0,1,5.206-2.529l.128-.446.338-1.156a5.647,5.647,0,0,1,.514-.284l.034-.426.108-1.684-.649-3.84c-1.352-6.667,7.519-7.309,7.519-7.309a4.645,4.645,0,0,1,2.576-2.1c1.8-.554-.081,9.946-.94,10.588-.676.48-2.7,3.719-3.685,5.308h0l-.162.264a3.658,3.658,0,0,1,.392.44l-.426,2.279-.068.345a9.466,9.466,0,0,1,1.318,2.454,5.1,5.1,0,0,0-1.433,3.692,11.894,11.894,0,0,1-.676,4.55c.095-.1,1.278-1.285,2.4-.947s4.246,1.413,4.246,1.413,2.346.507,2.11,1.021,1.508,2.867,1.508,2.867l6.579-5.767c.074-.183.142-.358.21-.541a15.11,15.11,0,0,0,.676-2.617,14.138,14.138,0,0,1-2.028-.724,4.415,4.415,0,0,1-1.717-1.19,7.1,7.1,0,0,1-.913-2.779,38.96,38.96,0,0,0-2.157-5.348,17.1,17.1,0,0,1-.906-9.466,6.3,6.3,0,0,1,1.082-2.7c1.1-1.386,3-1.893,4.408-2.975s2.36-2.792,3.982-3.583a7.674,7.674,0,0,1,4.841-.23,25.87,25.87,0,0,1,8.824,3.59A4.584,4.584,0,0,0,195.056,495a4.1,4.1,0,0,0,2.231-1.508.5.5,0,0,1,0-.095l.074-.074a11.15,11.15,0,0,1,.8,4.787,3.57,3.57,0,0,1-.054.757v.264a1.23,1.23,0,0,0,0,.223h0a1.115,1.115,0,0,0,.041.331,2.373,2.373,0,0,0,.561.886,4.832,4.832,0,0,1,.487.723.966.966,0,0,0-.074-.264,3.773,3.773,0,0,1,.581,2.028,1.981,1.981,0,0,1-.534,1.413,6.281,6.281,0,0,1-1.068.8,12.137,12.137,0,0,1-6.274,12.366c-.081.176-.162.358-.237.541a15.118,15.118,0,0,0-1.42,6.876,1.622,1.622,0,0,0,.054.507c.054.169.156.183.223.277h0s10.48.507,13.036-1.636,6.018,5.7,6.018,5.7,3.732.872,4.51.176,5.166.095,5.166.095a9.466,9.466,0,0,1,6.64-2.143,19.4,19.4,0,0,1,4.915-2.488h0l.122-.041h0a5.3,5.3,0,0,1,2.373-.21s5.321-4.057,6.91-6.295,9.047-10.439,9.047-10.48l.047-.406.128-1.231a4.133,4.133,0,0,0,.636.081l.162-.426a23.211,23.211,0,0,1,1.657-3.435s.061-1.562-.379-1.968.426-6.085.426-6.085,5.064-10.683,8.911-2.414c0,0,7.667,5.551.825,11.406,0,0-2.7,1.176-3.09,2.17-.27.676-1.237,2.448-1.886,3.644l-.291.534.074.068-.135,1.014-.054.4c1.21.75,2.028,1.481,1.805,2.028a11.494,11.494,0,0,0-.859,2.779s-9.56,11.021-10.926,15.882c0,0-25.057,13.617-33.13,14.347l1.116,7.329a58.433,58.433,0,0,1,.095,5.943c-.169,1.555.636,8.661.636,8.661s.994,10.453,2.123,11.954.676,7.735.676,7.735a52.674,52.674,0,0,0,1.271,8.9,22.736,22.736,0,0,1,0,8.851s3.725,9.513-5.808,2.792c0,0-4.787-.48-10.3-.879v.548c0,.717-.034,1.488-.054,2.3-.135,5.362-.385,12.745-.845,18.323-.811,9.865-4.571,29.3-4.571,29.3l-.379,9.817a13.008,13.008,0,0,1,.176,2.819,18.256,18.256,0,0,1-3.022,9.729l-1.007,6.525s-1.927,4.246-2.062,6.822a3.067,3.067,0,0,0,.054.629,5.016,5.016,0,0,1,.047,1.007c0,2.975-2.082,10.02-2.082,10.02s-.385,7.174-1.474,7.546c-.933.325,1.068,4.185,1.663,5.294a1.1,1.1,0,0,0,.047-.2l.128.216a5.1,5.1,0,0,1,.264,1.832,2.617,2.617,0,0,1-1.291,2.475c-2.089,1.17-3.225,2.164-1.508,2.65a19.107,19.107,0,0,1,1.88.467l.1-.237a1.156,1.156,0,0,1,.676,1.285,5.254,5.254,0,0,1-.737,2.407,26.208,26.208,0,0,1-3.11,5.193l-.825-.122a4.124,4.124,0,0,0,.446.9,3.434,3.434,0,0,0,1.176,1.129,3.76,3.76,0,0,0,1.447.554,4.172,4.172,0,0,1,2.988,1.6c1.014,1.427,1.616,3.34-.568,4.915l-7.782,2.353s-13.279,1.21-12.468-1.724,1.352-5.517,1.352-5.517a11.731,11.731,0,0,1,1.271-5.22,6.981,6.981,0,0,1,.5-.757l-.467-.068s-.771-6.592-2.042-7.87c-.284-.3-.345-.527-.27-.676-.115-.358.223-.554.676-.676a1.053,1.053,0,0,0,.088.257,6.52,6.52,0,0,1,1.285-.088s.561-3.414-.784-4.733a1.285,1.285,0,0,1-.23-1.028,5.266,5.266,0,0,1,.2-1.393.506.506,0,0,0,.047.081,51.172,51.172,0,0,1,3.381-7.938s.223-3.117-.588-4.4.764-16.944.764-16.944-.034-7.6,1.068-11.1-.886-7.742-.886-7.742a1.074,1.074,0,0,1,.034-.223.278.278,0,0,0,0-.061s.068-.467.176-1.19v.074c.3-2.028.845-5.619,1.21-7.3.521-2.373.426-13.834.426-13.834l-1.751-4.936-3.766,8.289-4.057,11.089a9.541,9.541,0,0,0-2.028,4.733v.358a5.63,5.63,0,0,1,0,.75,6.707,6.707,0,0,1-1.271,3.955s-1.17,5.267-2.7,6.558-1.657,3.894-1.657,3.894-2.123,7.627-3.036,8.945c-.764,1.109-.926,4.239-.953,5.2h0v.277s-.358,2.745-.439,5.057v.818a.149.149,0,0,1,0-.054,7.835,7.835,0,0,0,.149,1.873s0,.074,0,.115v-.392a19.668,19.668,0,0,1,.372,4.814c-.061,2.765-.609,6.024-2.36,7.884-3.029,3.218-4.834,2.7-4.834,2.7s1.237,4.212,2.921,5.112a1.07,1.07,0,0,1,.183.122.415.415,0,0,1,.047-.237,2.028,2.028,0,0,1,.446,1.569,11.21,11.21,0,0,1-2.366,6.085,3.38,3.38,0,0,1-1.481.8,2.533,2.533,0,0,0,.264.176,5.313,5.313,0,0,0,.581.3,2.874,2.874,0,0,0,.865.264,4.111,4.111,0,0,1,2.988,1.6c1.014,1.42,1.616,3.333-.568,4.909l-7.782,2.353S131.865,742.385,132.683,739.45Z" transform="translate(-62.183 -171.094)"/>
    <path id="Path_722" data-name="Path 722" class="cls-26" d="M201.262,862.225l7.539-2.36c2.116-1.582,1.535-3.5.554-4.922a3.949,3.949,0,0,0-2.887-1.589,3.53,3.53,0,0,1-1.406-.561,3.38,3.38,0,0,1-1.129-1.122,5.545,5.545,0,0,1-.737-2.907s-8.073-2.7-10.4-.4a6.085,6.085,0,0,0-1.034,1.413,12.17,12.17,0,0,0-1.244,5.22s-.514,2.576-1.3,5.517S201.262,862.225,201.262,862.225Z" transform="translate(-80.492 -287.02)"/>
    <path id="Path_723" data-name="Path 723" class="cls-26" d="M147.646,854.722l7.539-2.36c2.116-1.582,1.535-3.5.554-4.915a3.948,3.948,0,0,0-2.894-1.6,2.659,2.659,0,0,1-.838-.257,5.321,5.321,0,0,1-.561-.3c-2.028-1.224-1.873-4.057-1.873-4.057s-8.073-2.7-10.4-.4a5.975,5.975,0,0,0-.825,1.028,11.8,11.8,0,0,0-1.46,5.605s-.521,2.583-1.3,5.517S147.646,854.722,147.646,854.722Z" transform="translate(-63.123 -284.581)"/>
    <path id="Path_724" data-name="Path 724" class="cls-12" d="M194.028,848.364A6.087,6.087,0,0,0,193,849.777h0l12.17,1.886a5.544,5.544,0,0,1-.737-2.907S196.381,846.058,194.028,848.364Z" transform="translate(-81.729 -287.019)"/>
    <path id="Path_725" data-name="Path 725" class="cls-12" d="M139.648,841.889l-.088,2.292c1.785,3.212,11.014,2.88,13.746,1.413a5.3,5.3,0,0,1-.561-.3c-2.028-1.224-1.873-4.057-1.873-4.057s-8.073-2.7-10.4-.4A5.984,5.984,0,0,0,139.648,841.889Z" transform="translate(-64.422 -284.581)"/>
    <path id="Path_726" data-name="Path 726" class="cls-27" d="M137.929,770.252a21.009,21.009,0,0,1,1.352,3.178l-.331,8.208c1.947,3.516,12.806,2.786,14.334.974s3.272-6.646,1.643-7.539-2.826-5.112-2.826-5.112,1.751.487,4.692-2.7,2.387-10.635,1.927-12.42.3-7.694.3-7.694.054-4.165.94-5.483,2.948-8.945,2.948-8.945.095-2.6,1.6-3.894,2.65-6.565,2.65-6.565a6.8,6.8,0,0,0,1.21-4.429c-.21-2.61,1.974-5.341,1.974-5.341l3.969-11.089,3.651-8.3,1.684,4.956s.081,11.46-.426,13.834-1.352,8.7-1.352,8.7,1.92,4.239.852,7.742-1.055,11.1-1.055,11.1-1.542,15.666-.757,16.944.561,4.395.561,4.395-4.611,8.986-3.313,10.291.757,4.733.757,4.733-2.907-.115-1.711,1.183,1.839,7.836,1.839,7.836l12.515,1.94a26.483,26.483,0,0,0,3.016-5.2c1.812-3.78-.176-3.442-1.832-3.922s-.561-1.481,1.46-2.65.987-4.023.987-4.023-2.819-5.213-1.758-5.585,1.433-7.546,1.433-7.546,2.407-8.452,1.974-10.757,1.968-7.735,1.968-7.735l.974-6.518a18.005,18.005,0,0,0,2.765-12.285l.392-10.088s3.678-19.4,4.5-29.3c.514-6.315.771-14.949.886-20.338.068-3.029.095-5.03.095-5.03l-44.739-6.41a36.924,36.924,0,0,1-1.075,6.64,98.748,98.748,0,0,1-2.7,9.567c-3.665,11.312-2.028,19.912-2.028,19.912l-.142,14.469s-4.327,9.52-3.617,12.88a27.477,27.477,0,0,1,.595,6.085s-9.628,20.744-8.925,26.89-3.523,15.693-3.523,15.693S136.962,768.338,137.929,770.252Z" transform="translate(-63.778 -222.869)"/>
    <path id="Path_727" data-name="Path 727" class="cls-28" d="M172.654,748.366,159.05,746S166.494,754.222,172.654,748.366Z" transform="translate(-70.734 -254.168)"/>
    <path id="Path_728" data-name="Path 728" class="cls-12" d="M162.279,726.39s-.676,4.814,2.238,6.761C164.49,733.138,159.25,732.1,162.279,726.39Z" transform="translate(-71.475 -247.817)"/>
    <path id="Path_729" data-name="Path 729" class="cls-12" d="M164.85,703.67s11.068,9.851,15.253,9.236S164.85,703.67,164.85,703.67Z" transform="translate(-72.613 -240.459)"/>
    <path id="Path_730" data-name="Path 730" class="cls-12" d="M204,757s8.607,2.312,8.736,5.8S204,757,204,757Z" transform="translate(-85.292 -257.731)"/>
    <path id="Path_731" data-name="Path 731" class="cls-28" d="M197.613,821s12.17,2.759,8.641,4.185a58.935,58.935,0,0,1-9.31,2.454S192.982,827.707,197.613,821Z" transform="translate(-82.496 -278.459)"/>
    <g id="Group_9" data-name="Group 9" class="cls-29" transform="translate(73.802 432.562)">
      <path id="Path_732" data-name="Path 732" d="M213.907,830.171a2.434,2.434,0,0,0,1.19-1.731l.115.223s1.041,2.846-.987,4.057c-.23.128-.446.264-.676.392-.358-.081-.751-.149-1.122-.257C210.777,832.348,211.879,831.347,213.907,830.171Z" transform="translate(-161.564 -713.431)"/>
      <path id="Path_733" data-name="Path 733" d="M191.552,827.853c-.325-.325-.277-1.122,0-2.143a5.808,5.808,0,0,1,.581,3.043,2.366,2.366,0,0,0-.581-.9Z" transform="translate(-154.989 -712.546)"/>
      <path id="Path_734" data-name="Path 734" d="M197.316,752.48a14.145,14.145,0,0,1,.676,3.861,14.743,14.743,0,0,0-.852-2.664S197.214,753.21,197.316,752.48Z" transform="translate(-156.872 -688.829)"/>
      <path id="Path_735" data-name="Path 735" d="M156.131,742.263a4.964,4.964,0,0,1-.074-1.143c.128.784.21,1.508.257,2.143C156.26,742.939,156.2,742.607,156.131,742.263Z" transform="translate(-143.565 -685.15)"/>
      <path id="Path_736" data-name="Path 736" d="M195.617,806.059a6.89,6.89,0,0,1-.216-2.319,7.822,7.822,0,0,1,.487,2.934A2.858,2.858,0,0,0,195.617,806.059Z" transform="translate(-156.302 -705.431)"/>
      <path id="Path_737" data-name="Path 737" d="M190.488,836a40.839,40.839,0,0,1,1.183,6.443l12.515,1.941a26.208,26.208,0,0,0,3.022-5.2c.162-.331.284-.629.392-.9.737.372,1.007,1.17-.074,3.415a26.528,26.528,0,0,1-3.016,5.193l-12.542-1.927s-.676-6.585-1.886-7.877C189.521,836.446,189.941,836.156,190.488,836Z" transform="translate(-154.501 -715.879)"/>
      <path id="Path_738" data-name="Path 738" d="M215.489,760.442s-.379,7.174-1.433,7.546h0c-.48-1.21-.791-2.346-.318-2.515,1.055-.379,1.44-7.546,1.44-7.546s2.407-8.445,1.974-10.757,1.961-7.728,1.961-7.728l.98-6.525a18.005,18.005,0,0,0,2.765-12.285l.385-10.088s3.665-19.432,4.462-29.3c.507-6.315.764-14.949.886-20.338,0-.974.041-1.839.054-2.569l.358.054s0,2.028-.095,5.024c-.115,5.409-.372,14.03-.886,20.345-.8,9.858-4.456,29.3-4.456,29.3l-.392,10.081a18.026,18.026,0,0,1-2.759,12.285l-.987,6.525s-2.4,5.409-1.968,7.735S215.489,760.442,215.489,760.442Z" transform="translate(-162.172 -658.34)"/>
      <path id="Path_739" data-name="Path 739" d="M153.636,839.981a12.17,12.17,0,0,0,2.177-4.861c1.237,1.2-.406,5.646-1.859,7.37s-12.387,2.542-14.334-.967l.074-1.981C142.4,842.436,152.189,841.7,153.636,839.981Z" transform="translate(-138.243 -715.594)"/>
      <path id="Path_740" data-name="Path 740" d="M137.622,823.961a21,21,0,0,1,1.352,3.178l-.061,1.454a22.719,22.719,0,0,0-.96-2.123,6.267,6.267,0,0,1-.352-2.589Z" transform="translate(-137.584 -711.954)"/>
      <path id="Path_741" data-name="Path 741" d="M159.553,820.059a20.327,20.327,0,0,1-.933-2.508s1.751.48,4.686-2.738c2.137-2.346,2.427-6.91,2.251-9.912.46,1.792,1.007,9.2-1.927,12.421C161.7,819.43,160.283,819.951,159.553,820.059Z" transform="translate(-144.397 -705.807)"/>
      <path id="Path_742" data-name="Path 742" d="M168.942,766.431a55.6,55.6,0,0,0-.446,6.159,8.783,8.783,0,0,0-.176-.974c-.453-1.792.3-7.694.3-7.694s.061-4.165.94-5.483,2.948-8.945,2.948-8.945.1-2.6,1.609-3.894,2.65-6.565,2.65-6.565a6.843,6.843,0,0,0,1.21-4.429c-.21-2.61,1.974-5.341,1.974-5.341l3.969-11.089,3.651-8.3,1.684,4.963v1.582l-1.352-4.057-3.651,8.289-3.969,11.1s-2.184,2.7-1.974,5.341a6.8,6.8,0,0,1-1.21,4.429s-1.143,5.267-2.65,6.558-1.6,3.894-1.6,3.894-2.069,7.627-2.948,8.952S168.942,766.431,168.942,766.431Z" transform="translate(-147.491 -675.032)"/>
    </g>
    <path id="Path_743" data-name="Path 743" class="cls-30" d="M167.218,505.585l.636,3.827-.108,1.69-.081,1.244,4.32.615.521-.879h0a39.57,39.57,0,0,1,3.577-5.314c.825-.642,2.664-11.143.92-10.588a4.564,4.564,0,0,0-2.5,2.1S165.94,498.925,167.218,505.585Z" transform="translate(-73.337 -173.252)"/>
    <path id="Path_744" data-name="Path 744" class="cls-12" d="M167.94,519.3l4.32.615.521-.879h0a3.834,3.834,0,0,0-4.733-.974Z" transform="translate(-73.613 -180.206)"/>
    <path id="Path_745" data-name="Path 745" class="cls-31" d="M166.2,521.513l5.673,1.548.149-.852.412-2.279a3.942,3.942,0,0,0-5.51-.967l-.325,1.156Z" transform="translate(-73.05 -180.404)"/>
    <path id="Path_746" data-name="Path 746" class="cls-30" d="M303.74,507.388l5.977,3.516s.25-.48.6-1.136c.629-1.2,1.562-3,1.826-3.644.4-.994,3-2.177,3-2.177,6.633-5.862-.784-11.4-.784-11.4-3.719-8.269-8.627,2.421-8.627,2.421s-.845,5.7-.419,6.085.365,1.968.365,1.968a22.992,22.992,0,0,0-1.609,3.435C303.855,507.016,303.74,507.388,303.74,507.388Z" transform="translate(-117.595 -171.066)"/>
    <path id="Path_747" data-name="Path 747" class="cls-12" d="M303.74,515.571l5.977,3.516s.25-.48.6-1.136c-.838-.75-3.8-3.381-4.807-3.273a7.255,7.255,0,0,1-1.447,0C303.855,515.2,303.74,515.571,303.74,515.571Z" transform="translate(-117.595 -179.249)"/>
    <path id="Path_748" data-name="Path 748" class="cls-31" d="M302.71,517.523l6.761,3.644.189-1.474.135-1.014s-3.84-3.556-5.017-3.475a6.383,6.383,0,0,1-1.8-.074l-.122,1.231Z" transform="translate(-117.261 -179.396)"/>
    <path id="Path_749" data-name="Path 749" class="cls-30" d="M190.45,537.339s29.8,4.53,24.273,2.5c-3.847-1.42-5.3-3.955-5.517-6.714a15.7,15.7,0,0,1,1.352-6.883,30.167,30.167,0,0,1,2.887-5.3s-22.393-13.462-18.255-1.846a18.351,18.351,0,0,1,1.089,5.47,15.417,15.417,0,0,1-.8,5.463A16.362,16.362,0,0,1,190.45,537.339Z" transform="translate(-80.904 -179.151)"/>
    <path id="Path_750" data-name="Path 750" class="cls-12" d="M197.255,519.1a18.35,18.35,0,0,1,1.089,5.47c2.082,1.886,4.449,1.859,7.485,1.974,2.333.095,4.888.757,6.761-.3a30.169,30.169,0,0,1,2.887-5.3S193.117,507.481,197.255,519.1Z" transform="translate(-82.942 -179.151)"/>
    <circle id="Ellipse_16" data-name="Ellipse 16" class="cls-30" cx="12.38" cy="12.38" r="12.38" transform="translate(111.358 323.449)"/>
    <path id="Path_751" data-name="Path 751" class="cls-12" d="M190.45,544.3s29.8,4.53,24.273,2.5c-3.847-1.42-5.3-3.955-5.517-6.714-1.427-1.67-4.375-2.948-6.274-3.644a9.013,9.013,0,0,0-5.409-.3,7.436,7.436,0,0,0-2.028.845A16.362,16.362,0,0,1,190.45,544.3Z" transform="translate(-80.904 -186.112)"/>
    <path id="Path_752" data-name="Path 752" class="cls-12" d="M166.2,522.342l5.673,1.548.149-.852a5.051,5.051,0,0,0-5.409-2.089Z" transform="translate(-73.05 -181.233)"/>
    <path id="Path_753" data-name="Path 753" class="cls-12" d="M302.71,518.129l6.761,3.644.189-1.474a51.2,51.2,0,0,0-6.829-3.3Z" transform="translate(-117.261 -180.002)"/>
    <path id="Path_754" data-name="Path 754" class="cls-12" d="M168.65,656c11.494,2.279,27.924,5.294,30.568,4.6,2.2-.575,9.128-.237,15.152.2.068-3.029.095-5.03.095-5.03l-44.739-6.41A36.922,36.922,0,0,1,168.65,656Z" transform="translate(-73.843 -222.869)"/>
    <path id="Path_755" data-name="Path 755" class="cls-32" d="M151.72,610.149s37.9,8.019,42.048,6.93,25.118,1.068,25.118,1.068c9.216,6.707,5.625-2.8,5.625-2.8a22.883,22.883,0,0,0,0-8.851,54.1,54.1,0,0,1-1.224-8.9s.453-6.234-.636-7.728-2.028-11.954-2.028-11.954-.764-7.106-.6-8.661-.081-5.943-.081-5.943l-1.075-7.329c7.836-.737,32.1-14.381,32.1-14.381,1.352-4.841,10.608-15.943,10.608-15.943a12.008,12.008,0,0,1,.838-2.779c.676-1.636-8.54-5.321-8.54-5.321s-7.309,8.256-8.823,10.487-6.7,6.3-6.7,6.3a5.079,5.079,0,0,0-2.3.21h-.122a18.575,18.575,0,0,0-4.733,2.495,9.06,9.06,0,0,0-6.437,2.143s-4.239-.784-4.99-.088-4.368-.169-4.368-.169-3.381-7.83-5.821-5.686-12.623,1.65-12.623,1.65c-1.278-1.853-4.523-3.266-6.552-4.009a8.959,8.959,0,0,0-5.409-.3,7.028,7.028,0,0,0-2.184.953l-6.383,5.788s-1.684-2.353-1.454-2.867-2.028-1.014-2.028-1.014-2.982-1.055-4.111-1.406-2.231.838-2.326.947a12.021,12.021,0,0,0,.676-4.55,5.227,5.227,0,0,1,1.386-3.7c-3.293-9.08-11.792-1.907-11.792-1.907s-1.129,4.848-.365,6.761-1.055,5.788-.893,6.836-.521,2.792-.595,4.767a29.332,29.332,0,0,0,1.352,7.437c.534,1.677,5.409,5.625,5.409,5.625s.088,5.936,2.137,9.466.25,15.213.25,15.213-2.434,9.067-5.145,11.88S151.72,610.149,151.72,610.149Z" transform="translate(-68.36 -180.183)"/>
    <path id="Path_756" data-name="Path 756" class="cls-12" d="M237.793,553.51s1.278-3.381,2.326-3.658a23.954,23.954,0,0,0,3.07-1.237l-.622-1.3s-3.949.926-4.611,2.028S237.793,553.51,237.793,553.51Z" transform="translate(-96.178 -189.818)"/>
    <path id="Path_757" data-name="Path 757" class="cls-12" d="M269.22,545.235c.169,1.048,9.385,2.339,9.385,2.339l-4.5-4.875h-.115A18.574,18.574,0,0,0,269.22,545.235Z" transform="translate(-106.415 -188.325)"/>
    <circle id="Ellipse_17" data-name="Ellipse 17" class="cls-27" cx="0.832" cy="0.832" r="0.832" transform="translate(189.296 342.833)"/>
    <circle id="Ellipse_18" data-name="Ellipse 18" class="cls-27" cx="0.832" cy="0.832" r="0.832" transform="translate(188.167 344.456)"/>
    <circle id="Ellipse_19" data-name="Ellipse 19" class="cls-27" cx="0.832" cy="0.832" r="0.832" transform="translate(187.065 345.95)"/>
    <circle id="Ellipse_20" data-name="Ellipse 20" class="cls-27" cx="0.832" cy="0.832" r="0.832" transform="translate(185.915 347.573)"/>
    <circle id="Ellipse_21" data-name="Ellipse 21" class="cls-27" cx="0.676" cy="0.676" r="0.676" transform="translate(88.066 343.868)"/>
    <circle id="Ellipse_22" data-name="Ellipse 22" class="cls-27" cx="0.676" cy="0.676" r="0.676" transform="translate(87.903 345.396)"/>
    <circle id="Ellipse_23" data-name="Ellipse 23" class="cls-27" cx="0.676" cy="0.676" r="0.676" transform="translate(87.748 346.924)"/>
    <path id="Path_758" data-name="Path 758" class="cls-12" d="M216.075,598.15c.1-.115-24.476,28.58-42.015,10.777C174.06,608.927,202.66,613.931,216.075,598.15Z" transform="translate(-75.595 -206.284)"/>
    <path id="Path_759" data-name="Path 759" class="cls-12" d="M247.658,621.68s-14.043-.156-15.666,3.82l-.162,4.2a2.7,2.7,0,0,0,2.61.1c1.447-.71,10.088-4.692,13-2.5Z" transform="translate(-94.305 -213.904)"/>
    <path id="Path_760" data-name="Path 760" class="cls-32" d="M247.6,621.66s-13.421-.149-14.976,3.644l-.156,4a2.569,2.569,0,0,0,2.495.095c1.352-.676,9.648-4.469,12.434-2.387Z" transform="translate(-94.513 -213.898)"/>
    <path id="Path_761" data-name="Path 761" class="cls-12" d="M238.638,576.2a45.568,45.568,0,0,1-5.794,9.121,36.558,36.558,0,0,1-8.844,7.9S238.327,578.093,238.638,576.2Z" transform="translate(-91.77 -199.175)"/>
    <path id="Path_762" data-name="Path 762" class="cls-12" d="M249.1,552.36s-2.7,10.013-8.891,13.212Z" transform="translate(-97.019 -191.454)"/>
    <path id="Path_763" data-name="Path 763" class="cls-12" d="M254.656,554.069c.068-.183,1.771,8.073-8.256,12.218C246.4,566.286,250.639,565.022,254.656,554.069Z" transform="translate(-99.024 -192.006)"/>
    <path id="Path_764" data-name="Path 764" class="cls-12" d="M165.353,540.562c.156,0-4.983,3.009-6.4,4.435C158.984,545,162.4,540.238,165.353,540.562Z" transform="translate(-70.702 -187.628)"/>
    <path id="Path_765" data-name="Path 765" class="cls-26" d="M206.586,518.544a2.657,2.657,0,0,1-1.034,1.636,2.549,2.549,0,0,1-1.176.21c-3.78.095-7.715.108-11.143-1.481a4.2,4.2,0,0,1-1.657-1.19,6.82,6.82,0,0,1-.886-2.779,40.227,40.227,0,0,0-2.082-5.341,17.579,17.579,0,0,1-.859-9.466,6.335,6.335,0,0,1,1.048-2.7c1.055-1.386,2.9-1.893,4.266-2.982s2.285-2.792,3.867-3.59a7.138,7.138,0,0,1,4.679-.23,24.556,24.556,0,0,1,8.587,3.6,4.321,4.321,0,0,0,2.874,1.1,4,4,0,0,0,2.2-1.555,11.494,11.494,0,0,1,.717,5.409,2.332,2.332,0,0,0,0,.811,2.469,2.469,0,0,0,.541.886c.886,1.116,1.406,2.846.446,3.9-.419.46-1.048.676-1.454,1.17-.73.838-.548,2.1-.575,3.212a1.69,1.69,0,0,1-.311,1.089,1.616,1.616,0,0,1-1.542.3,4.206,4.206,0,0,0-1.623-.216,2.7,2.7,0,0,0-1.454,1.028C208.188,513.493,207.431,515.907,206.586,518.544Z" transform="translate(-79.933 -171.37)"/>
    <g id="Group_10" data-name="Group 10" class="cls-22" transform="translate(111.156 322.211)">
      <path id="Path_766" data-name="Path 766" d="M192.945,522a4.152,4.152,0,0,0,1.657,1.2c3.428,1.589,7.363,1.569,11.143,1.481a2.468,2.468,0,0,0,1.176-.216,2.624,2.624,0,0,0,1.034-1.63c.832-2.644,1.6-5.051,3.435-7.2a2.7,2.7,0,0,1,1.454-1.034,4.34,4.34,0,0,1,1.623.216,1.6,1.6,0,0,0,1.542-.3,1.664,1.664,0,0,0,.311-1.082c0-1.116-.156-2.373.575-3.218.406-.467,1.034-.676,1.454-1.163a2.448,2.448,0,0,0,.331-2.475,2.832,2.832,0,0,1,.047,3.32c-.419.46-1.041.676-1.454,1.17-.73.838-.541,2.1-.568,3.212a1.657,1.657,0,0,1-.318,1.089,1.609,1.609,0,0,1-1.542.3,4.172,4.172,0,0,0-1.616-.216,2.7,2.7,0,0,0-1.46,1.034c-1.826,2.143-2.6,4.557-3.435,7.194a1.954,1.954,0,0,1-2.2,1.853c-3.78.088-7.715.1-11.149-1.487a4.232,4.232,0,0,1-1.657-1.19,3.246,3.246,0,0,1-.494-1.021,1.246,1.246,0,0,0,.115.169Z" transform="translate(-192.83 -498.835)"/>
      <path id="Path_767" data-name="Path 767" d="M229.257,501.195a1.67,1.67,0,0,1-.352-.676,2.333,2.333,0,0,1,0-.811,11.528,11.528,0,0,0-.406-4.5l.068-.074a11.406,11.406,0,0,1,.723,5.409,3.671,3.671,0,0,0-.034.656Z" transform="translate(-204.382 -495.13)"/>
    </g>
    <path id="Path_768" data-name="Path 768" class="cls-12" d="M210.516,542.826s-15.551,1.454-16.836-.926" transform="translate(-81.95 -188.066)"/>
    <path id="Path_769" data-name="Path 769" class="cls-12" d="M169.432,532.1s-8.594-.318-10.6,2.826" transform="translate(-70.663 -184.888)"/>
  </g>
</svg>
