<svg xmlns="http://www.w3.org/2000/svg" xmlns:xlink="http://www.w3.org/1999/xlink" viewBox="0 0 825.098 685.778">
  <defs>
    <style>
      .cls-1, .cls-3 {
        fill: #6c63ff;
      }

      .cls-1, .cls-11, .cls-5, .cls-6 {
        opacity: 0.1;
      }

      .cls-2 {
        fill: #d48a9b;
      }

      .cls-4 {
        fill: #dda2a6;
        opacity: 0.2;
      }

      .cls-7 {
        fill: #e1dee5;
      }

      .cls-8 {
        fill: #a36468;
      }

      .cls-9 {
        fill: #d9d6df;
      }

      .cls-10 {
        fill: #b8797d;
      }

      .cls-11, .cls-19 {
        fill: #fff;
      }

      .cls-12 {
        fill: url(#linear-gradient);
      }

      .cls-13 {
        fill: #efb7b9;
      }

      .cls-14 {
        fill: #67647e;
      }

      .cls-15 {
        fill: #444053;
      }

      .cls-16 {
        fill: #f3f5f9;
      }

      .cls-17 {
        fill: #d1d9ec;
      }

      .cls-18 {
        fill: #dfe6f5;
      }

      .cls-20 {
        fill: none;
      }

      .cls-21 {
        fill: #585268;
      }

      .cls-22 {
        fill: #746d83;
      }

      .cls-23 {
        fill: #4c4c56;
      }

      .cls-24 {
        fill: #d4dfec;
      }
    </style>
    <linearGradient id="linear-gradient" x1="-2.055" y1="1" x2="-2.055" gradientUnits="objectBoundingBox">
      <stop offset="0" stop-color="gray" stop-opacity="0.251"/>
      <stop offset="0.54" stop-color="gray" stop-opacity="0.122"/>
      <stop offset="1" stop-color="gray" stop-opacity="0.102"/>
    </linearGradient>
  </defs>
  <g id="undraw_on_the_office_fbfs" transform="translate(-0.004 0.024)">
    <path id="Path_770" data-name="Path 770" class="cls-1" d="M1080.549,308.36H1004.42v92.284h70.565c.182.952.356,1.9.563,2.848H1004.42V477.9l.356-.116q3.014-1.06,5.987-2.252l1.275-.522q3.047-1.25,5.987-2.675c.7-.323,1.4-.662,2.087-1.01a124.064,124.064,0,0,0,29.95-20.7c.257-.224.5-.455.729-.679,1.217-1.176,2.41-2.36,3.569-3.577l1.275-1.358c1.366-1.482,2.683-3.014,3.966-4.562l.563-.679a96.386,96.386,0,0,0,12.9-20.7c.108-.224.2-.455.3-.679,1.035-2.335,1.971-4.7,2.782-7.113.348-1.018.679-2.037.969-3.055.1-.306.19-.6.273-.9,4.223-14.78,4.712-30.14,4.712-45.418V356.56c0-6.169-.091-12.421-.207-18.589,0-1.606-.075-3.2-.116-4.819q-.149-6.152-.447-12.288c-.05-1.143-.1-2.277-.174-3.4,0-.654-.066-1.308-.108-1.962C1080.881,313.072,1080.731,310.72,1080.549,308.36Z" transform="translate(-256.996 -82.767)"/>
    <path id="Path_771" data-name="Path 771" class="cls-1" d="M1004.415,174.543h41.758a285.537,285.537,0,0,0-22.233-27.193c-6.21-6.773-12.727-13.381-19.55-19.74Z" transform="translate(-256.991 -51.684)"/>
    <path id="Path_772" data-name="Path 772" class="cls-1" d="M1004.42,187.725v97.037h75.889c0-.282-.05-.571-.075-.828-.066-.762-.132-1.524-.207-2.294s-.174-1.789-.273-2.691-.2-1.946-.315-2.906-.215-1.946-.34-2.915-.24-1.938-.373-2.9-.257-1.938-.406-2.9c-.116-.828-.224-1.59-.348-2.393-.174-1.126-.356-2.261-.547-3.378a4.728,4.728,0,0,0-.091-.5,207.983,207.983,0,0,0-5.581-24.369,167.623,167.623,0,0,0-9.415-24.733,179.576,179.576,0,0,0-14.168-24.261Z" transform="translate(-256.996 -62.017)"/>
    <path id="Path_773" data-name="Path 773" class="cls-1" d="M669.433,261.5v92.284H832.042V261.5Zm0,95.133v62.492c18.929-6.053,40.574-3.61,60.2,1.358,15.194,3.859,30,9.108,45.169,12.884a165.68,165.68,0,0,0,20.593,3.892l1.706.182c.828.083,1.656.166,2.484.232l2.484.174h1.366a2.938,2.938,0,0,0,.381,0l1.341.05h.041c.638,0,1.283,0,1.929.05h5.316a14.042,14.042,0,0,0,1.449-.05c.778,0,1.557-.066,2.343-.124l1.449-.091,1.789-.141c1.267-.1,2.484-.232,3.768-.381.5-.058,1-.116,1.5-.19l.737-.091c1.25-.166,2.484-.364,3.734-.571.919-.141,1.838-.315,2.766-.48V356.636Zm120.942-197.9v2.848H669.433v97.07H832.042V161.618h-8.156v-2.848h8.156V96.054c-31.631-25.479-68.6-45.434-109.781-54.65A233.507,233.507,0,0,0,669.433,35.9V158.769Zm-371.787-.547.571.547H651.241V36.75c-41.319,3.436-81.611,17.314-114.095,40.309-15.608,11.038-29.627,24.121-47.14,32.591a73.819,73.819,0,0,1-29.478,7.618Zm-1.6-50.046v27.615l22.423-21.885c-8.338-2.882-14.913-4.852-22.456-5.7Zm-.745,347.409h.745v60.529q12.694-.944,25.288-2.6a452.472,452.472,0,0,0,109.507-28.368h0q5.664-2.269,11.245-4.687,3.718-1.615,7.394-3.312,5.515-2.534,10.947-5.208a385.167,385.167,0,0,0,46.262-26.878c.919-.621,1.846-1.25,2.757-1.888q2.749-1.9,5.457-3.842c.9-.654,1.805-1.308,2.7-1.971l1.838-1.408c1.855-1.383,3.7-2.774,5.573-4.14h0c1.731-1.242,3.478-2.484,5.25-3.643V356.595H464.776c.132-.422.257-.828.4-1.275-.149.431-.282.828-.406,1.275H416.957v98.942ZM416.99,161.6v97.054h234.25V161.618Zm0,99.886v92.3h234.25V261.5Zm-46.834-150.5,28.617,27.93V108.019Q384.391,108.913,370.157,110.984ZM170.891,261.5v92.284H398.774V261.5Zm55.081,227.916a423.251,423.251,0,0,0,107.421,25.487h.157q10.425,1.1,20.908,1.706h.257c14.648.828,29.354,1.018,44.035.472V356.636H170.891l.828,106.253m-63.949-109.1h44.946V261.5H134.938c-1.846,3.246-3.635,6.508-5.333,9.82q-1.366,2.641-2.658,5.341C115.247,300.951,107.811,327.646,107.77,353.787Zm0,2.848c.364,18.747,4.587,37.146,13.853,54.145,7.7,14.118,18.4,26.5,31.059,37.261V356.636Zm28.8-97.981h16.113V234.642a256.156,256.156,0,0,0-16.08,24.013Zm100.962-99.886H393.4l.563-.547-.828-.828h0l-43.828-42.751a355.907,355.907,0,0,0-38.479,10.309c-1.192.389-2.385.828-3.569,1.2a348.991,348.991,0,0,0-69.729,32.616ZM170.891,212.9v45.757H398.8v-94.4l-3.2-2.6H232.944A312.771,312.771,0,0,0,170.891,212.9Z" transform="translate(-102.801 -35.91)"/>
    <path id="Path_774" data-name="Path 774" class="cls-1" d="M1004.42,246.84v48.092h75.889c0-.282-.05-.571-.075-.828-.066-.762-.132-1.524-.207-2.294s-.174-1.789-.273-2.691-.2-1.946-.315-2.906-.215-1.946-.34-2.915-.24-1.938-.373-2.9-.257-1.938-.406-2.9c-.116-.828-.224-1.59-.348-2.393-.174-1.126-.356-2.261-.547-3.378a4.733,4.733,0,0,0-.091-.5,207.984,207.984,0,0,0-5.581-24.369Z" transform="translate(-256.996 -72.187)"/>
    <path id="Path_775" data-name="Path 775" class="cls-1" d="M1080.549,308.36H1004.42v92.284h70.565c.182.952.356,1.9.563,2.848H1004.42V477.9l.356-.116q3.014-1.06,5.987-2.252l1.275-.522q3.047-1.25,5.987-2.675c.7-.323,1.4-.662,2.087-1.01a124.064,124.064,0,0,0,29.95-20.7c.257-.224.5-.455.729-.679,1.217-1.176,2.41-2.36,3.569-3.577l1.275-1.358c1.366-1.482,2.683-3.014,3.966-4.562l.563-.679a96.386,96.386,0,0,0,12.9-20.7c.108-.224.2-.455.3-.679,1.035-2.335,1.971-4.7,2.782-7.113.348-1.018.679-2.037.969-3.055.1-.306.19-.6.273-.9,4.223-14.78,4.712-30.14,4.712-45.418V356.56c0-6.169-.091-12.421-.207-18.589,0-1.606-.075-3.2-.116-4.819q-.149-6.152-.447-12.288c-.05-1.143-.1-2.277-.174-3.4,0-.654-.066-1.308-.108-1.962C1080.881,313.072,1080.731,310.72,1080.549,308.36Z" transform="translate(-256.996 -82.767)"/>
    <path id="Path_776" data-name="Path 776" class="cls-1" d="M811.56,162.753V245.9H868.8V162.753h-8.156V134.6h-33.51v28.153Z" transform="translate(-139.561 -23.151)"/>
    <rect id="Rectangle_223" data-name="Rectangle 223" class="cls-1" width="57.242" height="92.276" transform="translate(671.999 225.593)"/>
    <path id="Path_777" data-name="Path 777" class="cls-1" d="M970.574,423.25H913.34v76.734a166.788,166.788,0,0,0,20.585,3.892l1.706.182c.828.091,1.656.166,2.484.232l2.484.174h.257a8.357,8.357,0,0,1,1.11.05h.381a12.332,12.332,0,0,1,1.35.05h0c.638,0,1.283,0,1.929.05h5.316l1.457-.05c.77,0,1.557-.066,2.335-.124l1.441-.091,1.8-.141c1.259-.108,2.484-.232,3.759-.381l1.5-.19.737-.091c1.25-.174,2.484-.356,3.734-.571.927-.141,1.838-.315,2.766-.48Z" transform="translate(-241.333 -102.524)"/>
    <rect id="Rectangle_224" data-name="Rectangle 224" class="cls-1" width="47.206" height="92.955" transform="translate(314.156 129.782)"/>
    <path id="Path_778" data-name="Path 778" class="cls-1" d="M379.4,272.45v92.284H613.684v-39.8H488.891v23.483H426.6V272.45Z" transform="translate(-65.244 -46.857)"/>
    <path id="Path_779" data-name="Path 779" class="cls-1" d="M480.27,521.937h.745v60.537q12.694-.96,25.288-2.6a453.279,453.279,0,0,0,109.54-28.41q15.1-6.061,29.586-13.2a385.162,385.162,0,0,0,46.262-26.886q5.54-3.759,10.905-7.692c2.484-1.83,4.968-3.693,7.452-5.506,1.731-1.242,3.478-2.484,5.25-3.652V422.987H528.842c.132-.422.257-.828.389-1.267-.141.422-.282.828-.406,1.267H481.015V521.9Z" transform="translate(-166.859 -102.261)"/>
    <path id="Path_780" data-name="Path 780" class="cls-1" d="M332.5,177.267h30.753v-8.52H349.475v-25.3c-1.192.389-2.385.828-3.569,1.2v24.1H332.5Z" transform="translate(-141.447 -54.408)"/>
    <path id="Path_781" data-name="Path 781" class="cls-1" d="M243,284.767H422.029V191.8H414.1v68.727H377.829V219.858H347.862V187.73H317.109v32.128H287.151v40.665H243Z" transform="translate(-126.056 -62.022)"/>
    <path id="Path_782" data-name="Path 782" class="cls-1" d="M232.854,308.36v92.284H411.883V308.36Zm6.252,227.916a423.251,423.251,0,0,0,107.421,25.487h.157q10.425,1.1,20.908,1.706h.257c14.648.828,29.354,1.018,44.035.472V403.493H232.854v32.716H184l.257,73.041" transform="translate(-115.91 -82.767)"/>
    <path id="Path_783" data-name="Path 783" class="cls-1" d="M149.568,423.25H107.81c.364,18.747,4.6,37.146,13.853,54.145,7.7,14.126,18.407,26.5,31.059,37.261V455.966h-3.155Z" transform="translate(-102.808 -102.524)"/>
    <path id="Path_784" data-name="Path 784" class="cls-1" d="M107.77,403.793h41.791V326.67H126.947C115.247,350.956,107.811,377.652,107.77,403.793Z" transform="translate(-102.801 -85.915)"/>
    <rect id="Rectangle_225" data-name="Rectangle 225" class="cls-1" width="25.288" height="29.147" transform="translate(314.156 155.625)"/>
    <rect id="Rectangle_226" data-name="Rectangle 226" class="cls-1" width="25.288" height="6.707" transform="translate(314.156 216.038)"/>
    <rect id="Rectangle_227" data-name="Rectangle 227" class="cls-1" width="25.288" height="19.583" transform="translate(314.156 225.593)"/>
    <rect id="Rectangle_228" data-name="Rectangle 228" class="cls-1" width="25.288" height="29.147" transform="translate(314.156 276.443)"/>
    <rect id="Rectangle_229" data-name="Rectangle 229" class="cls-1" width="25.288" height="29.147" transform="translate(314.156 336.856)"/>
    <path id="Path_785" data-name="Path 785" class="cls-1" d="M481.015,538.052h0v6.765H506.3V515.67H481.015Z" transform="translate(-166.859 -118.417)"/>
    <path id="Path_786" data-name="Path 786" class="cls-1" d="M481.17,588.63v22.514q12.694-.96,25.288-2.6V588.671Z" transform="translate(-167.014 -130.964)"/>
    <rect id="Rectangle_230" data-name="Rectangle 230" class="cls-1" width="108.373" height="2.136" transform="translate(440.067 315.733)"/>
    <rect id="Rectangle_231" data-name="Rectangle 231" class="cls-1" width="108.373" height="8.206" transform="translate(440.067 320.726)"/>
    <rect id="Rectangle_232" data-name="Rectangle 232" class="cls-1" width="108.373" height="13.199" transform="translate(440.067 355.826)"/>
    <path id="Path_787" data-name="Path 787" class="cls-1" d="M633.23,514.06v13.2H718q5.523-3.751,10.905-7.7c2.484-1.822,4.968-3.685,7.452-5.49Z" transform="translate(-193.163 -118.14)"/>
    <path id="Path_788" data-name="Path 788" class="cls-1" d="M633.23,562.47v13.2h8.918q15.095-6.045,29.577-13.2Z" transform="translate(-193.163 -126.465)"/>
    <rect id="Rectangle_233" data-name="Rectangle 233" class="cls-1" width="21.33" height="18.97" transform="translate(251.938 253.515) rotate(180)"/>
    <rect id="Rectangle_234" data-name="Rectangle 234" class="cls-1" width="21.33" height="18.97" transform="translate(713.864 165.114) rotate(180)"/>
    <rect id="Rectangle_235" data-name="Rectangle 235" class="cls-1" width="21.33" height="18.97" transform="translate(713.864 209.182) rotate(180)"/>
    <rect id="Rectangle_236" data-name="Rectangle 236" class="cls-1" width="21.33" height="18.97" transform="translate(713.864 253.241) rotate(180)"/>
    <rect id="Rectangle_237" data-name="Rectangle 237" class="cls-1" width="21.33" height="18.97" transform="translate(713.864 297.309) rotate(180)"/>
    <rect id="Rectangle_238" data-name="Rectangle 238" class="cls-1" width="21.33" height="18.97" transform="translate(713.864 341.385) rotate(180)"/>
    <rect id="Rectangle_239" data-name="Rectangle 239" class="cls-1" width="21.33" height="18.97" transform="translate(713.864 385.445) rotate(180)"/>
    <rect id="Rectangle_240" data-name="Rectangle 240" class="cls-1" width="21.33" height="18.97" transform="translate(170.493 253.515) rotate(180)"/>
    <rect id="Rectangle_241" data-name="Rectangle 241" class="cls-1" width="21.33" height="18.97" transform="translate(251.938 300.298) rotate(180)"/>
    <rect id="Rectangle_242" data-name="Rectangle 242" class="cls-1" width="21.33" height="18.97" transform="translate(170.493 300.298) rotate(180)"/>
    <rect id="Rectangle_243" data-name="Rectangle 243" class="cls-1" width="21.33" height="18.97" transform="translate(251.938 347.09) rotate(180)"/>
    <rect id="Rectangle_244" data-name="Rectangle 244" class="cls-1" width="21.33" height="18.97" transform="translate(170.493 347.09) rotate(180)"/>
    <rect id="Rectangle_245" data-name="Rectangle 245" class="cls-1" width="21.33" height="18.97" transform="translate(251.938 393.883) rotate(180)"/>
    <rect id="Rectangle_246" data-name="Rectangle 246" class="cls-1" width="21.33" height="18.97" transform="translate(170.493 393.883) rotate(180)"/>
    <rect id="Rectangle_247" data-name="Rectangle 247" class="cls-1" width="21.33" height="18.97" transform="translate(251.938 440.683) rotate(180)"/>
    <rect id="Rectangle_248" data-name="Rectangle 248" class="cls-1" width="21.33" height="18.97" transform="translate(170.493 440.683) rotate(180)"/>
    <path id="Path_789" data-name="Path 789" class="cls-1" d="M299.822,578.04V565.81H278.5V576.3Z" transform="translate(-47.892 -97.305)"/>
    <path id="Path_790" data-name="Path 790" class="cls-1" d="M1004.42,276.26v10.855h73.008V276.26Zm65.737.687h5.954v9.489h-5.987Zm-7.27,0h5.987v9.489h-6.011Zm-7.254,0h5.987v9.489h-5.987Zm-7.27,0h5.987v9.489h-5.987Zm-7.262,0h6.028v9.489h-5.987Zm-7.27,0h5.987v9.489h-5.987Zm-7.27,0h5.987v9.489h-5.987Zm-7.262,0h5.987v9.489H1019.3Zm-7.262,0h5.987v9.489h-5.987Zm-7.262,0h5.987v9.489h-5.987Z" transform="translate(-256.996 -77.247)"/>
    <path id="Path_791" data-name="Path 791" class="cls-1" d="M1004.42,314.42v10.855h73.008V314.42Zm65.737.687h5.954v9.481h-5.987Zm-7.27,0h5.987v9.481h-6.011Zm-7.254,0h5.987v9.481h-5.987Zm-7.27,0h5.987v9.481h-5.987Zm-7.262,0h6.028v9.481h-5.987Zm-7.27,0h5.987v9.481h-5.987Zm-7.27,0h5.987v9.481h-5.987Zm-7.262,0h5.987v9.481H1019.3Zm-7.262,0h5.987v9.481h-5.987Zm-7.262,0h5.987v9.481h-5.987Z" transform="translate(-256.996 -83.809)"/>
    <path id="Path_792" data-name="Path 792" class="cls-1" d="M1004.42,352.57v10.847h73.008V352.57Zm65.737.679h5.954v9.489h-5.987Zm-7.27,0h5.987v9.489h-6.011Zm-7.254,0h5.987v9.489h-5.987Zm-7.27,0h5.987v9.489h-5.987Zm-7.262,0h6.028v9.489h-5.987Zm-7.27,0h5.987v9.489h-5.987Zm-7.27,0h5.987v9.489h-5.987Zm-7.262,0h5.987v9.489H1019.3Zm-7.262,0h5.987v9.489h-5.987Zm-7.262,0h5.987v9.489h-5.987Z" transform="translate(-256.996 -90.369)"/>
    <path id="Path_793" data-name="Path 793" class="cls-1" d="M1004.42,390.72v10.847h73.008V390.72Zm65.737.679h5.954v9.489h-5.987Zm-7.27,0h5.987v9.489h-6.011Zm-7.254,0h5.987v9.489h-5.987Zm-7.27,0h5.987v9.489h-5.987Zm-7.262,0h6.028v9.489h-5.987Zm-7.27,0h5.987v9.489h-5.987Zm-7.27,0h5.987v9.489h-5.987Zm-7.262,0h5.987v9.489H1019.3Zm-7.262,0h5.987v9.489h-5.987Zm-7.262,0h5.987v9.489h-5.987Z" transform="translate(-256.996 -96.93)"/>
    <path id="Path_794" data-name="Path 794" class="cls-1" d="M1004.42,428.87v10.872h68.644c.1-.224.2-.455.29-.679h-3.2v-9.506h5.954v2.36c.348-1.01.679-2.02.969-3.047Zm58.467.687h5.987v9.481h-6.012Zm-7.254,0h5.987v9.481h-5.987Zm-7.27,0h5.987v9.481h-5.987Zm-7.262,0h6.028v9.481h-5.987Zm-7.27,0h5.987v9.481h-5.987Zm-7.27,0h5.987v9.481h-5.987Zm-7.262,0h5.987v9.481H1019.3Zm-7.262,0h5.987v9.481h-5.987Zm-7.262,0h5.987v9.481h-5.987Z" transform="translate(-256.996 -103.491)"/>
    <path id="Path_795" data-name="Path 795" class="cls-1" d="M1004.42,467v10.847h45.633c.265-.224.5-.464.737-.679h-2.426V467.7h5.987v5.92l1.284-1.366V467.7h3.966c.19-.232.373-.464.563-.679Zm36.682.679h6.028v9.489h-5.987Zm-7.27,0h5.987v9.489h-5.987Zm-7.27,0h5.987v9.489h-5.987Zm-7.262,0h5.987v9.489H1019.3Zm-7.262,0h5.987v9.489h-5.987Zm-7.262,0h5.987v9.489h-5.987Z" transform="translate(-256.996 -110.048)"/>
    <path id="Path_796" data-name="Path 796" class="cls-1" d="M1004.42,505.18v6.566a2.575,2.575,0,0,0,.356-.124v-5.8h5.987v3.527l1.275-.522v-2.973h5.987v.331c.7-.323,1.4-.662,2.087-1Z" transform="translate(-256.996 -116.613)"/>
    <path id="Path_797" data-name="Path 797" class="cls-1" d="M425.33,284.192h.041Zm45.492,196.914h0Zm48.556-98.95h0c.132-.422.257-.828.4-1.275C519.635,381.312,519.5,381.734,519.378,382.157ZM425.33,284.192h.041Zm419.655-99.9v2.848H878.5V184.29ZM470.822,481.107h0Zm48.556-98.95h0c.132-.422.257-.828.4-1.275C519.635,381.312,519.5,381.734,519.378,382.157ZM425.33,284.192h.041Zm45.492,196.914h0Zm48.556-98.95h0c.132-.422.257-.828.4-1.275C519.635,381.312,519.5,381.734,519.378,382.157Z" transform="translate(-157.411 -61.431)"/>
    <ellipse id="Ellipse_24" data-name="Ellipse 24" class="cls-1" cx="28.633" cy="3.171" rx="28.633" ry="3.171" transform="translate(719.039 676.3)"/>
    <path id="Path_798" data-name="Path 798" class="cls-2" d="M665.1,523.941l-14.308-.787-.969-41.1-.224-9.787,15.1-2.782.1,12.619Z" transform="translate(-111.709 -80.741)"/>
    <path id="Path_799" data-name="Path 799" class="cls-2" d="M638.856,526.115,565.327,571.83l-1.59,13.911,7.949.4V576.2l48.092-27.027L561.75,621.115v11.129h9.539l-.795-12.321,67.17-76.311,8.347.795,70.755,80.286,1.59,13.522,9.539.4-1.59-13.919L670.264,554.74l37.361,25.835.795,11.129,7.552.4-.795-13.513L644.023,523.73Z" transform="translate(-96.602 -90.069)"/>
    <path id="Path_800" data-name="Path 800" class="cls-3" d="M642.93,444.916a131.171,131.171,0,0,0,17.322-28.228c5.059-11.195,10.607-24.121,11.029-27.946.828-7.154,21.065-21.463,43.323-22.258,14.515-.522,37.129-11.849,51.123-19.674a104.059,104.059,0,0,1,42.892-13.248c16.37-1.234,31.763,1.979,24.013,20.974L728.548,480.579s-88.765,15.642-94.238-9.506a20.921,20.921,0,0,0-1.267-3.693C632.008,465,631.735,458.8,642.93,444.916Z" transform="translate(-193.051 -87.061)"/>
    <path id="Path_801" data-name="Path 801" class="cls-4" d="M652.559,448.861a135.023,135.023,0,0,0,17.5-28.484c4.72-10.466,9.729-22.2,10.127-25.752.762-6.831,20.154-20.5,41.451-21.264,13.886-.5,35.523-11.311,48.9-18.788a99.7,99.7,0,0,1,41.054-12.619c15.658-1.176,30.389,1.9,23,20.038L752.03,482.885s-101.848,14.449-107.238-9.456a23.91,23.91,0,0,0-1.267-3.71C642.581,467.351,642.449,461.547,652.559,448.861Z" transform="translate(-194.863 -88.506)"/>
    <path id="Path_802" data-name="Path 802" class="cls-5" d="M766.564,518.021c-4.786,0-9.829,0-14.971-.05l-.224-9.787,15.1-2.774Z" transform="translate(-213.479 -116.653)"/>
    <g id="Group_11" data-name="Group 11" class="cls-6" transform="translate(465.148 451.158)">
      <path id="Path_803" data-name="Path 803" d="M730.161,584.135,692.8,558.3l4.281,5.341,33.08,22.879.795,11.129,7.552.4-.141-2.393-7.411-.389Z" transform="translate(-584.286 -547.171)"/>
      <path id="Path_804" data-name="Path 804" d="M573.75,578.607v2.385l44.573-25.048,3.519-4.364Z" transform="translate(-563.814 -546.016)"/>
      <path id="Path_805" data-name="Path 805" d="M561.75,651.9v2.385h9.539l-.157-2.385Z" transform="translate(-561.75 -563.267)"/>
      <path id="Path_806" data-name="Path 806" d="M572.1,596.141l-7.684-.381-.265,2.368,7.949.4Z" transform="translate(-562.163 -553.613)"/>
      <path id="Path_807" data-name="Path 807" d="M720.172,639.463l-1.59-13.522-70.755-80.286-8.347-.795-67.17,76.312.141,2.227,67.029-76.154,8.347.795,70.755,80.286,1.59,13.522,9.539.4-.273-2.4Z" transform="translate(-563.566 -544.86)"/>
    </g>
    <path id="Path_808" data-name="Path 808" class="cls-5" d="M759.52,426.06s18.614,13.613,10.466,13.77S759.52,426.06,759.52,426.06Z" transform="translate(-214.881 -103.007)"/>
    <path id="Path_809" data-name="Path 809" class="cls-3" d="M665.2,486.406s30.8-2.385,42.329-24.642c0,0,23.45-46.511,42.536-51.677s54.451-16.693,69.157-34.579,20.875-31.6,20.875-31.6,3.792,14.474-8.156,31.54-16.3,43.348-24.642,71.211-11.526,38.918-26.63,40.574c-11.385,1.2-71.583.6-100.366,0C670.889,486.977,665.2,486.406,665.2,486.406Z" transform="translate(-198.661 -88.88)"/>
    <path id="Path_810" data-name="Path 810" class="cls-4" d="M665.2,486.406s30.8-2.385,42.329-24.642c0,0,23.45-46.511,42.536-51.677s54.451-16.693,69.157-34.579,20.875-31.6,20.875-31.6,3.792,14.474-8.156,31.54-16.3,43.348-24.642,71.211-11.526,38.918-26.63,40.574c-11.385,1.2-71.583.6-100.366,0C670.889,486.977,665.2,486.406,665.2,486.406Z" transform="translate(-198.661 -88.88)"/>
    <path id="Path_811" data-name="Path 811" class="cls-3" d="M674.56,487.345s29.445-2.31,40.458-23.864c0,0,22.423-45.028,40.656-50.03s52.05-16.171,66.11-33.486,19.947-30.6,19.947-30.6,3.6,14.077-7.792,30.6-15.575,41.948-23.558,68.892-11.013,37.717-25.454,39.257c-10.88,1.159-68.42.571-95.936,0C680,487.941,674.56,487.345,674.56,487.345Z" transform="translate(-200.271 -89.819)"/>
    <path id="Path_812" data-name="Path 812" class="cls-5" d="M645.76,499.813s16.1,6.161,25.238,2.782,31.8-13.315,31.8-13.315S664.639,491.7,645.76,499.813Z" transform="translate(-195.318 -113.879)"/>
    <path id="Path_813" data-name="Path 813" class="cls-7" d="M701.106,818.762s-46.27-2.484-57.548-9.108-27.242-6.624-27.325-6.624L432,762.87,355.4,744.653l-13.663-1.8,45.128-51.636,1.375-.6,66.524-28.774s29.809,1.656,35.7,21.082a23.462,23.462,0,0,1,.828,4.19,24.311,24.311,0,0,1-4.7,17.008c-2.352,3.213-5.241,7.775-6.152,11.791-.513,2.269-.4,4.364.828,5.962a48.6,48.6,0,0,0,8.181,6.533c16.221,10.764,57.225,28.5,128.858,1.333,0,0,30.637-30.223,53.822-17.389S701.106,818.762,701.106,818.762Z" transform="translate(-143.036 -143.556)"/>
    <path id="Path_814" data-name="Path 814" class="cls-5" d="M482.188,715.921c-.513,2.269-.4,4.364.828,5.962a48.6,48.6,0,0,0,8.181,6.533L351.74,738.857l38.222-48.233,66.524-28.774s29.809,1.656,35.7,21.082a23.463,23.463,0,0,1,.828,4.19,24.311,24.311,0,0,1-4.7,17.008C485.989,707.342,483.1,711.9,482.188,715.921Z" transform="translate(-144.756 -143.556)"/>
    <path id="Path_815" data-name="Path 815" class="cls-8" d="M238.757,461.94l114.268,2.484V601.207L244.553,674.744,218.47,650.731l5.382-79.491-5.382-74.109Z" transform="translate(-37.569 -79.443)"/>
    <path id="Path_816" data-name="Path 816" class="cls-9" d="M266.24,462.128l133.413-41.112a20.213,20.213,0,0,1,7.411-.828l318.71,23.259a150.552,150.552,0,0,1,75.9,26.77c20.626,14.549,41.054,36.881,50.51,70.7a135.011,135.011,0,0,1-1.366,76.038l-28.153,91.084s21.115-197.9-189.619-207.836Z" transform="translate(-130.053 -101.988)"/>
    <path id="Path_817" data-name="Path 817" class="cls-10" d="M326.547,492.716v219.7s-36.558-5.142-43.058-12.28c-5.333-5.854-36.226-22.357-49.632-39.356-2.94-3.726-5.043-7.452-5.846-11.154C223.523,629.193,205.24,580.9,205.24,580.9l4.968-47.2,20.7-30.637,40.16-18.217H302.12Z" transform="translate(-119.563 -113.117)"/>
    <path id="Path_818" data-name="Path 818" class="cls-9" d="M269.059,497.85s-59.42,37.261-46.419,97.219c1.06,4.885,1.979,9.8,2.583,14.764,2.376,19.392,16.635,75.119,101.8,100.821v5.8l-36.127-10.077-24.526-13.522-18.722-16.793-22.887-27.921-10.624-22.771-3.892-29.991L208,561.137l5.473-29.37,12.909-19.111,15.733-12.23Z" transform="translate(-120.037 -115.353)"/>
    <path id="Path_819" data-name="Path 819" class="cls-5" d="M326.545,492.709v34.951c-25.917,2.815-106.162,19.045-91.912,111.784l-.787,21.3c-2.94-3.726-5.043-7.452-5.846-11.154-4.488-20.436-22.771-68.727-22.771-68.727l4.968-47.2,20.7-30.637,40.16-18.217H302.11Z" transform="translate(-119.561 -113.11)"/>
    <path id="Path_820" data-name="Path 820" class="cls-11" d="M514.831,708.508c-2.352,3.213-5.241,7.775-6.152,11.791-3.61-4.14-4.389-8.9.828-12.669,6.533-4.753,8.711-13,9.2-20.32a23.46,23.46,0,0,1,.828,4.19,24.311,24.311,0,0,1-4.7,17.008Z" transform="translate(-171.246 -147.934)"/>
    <path id="Path_821" data-name="Path 821" class="cls-10" d="M886.347,704.511l-15.733,53.408L835.008,792.7,790.295,801.8l-69.555-12.42V542.216s12.006-7.866,13.248-7.866,34.777,5.382,34.777,5.382l75.931,54.46,3.146,2.26,33.949,50.51Z" transform="translate(-208.212 -121.63)"/>
    <path id="Path_822" data-name="Path 822" class="cls-8" d="M618.97,495.44V752.958l6.707,1.2V495.44Z" transform="translate(-106.442 -85.204)"/>
    <path id="Path_823" data-name="Path 823" class="cls-5" d="M846.187,611.366C796.505,570.544,741.275,564.54,720.74,563.8V542.266s12.006-7.866,13.248-7.866,34.777,5.382,34.777,5.382l75.931,54.46Z" transform="translate(-208.212 -121.638)"/>
    <path id="Path_824" data-name="Path 824" class="cls-7" d="M619.574,503.889l-311.2-33.949L273.4,468.085a71.881,71.881,0,0,0-58.136,24.3c-18.217,20.949-31.987,57.9-11.874,121.356,0,0,20.974,82.248,122.549,99.919l295.144,66.88c6.542,1.482,13,3.312,19.376,5.391,26.8,8.8,117.581,31.606,160.349-45.914,14.656-26.58,19.045-57.573,13.4-87.407C803.91,598.045,765.051,505.446,619.574,503.889ZM772.039,736.475c-39.911,65.017-122.151,45.666-146.876,38.032-6.053-1.871-12.18-3.5-18.382-4.827L334.143,711.353c-93.932-15.426-113.333-87.242-113.333-87.242-15.857-47.2-8.926-77.653,3.892-96.929,13.422-20.179,36.789-31.465,61-30.24L317.93,498.6l278.351,37.187c5.631.754,11.3,1.25,16.983,1.441,123.783,4.2,162.294,72.262,172.082,119.17C791.092,683.812,786.72,712.578,772.039,736.475Z" transform="translate(-117.537 -110.214)"/>
    <path id="Path_825" data-name="Path 825" class="cls-12" d="M105.273,586.632c10.193,6.823,25.669,3.577,25.669,3.577s23.342-11.054,30.24-11.054,23.673-6.831,23.673-6.831l-.571-4.6-1.706-13.87c10.624,8.28,22.431,5.424,28.244,4.819,6.243-.646,39.6-20.477,42.818-21.786a8.481,8.481,0,0,0,2.923-2.948h0a75.16,75.16,0,0,0,5.647-10.317h0c2.087-1.838,3.61-3.312,3.5-3.635s.828-2.741,2.045-5.465c4.736-.828,8.819-2.583,10.119-3.643a8.835,8.835,0,0,0,3.312-7.154s32.55-32.831,28.269-46.486,10.524-13.985,10.524-13.985,22.68-9.754,25.835-15.6c1.946-3.6,18.962-11.51,31.763-17.057l1.573-.679c4.968,10.889,30.207,2.484,35.175-2.095,5.258-4.877,20.7-7.154,20.7-7.154s.662-63.758,5.589-71.857c2.343-3.85,2.906-16.436,2.848-28.592v-1.292c6.906-1.35,23.334-4.471,30.96-5.225,4.836-.48,9.878-3.494,13.745-6.426l.455.571a9.439,9.439,0,0,0,4.2.687,6.426,6.426,0,0,0,3.685-.687c2.964-1.656,13.812-4.877,17.753-6.5s-.654-13.331-3.61-15.608-4.968-5.2-3.312-6.5-3.941-4.554-7.229-5.208-13.149-5.2-13.149-5.2-3.618-7.452-9.531-7.452-13.812-5.854-13.812-5.854c-.323-2.6-6.575-2.923-6.575-2.923s-23.665-18.217-27.615-15.931-14.789-3.577-14.789-3.577-13.306,1.49-16.436-.961h0a3.693,3.693,0,0,0-.828-2.2c-.7-2.2-4.14-5.217-7.452-7.726a29.316,29.316,0,0,0,.381-4.7,18.377,18.377,0,0,0-.074-2.029v-.34l.472-4.579a9.456,9.456,0,0,1,1.143-4.306c.555-.828,1.375-1.532,2-2.352a5.854,5.854,0,0,0,.4-.6l.1-.174a5.422,5.422,0,0,0,.248-.489l.075-.166a7.948,7.948,0,0,0,.422-1.391v-.108c.041-.215.075-.431.1-.654a.373.373,0,0,1,0-.091,13.87,13.87,0,0,0-.745-5.581c-.985-3.072-2.526-6.036-2.691-9.241a28.593,28.593,0,0,0-.166-4.769c-.828-3.552-4.447-5.8-7.966-7.287-4.861-2.037-7.311-4.264-11.212-7.295-3.312-2.567-8.794-1.275-12.967-1.01-9.539.613-18.954,3.486-27.93,6.45-3.486,1.159-7.038,2.484-9.754,4.844a10.764,10.764,0,0,0-3.569,6.028h0a7.882,7.882,0,0,0-.108,1.656v.141a1.8,1.8,0,0,0,.075.629,1.552,1.552,0,0,0,0,.207,4.886,4.886,0,0,0,.182.745h0c.381,1.2,1.085,2.285,1.49,3.478a6.794,6.794,0,0,1,.224.828v.083a7.543,7.543,0,0,1,.132.828h0c.364,2.956-.729,6.045-1.209,9.059-.066.422-.116.828-.149,1.292h0a15.433,15.433,0,0,0,.455,5.192.157.157,0,0,0,0,.058c.05.207.124.414.19.613a2.48,2.48,0,0,0,.083.265c.058.174.132.348.2.513l.141.348c.066.149.141.3.215.447s.124.248.19.364a4.533,4.533,0,0,0,.224.4c.074.132.157.257.24.381s.157.24.248.356.19.257.29.381l.257.315.348.364.273.273.406.348c.1.075.182.157.282.224s.339.24.513.348l.24.166c.265.157.547.3.828.431,1.888.828,4.273,1.168,5.407,2.832a3.5,3.5,0,0,1,.555,1.292v.621a26.983,26.983,0,0,0,.166,2.848,10.539,10.539,0,0,0,.091,1.54,4.414,4.414,0,0,0,.315,1.118,29.544,29.544,0,0,0,9.936,16.743c.1.505.215,1.093.34,1.755a32.882,32.882,0,0,1-9.564,4.968c-7.891,2.31-19.045,12.967-19.045,12.967s-5.548,39.986-6.881,44.863-2.318,23.74-2.318,23.74-1.317,7.8-3.312,11.7c-1.4,2.749-1.143,14.565,2.749,21.744a18.134,18.134,0,0,1-2.418,3.941c-7.891,9.108-31.565,8.777-39.456,8.777-7.262,0-9.506,4.405-9.812,5.1-14.449,4.14-61.233,17.455-66.781,19.873-6.575,2.873-10.193,31.267-10.193,31.267s-13.737,47.132-13.083,53.309-4.6,23.384-4.6,23.384,0,19.45-2.227,20.767a.207.207,0,0,1-.066.041c-2.3.977-1.979,10.408-1.979,10.408s1.7.489,4.339,1.159c-.7,4.761-3.312,11.427-5.324,16.163-1.027-1.3-2.029-1.838-2.625-.331-1.656,4.14-26.3,33.4-32.55,33.4-2.973,0-7.891,2.434-11.129,5.722C101.431,578.418,99.924,583.063,105.273,586.632ZM218.341,417.241c27.946,2.6,57.863-1.979,57.863-1.979s-2.3,8.156-4.273,11.41-7.568,21.786-7.568,25.669-8.877,37.386-11.5,39.009c-1.1.687-2.087,2.393-2.865,4.14a38.876,38.876,0,0,0-1.739,4.968q.058,1.267.224,2.41c-1.962,1.8-4.041,3.685-5.887,5.357h0s-11.758,6.542-15.733,10.119S204.5,526.31,204.5,526.31a114.447,114.447,0,0,0-13.249,6.748c-5.705,3.436-11.41,7.808-12.9,12.122.646-7.27,1.7-16.022,2.4-21.587l1.043-.041c9.216-.571,7.841-9.365,7.353-11.543-.066-.315-.116-.489-.116-.489,6.575-7.154,21.363-60.446,19.393-66.325s1.656-11.054,2.426-11.054,1.847-6.5.207-10.077S218.341,417.241,218.341,417.241Zm225.97-143.432-1.747.431v-.373S443.2,273.867,444.311,273.809Zm-95.522-49.061c-.265.331-.53.646-.828.952l-.339.348v-1.805C348.019,224.4,348.4,224.591,348.789,224.749Zm-32.931,63.08.116,1.83s-.174,1.118-.505,3.031Zm151.075-18.167-5.738.985c.828-.306,1.615-.638,2.393-1.01a5.5,5.5,0,0,1,1.83-.5,10.508,10.508,0,0,1,2.136.455,3.965,3.965,0,0,0-.621.066Z" transform="translate(-101.77 -54.584)"/>
    <path id="Path_826" data-name="Path 826" class="cls-13" d="M300.943,577.091s-6.624,13.671-6.285,14.64-14.2,12.57-14.2,12.57L264.65,593.015l1.656-7.75s17.745-15.989,19.045-17.836S300.943,577.091,300.943,577.091Z" transform="translate(-129.779 -127.284)"/>
    <path id="Path_827" data-name="Path 827" class="cls-14" d="M199.133,626.013c10.971,10.648,23.872,7.452,30.008,6.782s38.868-20.328,42.014-21.62a8.569,8.569,0,0,0,2.873-2.931h0A74.457,74.457,0,0,0,279.568,598c-.215.058-10.947,3.13-13.654,0,0,0-4.521-5.539-5.49-5.539s-.075-9.721-.075-9.721-11.543,6.492-15.41,10.044-21.943,7.9-21.943,7.9a110.953,110.953,0,0,0-12.984,6.7C201.468,612.6,192.856,619.96,199.133,626.013Z" transform="translate(-118.142 -129.951)"/>
    <path id="Path_828" data-name="Path 828" class="cls-5" d="M199.133,631.131c10.971,10.648,23.872,7.452,30.008,6.782s38.868-20.328,42.014-21.62a8.568,8.568,0,0,0,2.873-2.931c-3.817-2.277-28.758,13.58-35.738,16.486s-24.642,1.283-34.67-2.906c-4.968-2.095.066-8.529,6.376-14.441C201.468,617.717,192.856,625.078,199.133,631.131Z" transform="translate(-118.142 -135.069)"/>
    <path id="Path_829" data-name="Path 829" class="cls-13" d="M194.438,593.51s-4.6,34.521-3.428,39.042-28.84-15.484-28.84-15.484,10.5-21.636,7.452-26.6S194.438,593.51,194.438,593.51Z" transform="translate(-112.156 -131)"/>
    <path id="Path_830" data-name="Path 830" class="cls-15" d="M166.457,560.951s18.714,5.482,29.031,4.836c9.042-.563,7.692-9.29,7.22-11.452-.066-.306-.116-.48-.116-.48,6.45-7.1,20.974-60.016,19.045-65.82s1.573-10.93,2.4-10.93,1.813-6.459.2-10,7.1-6.773,7.1-6.773c27.424,2.575,56.786-1.971,56.786-1.971s-2.261,8.1-4.2,11.327-7.452,21.612-7.452,25.487-8.711,37.1-11.294,38.719c-1.076.679-2.045,2.368-2.807,4.14A38.709,38.709,0,0,0,260.67,543c.969,21.62,25.487,13.249,29.039,10.326a9.526,9.526,0,0,0,1.375-1.408,9.026,9.026,0,0,0,1.846-5.7s31.946-32.583,27.747-46.138S331,486.213,331,486.213s22.266-9.68,25.363-15.492c1.913-3.569,18.606-11.41,31.175-16.925,7.875-3.453,14.126-5.978,14.126-5.978l-5.233-18.763-4.14-14.8-7.767-2.915L359.686,402l-44.565-6.252-4.082.53-43.3,5.606S204.53,419.97,198.071,422.8s-10,31.026-10,31.026-13.547,46.784-12.884,52.944-4.521,23.185-4.521,23.185,0,19.3-2.194,20.61a.116.116,0,0,1-.066,0C166.134,551.627,166.457,560.951,166.457,560.951Z" transform="translate(-112.891 -97.795)"/>
    <path id="Path_831" data-name="Path 831" class="cls-5" d="M244.78,468.392c27.424,2.575,56.786-1.971,56.786-1.971,1.938-6.1,29.056-22.879,29.056-22.879C308.373,438.061,244.78,468.392,244.78,468.392Z" transform="translate(-126.362 -105.9)"/>
    <path id="Path_832" data-name="Path 832" class="cls-15" d="M280.24,572.415c.969,21.62,25.487,13.248,29.039,10.326a9.523,9.523,0,0,0,1.375-1.408c-8.57,3.155-23.765,5.6-28.708-13.853a38.715,38.715,0,0,0-1.706,4.935Z" transform="translate(-132.46 -127.327)"/>
    <path id="Path_833" data-name="Path 833" class="cls-15" d="M166.457,593.107s18.714,5.482,29.031,4.836c9.042-.563,7.692-9.291,7.22-11.452-9.473-.3-25.785-1.184-34.256-3.751a.116.116,0,0,1-.066,0C166.134,583.783,166.457,593.107,166.457,593.107Z" transform="translate(-112.891 -129.951)"/>
    <path id="Path_834" data-name="Path 834" class="cls-5" d="M280.24,572.415c.969,21.62,25.487,13.248,29.039,10.326a9.523,9.523,0,0,0,1.375-1.408c-8.57,3.155-23.765,5.6-28.708-13.853a38.715,38.715,0,0,0-1.706,4.935Z" transform="translate(-132.46 -127.327)"/>
    <path id="Path_835" data-name="Path 835" class="cls-5" d="M166.457,593.107s18.714,5.482,29.031,4.836c9.042-.563,7.692-9.291,7.22-11.452-9.473-.3-25.785-1.184-34.256-3.751a.116.116,0,0,1-.066,0C166.134,583.783,166.457,593.107,166.457,593.107Z" transform="translate(-112.891 -129.951)"/>
    <path id="Path_836" data-name="Path 836" class="cls-14" d="M110.019,666.009c10,6.773,25.172,3.544,25.172,3.544s22.9-10.963,29.685-10.963,23.2-6.782,23.2-6.782l-.555-4.562-2.666-21.893s-25.131-.646-26.141-2.906c0,0-4.513-11.112-6.127-7.005s-25.81,33.121-31.946,33.121c-2.923,0-7.75,2.418-10.922,5.68C106.268,657.861,104.786,662.465,110.019,666.009Z" transform="translate(-102.6 -135.418)"/>
    <path id="Path_837" data-name="Path 837" class="cls-5" d="M215.55,446.41s20.974,13.249,15.17,16.13S215.55,446.41,215.55,446.41Z" transform="translate(-121.336 -106.507)"/>
    <path id="Path_838" data-name="Path 838" class="cls-5" d="M205,477.19s18.068,17.157,11.294,17.612S205,477.19,205,477.19Z" transform="translate(-119.521 -111.8)"/>
    <path id="Path_839" data-name="Path 839" class="cls-5" d="M181.65,543s9.175,17.248,5.722,20.237S181.65,543,181.65,543Z" transform="translate(-115.506 -123.117)"/>
    <path id="Path_840" data-name="Path 840" class="cls-5" d="M303.575,561.739c-3.229,3.221,30.637-10.648,22.9-11.294S303.575,561.739,303.575,561.739Z" transform="translate(-136.436 -124.393)"/>
    <path id="Path_841" data-name="Path 841" class="cls-13" d="M385.44,262.736l1.085-.157c4.008-.613,18.556-2.9,31.606-5.73,3.18-.7,6.26-1.416,9.108-2.161,9.994-2.617,16.7-5.44,12.421-7.759-5.664-3.072-8.645-8.653-10.218-13.456-.149-.472-.29-.927-.422-1.383a35.861,35.861,0,0,1-1.3-7.452s-36.433-12.909-29.362,0c3.486,6.334,1.143,11.5-2.145,15.12a28.384,28.384,0,0,1-7.858,5.854Z" transform="translate(-150.551 -67.383)"/>
    <path id="Path_842" data-name="Path 842" class="cls-5" d="M416.054,259.76s-13.042,9.357-26.365,1.615-30.745,68.4-30.745,68.4L340.877,374.3s-11.7,9.68,2.865,13.878,46.875-4.2,55.081,8.065,23.74,14.192,25.329,14.192,7.734-46.146,7.734-46.146l1.6-66.789Z" transform="translate(-142.124 -74.409)"/>
    <path id="Path_843" data-name="Path 843" class="cls-16" d="M344.487,385.06c14.565,4.19,46.883-4.2,55.089,8.065a31.515,31.515,0,0,0,13.9,11.2,36.433,36.433,0,0,0,11.452,3.031c.207,0,.513-.828.869-2.31,2.269-9.34,6.864-43.836,6.864-43.836l1.59-66.789-15.327-33.246-2.095-4.538a27.646,27.646,0,0,1-6.624,3.238,23.327,23.327,0,0,1-19.724-1.656c-3.908-2.269-8.173,2.683-12.238,10.814-9.8,19.575-18.507,57.59-18.507,57.59l-18.084,44.581a15.331,15.331,0,0,0-1.225,1.176C337.863,375.065,333.052,381.764,344.487,385.06Z" transform="translate(-142.256 -73.873)"/>
    <path id="Path_844" data-name="Path 844" class="cls-5" d="M428.841,383.553a84.642,84.642,0,0,0-.431,16.991,199.006,199.006,0,0,0,3.031,24.013,9.467,9.467,0,0,0,.4,1.466c7.875-3.453,14.126-5.978,14.126-5.978l-5.233-18.763c2.269-9.34,6.864-43.836,6.864-43.836l1.59-66.789-15.327-33.229c9.994-2.617,16.7-5.44,12.42-7.759-6.21-3.37-9.2-9.762-10.64-14.838a53.863,53.863,0,0,1-9.15,9.87l-.2.166-1.159,11.261-.356,3.461-.745,7.179s3.552,84.857,6.127,89.7,1.292,14.193-.961,25.164C429.056,382.253,428.973,382.891,428.841,383.553Z" transform="translate(-157.188 -70.122)"/>
    <path id="Path_845" data-name="Path 845" class="cls-14" d="M430.739,376.117c-2.252,10.971-.323,29.039,2.261,42.909s30.008,4.844,35.175,0,20.32-7.1,20.32-7.1.646-63.237,5.49-71.3c2.294-3.826,2.848-16.312,2.79-28.377-.041-10.831-.58-21.322-.778-24.841-.05-.828-.075-1.283-.075-1.283s20.966-35.49,20.643-38.09-6.45-2.9-6.45-2.9-23.185-18.068-27.1-15.815-14.524-3.544-14.524-3.544S455,227.311,452.21,224.7a1.424,1.424,0,0,1-.5-1.184c.315-4.14-13.745-12.95-14.184-13.249,11.857,10.665-7.312,27.1-9.489,28.907l-.2.166-2.261,21.9s3.552,84.857,6.127,89.7S433,365.145,430.739,376.117Z" transform="translate(-157.454 -65.898)"/>
    <circle id="Ellipse_25" data-name="Ellipse 25" class="cls-15" cx="1.615" cy="1.615" r="1.615" transform="translate(272.92 216.427)"/>
    <path id="Path_846" data-name="Path 846" class="cls-5" d="M429.33,240.735l9.8,9.481L453.5,226.2a1.424,1.424,0,0,1-.5-1.184c.315-4.14-13.754-12.95-14.184-13.249C450.677,222.493,431.541,238.929,429.33,240.735Z" transform="translate(-158.099 -66.156)"/>
    <circle id="Ellipse_26" data-name="Ellipse 26" class="cls-5" cx="1.615" cy="1.615" r="1.615" transform="translate(276.15 268.046)"/>
    <circle id="Ellipse_27" data-name="Ellipse 27" class="cls-15" cx="1.615" cy="1.615" r="1.615" transform="translate(276.15 267.401)"/>
    <path id="Path_847" data-name="Path 847" class="cls-14" d="M428.55,239.175l9.8,9.481,14.366-24.013a1.424,1.424,0,0,1-.5-1.184c.315-4.14-13.745-12.95-14.184-13.249C449.9,220.933,430.728,237.361,428.55,239.175Z" transform="translate(-157.965 -65.888)"/>
    <rect id="Rectangle_249" data-name="Rectangle 249" class="cls-17" width="22.456" height="47.446" rx="1.7" transform="translate(282.869 264.119) rotate(-178.69)"/>
    <rect id="Rectangle_250" data-name="Rectangle 250" class="cls-18" width="22.456" height="47.446" rx="1.7" transform="translate(282.984 265.168) rotate(-178.69)"/>
    <circle id="Ellipse_28" data-name="Ellipse 28" class="cls-19" cx="3.527" cy="3.527" r="3.527" transform="translate(269.36 227.846)"/>
    <path id="Path_848" data-name="Path 848" class="cls-5" d="M284.52,377.6c8.065,3.552,60.985-5.8,68.727-8.065s19.045-19.682,13.555-32.293,1.929-24.841,1.929-24.841,11.592-24.841,14.2-29.685,7.966-18.929,8.711-21.289a1.938,1.938,0,0,0-.455-1.482c-2.1-3.171-10.218-8.819-10.218-8.819-2.277.828-2.559-5.705-2.484-10.5.05-2.683.207-4.819.207-4.819s-1.068,1.085-2.815,2.567c-.638.538-1.366,1.134-2.178,1.747a33.478,33.478,0,0,1-10.119,5.556c-7.742,2.294-18.714,12.868-18.714,12.868L348.1,308.1s-7.452,46.6-15.17,55.635-30.977,8.711-38.719,8.711S284.52,377.6,284.52,377.6Z" transform="translate(-133.196 -70.291)"/>
    <path id="Path_849" data-name="Path 849" class="cls-14" d="M283.74,375.276c8.065,3.544,60.985-5.8,68.727-8.073s19.045-19.682,13.555-32.293,1.929-24.841,1.929-24.841,11.592-24.841,14.2-29.685,7.966-18.929,8.711-21.289a1.946,1.946,0,0,0-.455-1.482c-2.12-3.163-10.193-8.794-10.193-8.794-2.277.828-2.559-5.7-2.484-10.491.05-2.691.207-4.827.207-4.827s-1.068,1.085-2.815,2.575c-.638.53-1.366,1.126-2.178,1.739a33.477,33.477,0,0,1-10.168,5.556c-7.742,2.294-18.714,12.868-18.714,12.868l3.229,49.549s-7.452,46.6-15.17,55.636-30.968,8.711-38.719,8.711S283.74,375.276,283.74,375.276Z" transform="translate(-133.062 -69.893)"/>
    <path id="Path_850" data-name="Path 850" class="cls-5" d="M389.73,235s.306,1.7.828,4.314c1.739,8.86,5.879,28.2,8.868,27.458,2.145-.538,5.8-4.331,8.578-7.61-2.095-3.2-10.193-8.843-10.193-8.843-2.277.828-2.559-5.7-2.484-10.491l-2.608-2.252Z" transform="translate(-151.289 -70.151)"/>
    <path id="Path_851" data-name="Path 851" class="cls-14" d="M390.51,233.47s.306,1.7.828,4.314c1.739,8.86,5.879,28.2,8.868,27.458,2.145-.538,5.8-4.331,8.578-7.61-2.136-3.188-10.21-8.819-10.21-8.819-2.277.828-2.559-5.7-2.484-10.491l-2.608-2.252Z" transform="translate(-151.423 -69.888)"/>
    <path id="Path_852" data-name="Path 852" class="cls-13" d="M362.626,344.159s16.138-3.221,20.651-10.317,35.249-13.249,31.465-5.8-31.465,31.705-31.465,31.705l-12.015,17.2-16.047-4.074-6.765-13.157Z" transform="translate(-144.19 -85.569)"/>
    <path id="Path_853" data-name="Path 853" class="cls-5" d="M407.9,370.45s-15.625,5.8-17.977,13.547S407.9,370.45,407.9,370.45Z" transform="translate(-151.289 -93.444)"/>
    <path id="Path_854" data-name="Path 854" class="cls-5" d="M419.469,381.34s1.424,8.057-18.159,7.452Z" transform="translate(-153.28 -95.317)"/>
    <path id="Path_855" data-name="Path 855" class="cls-5" d="M520.579,256.506l7.1-.646s7.742,5.8,13.547,5.8,9.357,7.452,9.357,7.452,9.68,4.521,12.909,5.167,8.711,3.867,7.1,5.159.323,4.2,3.229,6.45,7.452,13.878,3.544,15.492-14.515,4.836-17.389,6.45-6.45,0-6.45,0-17.091-22.266-25.81-18.068-20.66,4.173-20.66,4.173L497.7,274.259Z" transform="translate(-169.856 -73.738)"/>
    <path id="Path_856" data-name="Path 856" class="cls-14" d="M345.115,363.548a8.654,8.654,0,0,0,6.02,4.182,45.541,45.541,0,0,0,18.788-1.739s-32.5-10.326-1.209-35.432h-8.363l-2.815-1.06,1.275-6.682,1.838-60.272-6.773-1.615s-5.457,39.688-6.757,44.523-2.277,23.558-2.277,23.558-1.292,7.742-3.229,11.592C340.147,343.535,340.553,356.659,345.115,363.548Z" transform="translate(-142.884 -74.61)"/>
    <path id="Path_857" data-name="Path 857" class="cls-5" d="M347.59,377.785a8.637,8.637,0,0,0,6.02,4.182,45.541,45.541,0,0,0,18.788-1.739s-32.5-10.326-1.209-35.448h-8.355l-2.79-1.06C355.382,351.876,348.178,366.358,347.59,377.785Z" transform="translate(-144.042 -88.848)"/>
    <path id="Path_858" data-name="Path 858" class="cls-20" d="M346,377.789a8.654,8.654,0,0,0,6.02,4.182,45.541,45.541,0,0,0,18.788-1.739s-32.5-10.326-1.209-35.432h-8.363l-2.815-1.06C353.85,351.88,346.613,366.362,346,377.789Z" transform="translate(-143.769 -88.851)"/>
    <path id="Path_859" data-name="Path 859" class="cls-14" d="M346,377.789a8.654,8.654,0,0,0,6.02,4.182,45.541,45.541,0,0,0,18.788-1.739s-32.5-10.326-1.209-35.432h-8.363l-2.815-1.06C353.85,351.88,346.613,366.362,346,377.789Z" transform="translate(-143.769 -88.851)"/>
    <path id="Path_860" data-name="Path 860" class="cls-5" d="M398.44,239.783a29.37,29.37,0,0,0,33.229-6.31c-.149-.472-.29-.927-.422-1.383a35.863,35.863,0,0,1-1.3-7.452s-36.433-12.909-29.362,0C404.071,231,401.727,236.165,398.44,239.783Z" transform="translate(-152.787 -67.383)"/>
    <path id="Path_861" data-name="Path 861" class="cls-13" d="M377.65,204.188v.29a26.505,26.505,0,0,0,.166,2.824c.1.927.232,1.772.4,2.641a29.37,29.37,0,0,0,56.571,3.792c.2-.571.373-1.143.53-1.722a29.032,29.032,0,0,0,1.06-7.825,18.085,18.085,0,0,0-.075-2.012,29.362,29.362,0,0,0-58.65,2.012Z" transform="translate(-149.212 -59.816)"/>
    <path id="Path_862" data-name="Path 862" class="cls-5" d="M377.65,204.48a12.642,12.642,0,0,1,.166,2.824,10.491,10.491,0,0,0,.083,1.532,4.345,4.345,0,0,0,.315,1.11c1.184,2.782,5.059,4.587,7.618,2.79a8.165,8.165,0,0,0,2.285-3c2.716-5.043,6.484-10.839,12.421-10.938,2.534-.05,4.91,1.018,7.361,1.656s5.349.7,7.171-.969c1.408-1.283,2.07-3.469,3.95-3.917s3.618,1.275,4.48,2.964,1.548,3.676,3.312,4.554c.778.381,1.656.5,2.484.911,3.511,1.921,1.9,8.653,5.54,9.746a2.646,2.646,0,0,0,.348.083c.058-.6.124-1.209.182-1.805q.5-4.919.985-9.837A29.362,29.362,0,0,0,377.7,204.2Z" transform="translate(-149.212 -59.818)"/>
    <path id="Path_863" data-name="Path 863" class="cls-21" d="M427.276,155.52c3.453,1.466,7.047,3.718,7.817,7.237a29.033,29.033,0,0,1,.166,4.728c.166,3.18,1.656,6.127,2.641,9.175s1.317,6.624-.621,9.191c-.6.828-1.408,1.482-1.954,2.327A9.522,9.522,0,0,0,434.2,192.5l-1.6,15.882c-4.09-.77-2.269-7.866-5.9-9.837-.754-.414-1.656-.53-2.443-.919-1.747-.828-2.426-2.857-3.312-4.546s-2.567-3.42-4.48-2.964-2.542,2.641-3.941,3.917c-1.83,1.656-4.736,1.59-7.179.969s-4.827-1.656-7.353-1.656c-5.945.1-9.721,5.9-12.421,10.938a8.19,8.19,0,0,1-2.294,3.006c-2.882,2.02-7.452-.53-7.924-3.908-.282-1.9.315-4.008-.778-5.614s-3.461-1.946-5.308-2.807c-4.72-2.169-6.177-8.057-5.4-12.992.571-3.561,1.987-7.22.828-10.648-.406-1.184-1.093-2.261-1.466-3.445-1.035-3.312.654-6.989,3.312-9.348s6.144-3.66,9.572-4.8c8.8-2.956,18.043-5.8,27.408-6.409,4.1-.265,9.473-1.548,12.727,1.01C420.122,151.289,422.507,153.5,427.276,155.52Z" transform="translate(-146.68 -54.977)"/>
    <circle id="Ellipse_29" data-name="Ellipse 29" class="cls-5" cx="1.615" cy="1.615" r="1.615" transform="translate(271.306 190.932)"/>
    <circle id="Ellipse_30" data-name="Ellipse 30" class="cls-15" cx="1.615" cy="1.615" r="1.615" transform="translate(271.306 190.286)"/>
    <circle id="Ellipse_31" data-name="Ellipse 31" class="cls-5" cx="1.615" cy="1.615" r="1.615" transform="translate(281.631 292.25)"/>
    <circle id="Ellipse_32" data-name="Ellipse 32" class="cls-15" cx="1.615" cy="1.615" r="1.615" transform="translate(281.631 291.604)"/>
    <circle id="Ellipse_33" data-name="Ellipse 33" class="cls-5" cx="1.615" cy="1.615" r="1.615" transform="translate(276.15 319.028)"/>
    <circle id="Ellipse_34" data-name="Ellipse 34" class="cls-15" cx="1.615" cy="1.615" r="1.615" transform="translate(276.15 318.383)"/>
    <path id="Path_864" data-name="Path 864" class="cls-5" d="M369.922,299.24s-3.552,24.1,0,28.294S369.922,299.24,369.922,299.24Z" transform="translate(-147.611 -81.198)"/>
    <path id="Path_865" data-name="Path 865" class="cls-5" d="M495.733,353.28s6.773,14.6,0,28.592-10.971,19.682-8.711,28.617S495.733,353.28,495.733,353.28Z" transform="translate(-167.914 -90.492)"/>
    <path id="Path_866" data-name="Path 866" class="cls-5" d="M110.019,672.8c10,6.773,25.172,3.544,25.172,3.544s22.9-10.963,29.685-10.963,23.2-6.782,23.2-6.782l-.555-4.562c-6.682,1.283-21.885,4.355-23.64,5.854-2.261,1.938-30.008,11.294-30.008,11.294s-18.9-2.36-24.154-10.127C106.268,664.655,104.786,669.259,110.019,672.8Z" transform="translate(-102.6 -142.212)"/>
    <g id="Group_12" data-name="Group 12" class="cls-6" transform="translate(216.259 108.874)">
      <path id="Path_867" data-name="Path 867" d="M450.28,168.452v.157A.5.5,0,0,0,450.28,168.452Z" transform="translate(-377.961 -167.4)"/>
      <path id="Path_868" data-name="Path 868" d="M369.436,199.227c1.847.828,4.14,1.159,5.308,2.8s.5,3.718.778,5.614c.489,3.378,5.043,5.937,7.924,3.908a8.19,8.19,0,0,0,2.294-3.006c2.708-5.043,6.483-10.839,12.421-10.938,2.534-.041,4.91,1.027,7.361,1.656s5.349.7,7.179-.969c1.4-1.275,2.062-3.469,3.941-3.917s3.61,1.275,4.48,2.964,1.548,3.676,3.312,4.554c.778.381,1.656.5,2.443.911,3.627,1.979,1.805,9.108,5.9,9.837q.828-7.949,1.6-15.882a9.49,9.49,0,0,1,1.126-4.273c.546-.828,1.35-1.524,1.954-2.335a7.113,7.113,0,0,0,1.325-3.411,8.28,8.28,0,0,1-1.325,5.995c-.6.828-1.408,1.482-1.954,2.327a9.522,9.522,0,0,0-1.143,4.314q-.828,7.941-1.6,15.882c-4.09-.77-2.269-7.866-5.9-9.837-.754-.414-1.656-.53-2.443-.919-1.747-.828-2.426-2.857-3.312-4.546s-2.567-3.42-4.48-2.964-2.542,2.641-3.941,3.917c-1.83,1.656-4.736,1.59-7.179.969s-4.827-1.656-7.361-1.656c-5.937.1-9.713,5.9-12.421,10.938a8.189,8.189,0,0,1-2.294,3.006c-2.882,2.02-7.452-.53-7.924-3.908-.282-1.9.315-4.008-.778-5.614s-3.461-1.946-5.308-2.807c-4.314-1.987-5.9-7.08-5.54-11.708C364.211,193.911,365.917,197.6,369.436,199.227Z" transform="translate(-363.094 -170.726)"/>
      <path id="Path_869" data-name="Path 869" d="M363.247,168.938c.373,1.184,1.06,2.269,1.466,3.445a9.937,9.937,0,0,1,.364,4.248,8.28,8.28,0,0,0-.364-1.656c-.406-1.184-1.093-2.261-1.466-3.445a7.27,7.27,0,0,1-.19-3.37A6.785,6.785,0,0,0,363.247,168.938Z" transform="translate(-362.941 -167.531)"/>
    </g>
    <path id="Path_870" data-name="Path 870" class="cls-22" d="M568.865,481.25l-66.508-8.322a2.542,2.542,0,0,1-1.515-4.289l27.9-28.981a2.534,2.534,0,0,1,2.12-.762l50.849,5.7a2.542,2.542,0,0,1,2.087,3.445l-12.238,31.622a2.55,2.55,0,0,1-2.691,1.59Z" transform="translate(-170.274 -105.212)"/>
    <path id="Path_871" data-name="Path 871" class="cls-5" d="M568.865,481.25l-66.508-8.322a2.542,2.542,0,0,1-1.515-4.289l27.9-28.981a2.534,2.534,0,0,1,2.12-.762l50.849,5.7a2.542,2.542,0,0,1,2.087,3.445l-12.238,31.622a2.55,2.55,0,0,1-2.691,1.59Z" transform="translate(-170.274 -105.212)"/>
    <path id="Path_872" data-name="Path 872" class="cls-22" d="M567.957,480.341l-66.5-8.355a2.55,2.55,0,0,1-1.515-4.3l27.9-28.981a2.567,2.567,0,0,1,2.12-.77l50.841,5.7a2.55,2.55,0,0,1,2.1,3.453l-12.247,31.623A2.559,2.559,0,0,1,567.957,480.341Z" transform="translate(-170.119 -105.047)"/>
    <path id="Path_873" data-name="Path 873" class="cls-17" d="M533.37,448.824l19.972,1.606,28.484-1.855h-.489l-26.389-2.55c-6.045-2.219-1.855-15.285-1.855-15.285l-20.212,1.027-1.615.083C524.121,448.576,533.37,448.824,533.37,448.824Z" transform="translate(-175.163 -103.812)"/>
    <path id="Path_874" data-name="Path 874" class="cls-5" d="M533.37,449.039l19.972,1.606,28.484-1.855h-.489l-28.8,1.027-19.293-2.095c-5.482-1.441-2.343-10.947-.364-15.733l-1.615.083C524.121,448.791,533.37,449.039,533.37,449.039Z" transform="translate(-175.163 -104.027)"/>
    <path id="Path_875" data-name="Path 875" class="cls-23" d="M492.112,307.823l6.111,87.647.828,11.5a4.968,4.968,0,0,0,5.018,4.645h1.855l91.994-.555a2.592,2.592,0,0,0,2.55-2.84l-.828-11.51-6.475-77.073a5.291,5.291,0,0,0-3.536-4.471l-87.68-13.149c-2.981-1.035-6.02-.671-7.916.911a5.564,5.564,0,0,0-1.921,4.894Z" transform="translate(-168.889 -81.576)"/>
    <path id="Path_876" data-name="Path 876" class="cls-18" d="M499.5,415l.828,11.5a4.968,4.968,0,0,0,5.018,4.645H507.2l91.994-.555a2.592,2.592,0,0,0,2.55-2.84l-.828-11.51Z" transform="translate(-170.166 -101.105)"/>
    <ellipse id="Ellipse_35" data-name="Ellipse 35" class="cls-19" cx="1.234" cy="2.468" rx="1.234" ry="2.468" transform="translate(389.772 320.966)"/>
    <path id="Path_877" data-name="Path 877" class="cls-17" d="M563,465.069s-25.156-9.5-31.937-2.592c0,0-1.11,2.1,3.453,2.592l18.432,1.482S560.535,467.288,563,465.069Z" transform="translate(-175.574 -108.837)"/>
    <path id="Path_878" data-name="Path 878" class="cls-18" d="M562.757,462.3c-4.968-2.02-19.815-7.245-29.337-1.466,0,0,10.533-1.168,16.321,2.178s13.687,1.755,13.687,1.755l.116-.207a1.6,1.6,0,0,0-.787-2.261Z" transform="translate(-175.999 -108.533)"/>
    <path id="Path_879" data-name="Path 879" class="cls-18" d="M492.112,308.137l6.906,99.165a4.968,4.968,0,0,0,5.018,4.645h1.855a17.67,17.67,0,0,1-3.213-4.14S495.9,308.162,495.4,305.694a5.051,5.051,0,0,0-1.366-2.434,5.564,5.564,0,0,0-1.921,4.877Z" transform="translate(-168.889 -81.89)"/>
    <path id="Path_880" data-name="Path 880" class="cls-5" d="M492.112,308.137l6.906,99.165a4.968,4.968,0,0,0,5.018,4.645h1.855a17.67,17.67,0,0,1-3.213-4.14S495.9,308.162,495.4,305.694a5.051,5.051,0,0,0-1.366-2.434,5.564,5.564,0,0,0-1.921,4.877Z" transform="translate(-168.889 -81.89)"/>
    <path id="Path_881" data-name="Path 881" class="cls-5" d="M469.505,335.657c7.452-1.656,24.841-6.757,24.841-6.757l3.113-.629c-.041-10.831-.58-21.322-.778-24.841h-.075s-14.847,4.844-18.391,7.452-14.524,1.929-14.524,1.929-17.091.919-31.275,16.759S462.086,337.288,469.505,335.657Z" transform="translate(-158.148 -81.919)"/>
    <path id="Path_882" data-name="Path 882" class="cls-13" d="M542.026,305.72a4.314,4.314,0,0,1,.969,7.237c-3.933,3.254-9.671,7.146-15.153,7.692-9.108.919-31.134,5.333-33.32,5.8a2.651,2.651,0,0,0-.348.083c-1.813.53-17.678,5.175-24.675,6.707-7.452,1.656-51.338,9.7-37.1-6.111,13.066-14.557,28.592-16.561,30.985-16.751a3.314,3.314,0,0,1,.571,0c1.656.075,11.029.4,14.267-1.946a30.484,30.484,0,0,1,5.333-2.658,102.009,102.009,0,0,1,21.819-6.293l15.178-2.65a4.356,4.356,0,0,1,2.55.331Z" transform="translate(-158.141 -80.773)"/>
    <path id="Path_883" data-name="Path 883" class="cls-14" d="M522.133,256.506l7.1-.646s7.75,5.8,13.555,5.8,9.357,7.452,9.357,7.452,9.68,4.521,12.909,5.167,8.711,3.867,7.1,5.159.323,4.2,3.229,6.45,7.452,13.878,3.544,15.492-14.515,4.836-17.389,6.45-6.45,0-6.45,0-17.124-22.282-25.843-18.084-20.651,4.19-20.651,4.19l-9.357-19.674Z" transform="translate(-170.119 -73.738)"/>
    <path id="Path_884" data-name="Path 884" class="cls-3" d="M1029.28,745.359a13.955,13.955,0,0,0-1.88,3.552c-.124.306-.232.662-.348,1a3.864,3.864,0,0,0-.654-.232,9.108,9.108,0,0,0-2.956-.248,8.87,8.87,0,0,1,.058-1.217c.116-4.364-.4-10.441-4.554-7.866-4,2.484-1.151,6.624,1.424,9.274l.662.654c-2.343,1.656-2.79,5.573-3.188,9.638s-3.842,8.512-6.127,11.038c-.232.265-.447.489-.646.7a8.4,8.4,0,0,0-6.624-1.714l-.306-1.118c-1.855-6.7-5.705-18.3-10.615-20.842.207-.257.422-.522.646-.828,2.087-2.724,4.43-6.782.96-7.817s-3.776,3.519-3.585,6.922a7.1,7.1,0,0,0,.1,1.217,5.093,5.093,0,0,0-3.635,1.772l-.53-.638c-2.815-3.312-7.982-8.587-9.539-4.6-1.457,3.71,3.089,8.529,6.285,11.319l.2.174c-2.153,8.7,7.22,15.8,12.263,18.9l.646.4c-6.956,8.2-11.245,23.566-11.245,23.566l19.475,3.478s12.909-11.145,11.261-21.612h.133c12.9-2.583,15.84-16.345,13.828-24.51l.232-.1a14.646,14.646,0,0,0,5.97-4.521C1040.558,746.1,1032.981,740.432,1029.28,745.359Z" transform="translate(-252.394 -156.855)"/>
    <path id="Path_885" data-name="Path 885" class="cls-5" d="M1029.28,745.359a13.955,13.955,0,0,0-1.88,3.552c-.124.306-.232.662-.348,1a3.864,3.864,0,0,0-.654-.232,9.108,9.108,0,0,0-2.956-.248,8.87,8.87,0,0,1,.058-1.217c.116-4.364-.4-10.441-4.554-7.866-4,2.484-1.151,6.624,1.424,9.274l.662.654c-2.343,1.656-2.79,5.573-3.188,9.638s-3.842,8.512-6.127,11.038c-.232.265-.447.489-.646.7a8.4,8.4,0,0,0-6.624-1.714l-.306-1.118c-1.855-6.7-5.705-18.3-10.615-20.842.207-.257.422-.522.646-.828,2.087-2.724,4.43-6.782.96-7.817s-3.776,3.519-3.585,6.922a7.1,7.1,0,0,0,.1,1.217,5.093,5.093,0,0,0-3.635,1.772l-.53-.638c-2.815-3.312-7.982-8.587-9.539-4.6-1.457,3.71,3.089,8.529,6.285,11.319l.2.174c-2.153,8.7,7.22,15.8,12.263,18.9l.646.4c-6.956,8.2-11.245,23.566-11.245,23.566l19.475,3.478s12.909-11.145,11.261-21.612h.133c12.9-2.583,15.84-16.345,13.828-24.51l.232-.1a14.646,14.646,0,0,0,5.97-4.521C1040.558,746.1,1032.981,740.432,1029.28,745.359Z" transform="translate(-252.394 -156.855)"/>
    <path id="Path_886" data-name="Path 886" class="cls-3" d="M990.74,751.679l-2.277,6.666s-1.259-.894-2.857-2.3c-3.2-2.79-7.742-7.61-6.285-11.319,1.557-3.983,6.724,1.275,9.539,4.6C990,750.652,990.74,751.679,990.74,751.679Z" transform="translate(-252.631 -157.561)"/>
    <path id="Path_887" data-name="Path 887" class="cls-3" d="M998.443,747.17a31.554,31.554,0,0,1-2.236,2.633,32.293,32.293,0,0,1-.406-3.511c-.19-3.4.166-7.941,3.585-6.922S1000.513,744.446,998.443,747.17Z" transform="translate(-255.507 -156.861)"/>
    <path id="Path_888" data-name="Path 888" class="cls-3" d="M1033.091,748.329c-.074,2.194-.29,3.95-.29,3.95a28.723,28.723,0,0,1-2.84-2.542c-2.575-2.666-5.424-6.8-1.424-9.274C1032.719,737.887,1033.207,743.965,1033.091,748.329Z" transform="translate(-260.801 -156.969)"/>
    <path id="Path_889" data-name="Path 889" class="cls-3" d="M1048.477,751.976a14.648,14.648,0,0,1-5.97,4.521,16.06,16.06,0,0,1-2,.729l-2.683-3.768a26.647,26.647,0,0,1,1.11-3.66,13.959,13.959,0,0,1,1.88-3.552C1044.519,741.319,1052.1,746.983,1048.477,751.976Z" transform="translate(-262.739 -157.743)"/>
    <path id="Path_890" data-name="Path 890" class="cls-5" d="M990.224,750.58c1.134,1.325,1.88,2.352,1.88,2.352l-2.277,6.666s-1.259-.894-2.857-2.3a12.984,12.984,0,0,1,2.559-5.854C989.76,751.126,990,750.845,990.224,750.58Z" transform="translate(-253.995 -158.814)"/>
    <path id="Path_891" data-name="Path 891" class="cls-5" d="M998.451,748.638a31.541,31.541,0,0,1-2.236,2.633,32.293,32.293,0,0,1-.406-3.511,4.6,4.6,0,0,1,2.642.878Z" transform="translate(-255.515 -158.329)"/>
    <path id="Path_892" data-name="Path 892" class="cls-3" d="M1008.081,775.346l-5.664,2.484a34.23,34.23,0,0,1-3.014-1.706c-5.954-3.66-17.927-12.876-9.936-23.74s14.714,8.62,17.389,18.151C1007.667,773.392,1008.081,775.346,1008.081,775.346Z" transform="translate(-253.966 -158.574)"/>
    <path id="Path_893" data-name="Path 893" class="cls-5" d="M1030.67,751.5a4.7,4.7,0,0,1,3.13-1.408c-.074,2.194-.29,3.95-.29,3.95a28.728,28.728,0,0,1-2.84-2.542Z" transform="translate(-261.51 -158.73)"/>
    <path id="Path_894" data-name="Path 894" class="cls-5" d="M1042.507,757.609a16.057,16.057,0,0,1-2,.729l-2.683-3.767a26.65,26.65,0,0,1,1.11-3.66C1040.66,751.937,1041.935,754.454,1042.507,757.609Z" transform="translate(-262.739 -158.871)"/>
    <path id="Path_895" data-name="Path 895" class="cls-3" d="M1024.135,782.336c-.315.066-.629.124-.952.174-18.987,2.882-6.26-7.361-6.26-7.361s.828-.787,2.012-2.078c2.285-2.484,5.738-6.947,6.128-11.038.6-6.152,1.292-11.924,8.553-10.234C1040.745,753.471,1042.1,778.742,1024.135,782.336Z" transform="translate(-258.428 -158.972)"/>
    <rect id="Rectangle_251" data-name="Rectangle 251" class="cls-24" width="36.276" height="9.539" transform="translate(729.075 670.636)"/>
    <rect id="Rectangle_252" data-name="Rectangle 252" class="cls-24" width="47.397" height="33.287" transform="translate(723.312 639.634)"/>
    <rect id="Rectangle_253" data-name="Rectangle 253" class="cls-5" width="36.276" height="9.539" transform="translate(729.075 670.636)"/>
    <rect id="Rectangle_254" data-name="Rectangle 254" class="cls-5" width="47.397" height="33.287" transform="translate(723.312 639.634)"/>
    <rect id="Rectangle_255" data-name="Rectangle 255" class="cls-24" width="36.276" height="9.539" transform="translate(731.46 670.636)"/>
    <path id="Path_896" data-name="Path 896" class="cls-5" d="M1009.452,775c.828,2.848,1.225,4.8,1.225,4.8l-5.664,2.484a34.272,34.272,0,0,1-3.014-1.706C1004.236,777.757,1006.736,775.638,1009.452,775Z" transform="translate(-256.58 -163.014)"/>
    <path id="Path_897" data-name="Path 897" class="cls-5" d="M1024.135,786.816c-.315.066-.629.124-.952.174-18.987,2.882-6.26-7.361-6.26-7.361s.828-.787,2.012-2.078C1022.479,780.407,1023.945,783.586,1024.135,786.816Z" transform="translate(-258.428 -163.452)"/>
    <path id="Path_898" data-name="Path 898" class="cls-3" d="M989.22,804.733s10.632-38.089,25.537-26.331-6.061,29.809-6.061,29.809Z" transform="translate(-254.382 -163.211)"/>
    <circle id="Ellipse_36" data-name="Ellipse 36" class="cls-5" cx="1.192" cy="1.192" r="1.192" transform="translate(739.011 598.589)"/>
    <circle id="Ellipse_37" data-name="Ellipse 37" class="cls-5" cx="1.192" cy="1.192" r="1.192" transform="translate(738.912 604.153)"/>
    <circle id="Ellipse_38" data-name="Ellipse 38" class="cls-5" cx="1.192" cy="1.192" r="1.192" transform="translate(773.491 599.682)"/>
    <circle id="Ellipse_39" data-name="Ellipse 39" class="cls-5" cx="1.192" cy="1.192" r="1.192" transform="translate(745.669 628.208)"/>
    <circle id="Ellipse_40" data-name="Ellipse 40" class="cls-5" cx="1.192" cy="1.192" r="1.192" transform="translate(771.007 608.923)"/>
    <circle id="Ellipse_41" data-name="Ellipse 41" class="cls-5" cx="1.192" cy="1.192" r="1.192" transform="translate(758.686 621.252)"/>
    <circle id="Ellipse_42" data-name="Ellipse 42" class="cls-5" cx="1.192" cy="1.192" r="1.192" transform="translate(743.085 600.974)"/>
    <circle id="Ellipse_43" data-name="Ellipse 43" class="cls-5" cx="1.192" cy="1.192" r="1.192" transform="translate(770.212 603.259)"/>
    <circle id="Ellipse_44" data-name="Ellipse 44" class="cls-5" cx="1.192" cy="1.192" r="1.192" transform="translate(766.138 612.5)"/>
    <circle id="Ellipse_45" data-name="Ellipse 45" class="cls-5" cx="1.192" cy="1.192" r="1.192" transform="translate(753.618 627.313)"/>
    <circle id="Ellipse_46" data-name="Ellipse 46" class="cls-5" cx="1.192" cy="1.192" r="1.192" transform="translate(751.034 621.451)"/>
    <circle id="Ellipse_47" data-name="Ellipse 47" class="cls-5" cx="1.192" cy="1.192" r="1.192" transform="translate(744.874 608.227)"/>
    <rect id="Rectangle_256" data-name="Rectangle 256" class="cls-5" width="36.276" height="3.486" transform="translate(731.46 670.636)"/>
    <rect id="Rectangle_257" data-name="Rectangle 257" class="cls-24" width="47.397" height="33.287" transform="translate(725.697 639.634)"/>
    <circle id="Ellipse_48" data-name="Ellipse 48" class="cls-5" cx="1.192" cy="1.192" r="1.192" transform="translate(755.208 632.679)"/>
    <circle id="Ellipse_49" data-name="Ellipse 49" class="cls-5" cx="1.192" cy="1.192" r="1.192" transform="translate(748.054 634.169)"/>
  </g>
</svg>
