<svg xmlns="http://www.w3.org/2000/svg" xmlns:xlink="http://www.w3.org/1999/xlink" viewBox="0 0 810 810">
  <defs>
    <style>
      .cls-1 {
        fill: #311f56;
      }

      .cls-2, .cls-4 {
        fill: #6c63ff;
      }

      .cls-14, .cls-2, .cls-6 {
        opacity: 0.1;
      }

      .cls-3 {
        opacity: 0.5;
      }

      .cls-5 {
        fill: none;
        stroke: #535461;
        stroke-miterlimit: 10;
        stroke-width: 2px;
      }

      .cls-7 {
        fill: #ffd037;
      }

      .cls-8 {
        fill: #a8a8a8;
      }

      .cls-9 {
        opacity: 0.2;
      }

      .cls-10 {
        fill: #e6e6f0;
      }

      .cls-11 {
        fill: #fdc2cc;
      }

      .cls-12 {
        fill: #565171;
      }

      .cls-13 {
        fill: #b45181;
      }

      .cls-15 {
        fill: #f569bc;
      }

      .cls-16 {
        fill: #f7df1e;
      }

      .cls-17 {
        fill: url(#linear-gradient);
      }

      .cls-18 {
        fill: #4f4d59;
      }

      .cls-19 {
        fill: #c48c96;
      }

      .cls-20 {
        fill: #714b4f;
      }

      .cls-21 {
        fill: #ba7855;
      }

      .cls-22 {
        fill: #503f43;
      }

      .cls-23 {
        fill: #e44d26;
      }

      .cls-24 {
        fill: #f16529;
      }

      .cls-25 {
        fill: #ebebeb;
      }

      .cls-26, .cls-32 {
        fill: #fff;
      }

      .cls-27 {
        fill: url(#linear-gradient-2);
      }

      .cls-28, .cls-35 {
        opacity: 0.05;
      }

      .cls-29 {
        fill: #264de4;
      }

      .cls-30 {
        fill: #2965f1;
      }

      .cls-31 {
        fill: #47465a;
      }

      .cls-32 {
        opacity: 0.3;
      }

      .cls-33 {
        fill: #e1a0a7;
      }

      .cls-34 {
        fill: #8f5a6a;
      }
    </style>
    <linearGradient id="linear-gradient" x1="0.5" y1="1" x2="0.5" gradientUnits="objectBoundingBox">
      <stop offset="0" stop-color="gray" stop-opacity="0.251"/>
      <stop offset="0.54" stop-color="gray" stop-opacity="0.122"/>
      <stop offset="1" stop-color="gray" stop-opacity="0.102"/>
    </linearGradient>
    <linearGradient id="linear-gradient-2" x1="0.5" y1="1.001" x2="0.5" y2="0" xlink:href="#linear-gradient"/>
  </defs>
  <g id="Group_20" data-name="Group 20" transform="translate(-79 -6102)">
    <circle id="Ellipse_51" data-name="Ellipse 51" class="cls-1" cx="405" cy="405" r="405" transform="translate(79 6102)"/>
    <g id="undraw_static_assets_rpm6" transform="translate(79 6220.399)">
      <ellipse id="Ellipse_52" data-name="Ellipse 52" class="cls-2" cx="166.088" cy="32.281" rx="166.088" ry="32.281" transform="translate(474.08 427.519)"/>
      <g id="Group_15" data-name="Group 15" class="cls-3" transform="translate(474.278 76.387)">
        <path id="Path_961" data-name="Path 961" class="cls-4" d="M712.169,187.289c-2.24.637-4.982,2.295-6.334,6.829-2.648,8.887,3.5,14.93,1.477,24.2a18.075,18.075,0,0,1-3.143,6.789c-2.475,3.355-5.163,4.943-7.772,7.292a23.18,23.18,0,0,0-6.829,11.214,31.04,31.04,0,0,0-.306,14.577c.927,4.023,2.507,6.954,3.89,10.215a75.442,75.442,0,0,1,4.016,12.864,31.331,31.331,0,0,1,.88,6.538,57.517,57.517,0,0,1-.786,8.738L693.5,322.8a78.915,78.915,0,0,0-1.029,10.38,51.56,51.56,0,0,0,1.2,10.365c1.32,6.947,2.742,14.145,5.768,17.822s8.18,2.357,11.347-5.084c3.01-7.119,3.08-16.62,5.736-24.226,4.188-11.984,12.51-13.594,17.131-25.028,4.432-11,3.072-24.423,5.32-36.933,1.572-8.966,5.037-17.138,7.072-25.995,2.923-12.754,2.632-25.995.3-35.8A47.581,47.581,0,0,0,735.2,186.66c-1.957-2.161-4.055-4.086-6.514-4.283-2.617-.2-4.9,3.088-7.489,4.078C718.212,187.627,715.211,186.424,712.169,187.289Z" transform="translate(-688.542 -182.368)"/>
        <path id="Path_962" data-name="Path 962" class="cls-5" d="M730.351,183.23s-4.432,113.423-23.071,180.3" transform="translate(-692.555 -182.553)"/>
        <path id="Path_963" data-name="Path 963" class="cls-5" d="M710.41,198s19.92,18.136,16.14,52.649" transform="translate(-693.226 -185.717)"/>
        <path id="Path_964" data-name="Path 964" class="cls-5" d="M689.14,263.68s32.7,6.577,30.269,26.136" transform="translate(-688.67 -199.785)"/>
        <path id="Path_965" data-name="Path 965" class="cls-5" d="M755.35,215.07s-13.233,11.583-25.02,44.39" transform="translate(-697.492 -189.373)"/>
        <path id="Path_966" data-name="Path 966" class="cls-5" d="M741.284,336.429s-9.029,7.072-16.274-17.689" transform="translate(-696.353 -211.578)"/>
        <path id="Path_967" data-name="Path 967" class="cls-5" d="M696.14,355.862s18.411-2.4,20.109-13.932" transform="translate(-690.169 -216.545)"/>
      </g>
      <path id="Path_968" data-name="Path 968" class="cls-4" d="M763.991,90.394c-4.558.676-10.043,2.79-12.3,9.3-4.424,12.777,9.021,22.451,5.925,35.8a20.062,20.062,0,0,1-5.611,9.626c-4.715,4.644-10.105,6.672-15.213,9.823a28.684,28.684,0,0,0-12.809,15.716,33.1,33.1,0,0,0,1.092,21.429c2.4,6.035,6.019,10.538,9.257,15.5a105.058,105.058,0,0,1,9.815,19.409,36.885,36.885,0,0,1,2.609,9.689,58.746,58.746,0,0,1-.637,12.777l-4.676,38.3c-.621,5.092-1.25,10.263-.9,15.166.4,5.65,2.074,10.585,3.725,15.4,3.552,10.388,7.355,21.217,14.058,26.937s17.217,4.495,22.883-6.145c5.391-10.129,4.4-24.109,9-34.992,7.245-17.154,24.281-18.545,32.477-34.827,7.858-15.622,3.465-35.6,6.624-53.757,2.263-13.005,8.392-24.635,11.536-37.436a88.176,88.176,0,0,0-3.63-52.649c-5.988-14.679-15.457-25.146-25.617-33.185-4.306-3.418-8.872-6.506-13.987-7.072-5.438-.605-9.783,3.968-15.009,5.123C776.524,91.6,770.175,89.474,763.991,90.394Z" transform="translate(-221.577 -85.16)"/>
      <path id="Path_969" data-name="Path 969" class="cls-5" d="M804.742,86s4.291,166.5-26.372,262.79" transform="translate(-233.504 -85.34)"/>
      <path id="Path_970" data-name="Path 970" class="cls-5" d="M759.38,104.68s43.377,29.075,39.66,79.492" transform="translate(-229.437 -89.341)"/>
      <path id="Path_971" data-name="Path 971" class="cls-5" d="M723.15,198.85s68.46,13.563,65.756,42.072" transform="translate(-221.677 -109.512)"/>
      <path id="Path_972" data-name="Path 972" class="cls-5" d="M855.862,135.92s-26.018,15.488-46.512,62.4" transform="translate(-240.14 -96.033)"/>
      <path id="Path_973" data-name="Path 973" class="cls-5" d="M839.678,312.163s-17.838,9.43-35.778-27.983" transform="translate(-238.973 -127.789)"/>
      <path id="Path_974" data-name="Path 974" class="cls-5" d="M749,336.056s37.821-1.359,39.974-18.136" transform="translate(-227.214 -135.016)"/>
      <path id="Path_975" data-name="Path 975" class="cls-4" d="M147.3,663.66s6.585,8.644-3.041,21.61-17.579,23.983-14.349,32.092c0,0,14.522-24.148,26.34-24.486S160.306,678.182,147.3,663.66Z" transform="translate(-94.453 -209.07)"/>
      <path id="Path_976" data-name="Path 976" class="cls-6" d="M147.414,663.66a10.664,10.664,0,0,1,1.383,2.7c11.536,13.547,17.673,26.191,6.593,26.513-10.326.3-22.71,18.757-25.68,23.425a10.009,10.009,0,0,0,.354,1.061s14.522-24.148,26.34-24.486S160.419,678.182,147.414,663.66Z" transform="translate(-94.566 -209.07)"/>
      <path id="Path_977" data-name="Path 977" class="cls-7" d="M167.392,677.1c0,3.033-.338,5.5-.786,5.5s-.786-2.46-.786-5.5.424-1.572.841-1.572S167.392,674.072,167.392,677.1Z" transform="translate(-102.301 -211.538)"/>
      <path id="Path_978" data-name="Path 978" class="cls-7" d="M171.755,681.664c-2.664,1.454-4.982,2.357-5.178,1.957s1.792-1.847,4.456-3.293,1.611-.393,1.815,0S174.411,680.211,171.755,681.664Z" transform="translate(-102.46 -212.482)"/>
      <path id="Path_979" data-name="Path 979" class="cls-4" d="M103.971,663.66s-6.585,8.644,3.041,21.61,17.563,23.975,14.349,32.085c0,0-14.522-24.148-26.34-24.486S90.95,678.182,103.971,663.66Z" transform="translate(-85.887 -209.07)"/>
      <path id="Path_980" data-name="Path 980" class="cls-6" d="M103.971,663.66a10.664,10.664,0,0,0-1.344,2.7c-11.536,13.547-17.673,26.191-6.593,26.513,10.326.3,22.71,18.757,25.68,23.425a10.007,10.007,0,0,1-.354,1.061s-14.522-24.148-26.34-24.486S90.95,678.182,103.971,663.66Z" transform="translate(-85.887 -209.07)"/>
      <path id="Path_981" data-name="Path 981" class="cls-7" d="M92.4,677.1c0,3.033.338,5.5.786,5.5s.786-2.46.786-5.5-.424-1.572-.841-1.572S92.4,674.072,92.4,677.1Z" transform="translate(-86.575 -211.538)"/>
      <path id="Path_982" data-name="Path 982" class="cls-7" d="M86.608,681.664c2.664,1.454,4.982,2.357,5.178,1.957s-1.792-1.847-4.456-3.293-1.611-.393-1.815,0S83.952,680.211,86.608,681.664Z" transform="translate(-84.987 -212.482)"/>
      <path id="Path_983" data-name="Path 983" class="cls-8" d="M95.07,727.849s18.411-.566,23.959-4.518,28.289-8.644,29.7-2.358,27.668,31.519,6.884,31.684-48.3-3.238-53.836-6.609S95.07,727.849,95.07,727.849Z" transform="translate(-87.147 -220.689)"/>
      <path id="Path_984" data-name="Path 984" class="cls-9" d="M155.978,753.177c-20.785.165-48.3-3.237-53.836-6.609-4.22-2.57-5.9-11.787-6.459-16.038H95.07s1.163,14.852,6.7,18.223,33.051,6.781,53.836,6.609c6-.047,8.07-2.185,7.96-5.344C162.736,751.951,160.449,753.146,155.978,753.177Z" transform="translate(-87.147 -223.393)"/>
      <path id="Path_985" data-name="Path 985" class="cls-4" d="M1059.381,655.143a9.171,9.171,0,0,0,3.01-4.542c.393-1.807-.377-3.968-2.106-4.628-1.933-.739-4,.6-5.563,1.957s-3.363,2.9-5.414,2.609a8.235,8.235,0,0,0,2.546-7.709,3.222,3.222,0,0,0-.707-1.572c-1.077-1.147-3.017-.652-4.306.251-4.086,2.876-5.226,8.424-5.249,13.422-.409-1.8-.063-3.678-.078-5.5s-.519-3.929-2.075-4.888a6.286,6.286,0,0,0-3.143-.746c-1.839-.071-3.882.118-5.139,1.461-1.572,1.666-1.155,4.471.2,6.286s3.418,2.986,5.32,4.259a11.787,11.787,0,0,1,3.8,3.622,3.616,3.616,0,0,1,.283.644h11.512A32.088,32.088,0,0,0,1059.381,655.143Z" transform="translate(-287.433 -204.129)"/>
      <path id="Path_986" data-name="Path 986" class="cls-2" d="M220.169,486.208c25,31.794,15.292,78.243-.6,115.435-5.32,12.455-11.339,25.633-9.092,38.984,2.742,16.329,17.288,28.289,32.627,34.576a97.119,97.119,0,0,0,86.918-7.159c22.152-13.783,38.017-36.194,60.546-49.349,37.719-22,85.7-13.7,126.641,1.462,28.965,10.726,60.633,24.682,89.417,13.469,20.25-7.858,34.253-27.087,41.884-47.439,3.685-9.83,6.357-20.431,13.359-28.289,4.181-4.628,9.634-7.921,15.229-10.687,51.077-25.311,115.514-11.787,165.082-39.825,33.483-18.954,54.92-54.716,64.436-92S915,338.995,912.592,300.6c-1.713-27.291-4.786-56.421-22.223-77.488-18.443-22.278-50.1-30.568-78.714-26.332s-54.559,19.4-77.347,37.176c-28.517,22.215-54.959,49.883-89.975,58.888-23.841,6.129-48.924,2.774-73.52,1.619-41.113-1.941-82.235,2.357-123.12,7.072-39.141,4.526-78.581,9.508-115.852,22.238-26.387,9.013-47.541,25.366-72.459,36.792-16.243,7.449-33.955,9.508-49.325,18.993-18.946,11.685-36.3,32.014-31.432,55.792C183.2,457.989,206.889,469.336,220.169,486.208Z" transform="translate(-104.865 -108.84)"/>
      <ellipse id="Ellipse_53" data-name="Ellipse 53" class="cls-2" cx="336.066" cy="32.281" rx="336.066" ry="32.281" transform="translate(97.977 312.791)"/>
      <ellipse id="Ellipse_54" data-name="Ellipse 54" class="cls-2" cx="166.088" cy="32.281" rx="166.088" ry="32.281" transform="translate(9.668 499.027)"/>
      <path id="Path_987" data-name="Path 987" class="cls-10" d="M523.992,511.48l-2.632,3.827s2.868,3.827,3.143,4.306,8.369-.236,8.369-.236l.715-2.868-1.194-3.348Z" transform="translate(-178.455 -176.475)"/>
      <path id="Path_988" data-name="Path 988" class="cls-11" d="M325.655,423.67l-5.265.951,3.348,6.467,3.591,1.91,3.348,2.389.959-2.625-2.4-5.029Z" transform="translate(-68.623 -90.818)"/>
      <path id="Path_989" data-name="Path 989" class="cls-12" d="M517.41,429.542s27.991,6.7,33.248,14.145c0,0,4.786,4.07,0,11.481s-11.481,24.164-11.481,24.164-4.786,16.266-6.7,17.461-12.919,2.153-13.877-2.357c0,0,6.216-9.807,6.216-14.357S535.107,454,535.107,454s-23.441-2.632-30.859-.959S507.6,426.91,517.41,429.542Z" transform="translate(-174.262 -158.886)"/>
      <path id="Path_990" data-name="Path 990" class="cls-6" d="M517.41,429.542s27.991,6.7,33.248,14.145c0,0,4.786,4.07,0,11.481s-11.481,24.164-11.481,24.164-4.786,16.266-6.7,17.461-12.919,2.153-13.877-2.357c0,0,6.216-9.807,6.216-14.357S535.107,454,535.107,454s-23.441-2.632-30.859-.959S507.6,426.91,517.41,429.542Z" transform="translate(-174.262 -158.886)"/>
      <path id="Path_991" data-name="Path 991" class="cls-12" d="M491.928,436.06c-.055,1.391-.2,2.955-.417,4.636-1.532,12.18-6.522,30.293-6.522,30.293s-5.021,10.766-6.459,17.7-11.245,8.644-11.245,8.644-26.8,3.143-32.3,1.917-14.145,3.591-18.419,2.868-6.939-10.766-6.939-10.766a51.864,51.864,0,0,0,21.531-4.542c11-5.021,26.8-2.633,26.8-2.633a9,9,0,0,0,5.5-4.542c1.674-3.591,1.674-25.358,1.194-26.8-3.143-9.43-2.884-15.48-1.98-19.009a9.484,9.484,0,0,1,1.98-4.2Z" transform="translate(-154.523 -158.945)"/>
      <path id="Path_992" data-name="Path 992" class="cls-6" d="M506.394,436.049c-.055,1.391-.2,2.955-.417,4.636-2.4.189-9.147.369-14.145-2.719-4.715-2.892-11.575-3.874-14.663-4.18a9.485,9.485,0,0,1,1.98-4.2Z" transform="translate(-168.99 -158.934)"/>
      <path id="Path_993" data-name="Path 993" class="cls-10" d="M509.257,430.9c-1.116,3.143-2.829,6.829-2.829,6.829s-8.848,1.194-15.072-2.633-16.266-4.306-16.266-4.306c1.627-1,2.727-4.031,3.41-6.687a42.391,42.391,0,0,0,.9-4.558s29.421,5.98,30.646,6.939C510.5,426.866,510.011,428.768,509.257,430.9Z" transform="translate(-168.544 -156.784)"/>
      <path id="Path_994" data-name="Path 994" class="cls-11" d="M574.6,298.922l-35.684,21.539L535.37,322.6V312.076l2.46-1.179L567.9,296.525s1.438-26.073,5.265-22S574.6,298.922,574.6,298.922Z" transform="translate(-181.456 -125.628)"/>
      <path id="Path_995" data-name="Path 995" class="cls-6" d="M538.914,330.493l-3.544,2.137V322.109l2.46-1.179a77.434,77.434,0,0,0,1.084,9.563Z" transform="translate(-181.456 -135.66)"/>
      <path id="Path_996" data-name="Path 996" class="cls-13" d="M504.93,333.958l25.594-14.828s.479,14.357,3.348,16.5c0,0-10.522,3.143-14.592,9.807Z" transform="translate(-174.936 -135.275)"/>
      <path id="Path_997" data-name="Path 997" class="cls-6" d="M504.93,333.958l25.594-14.828s.479,14.357,3.348,16.5c0,0-10.522,3.143-14.592,9.807Z" transform="translate(-174.936 -135.275)"/>
      <path id="Path_998" data-name="Path 998" class="cls-11" d="M577.379,347.292s-12.172,5.3-20.234,7.253a15.889,15.889,0,0,1-5.6.644c-5.5-.959,1.438-7.858,1.438-7.858l2.892-.448,15.528-2.42s1.674-23.92,4.542-22S577.379,347.292,577.379,347.292Z" transform="translate(-184.465 -135.965)"/>
      <path id="Path_999" data-name="Path 999" class="cls-11" d="M512.367,323.685s-10.286,7.654-6.459,17.225-19.857-5.744-19.857-5.744,7.654-11.481,9.328-20.093S512.367,323.685,512.367,323.685Z" transform="translate(-170.892 -133.889)"/>
      <path id="Path_1000" data-name="Path 1000" class="cls-6" d="M510.189,430.9a54.219,54.219,0,0,0-13.83-3.222c-6.915-.786-13.249-2.114-16.918-3.575a42.384,42.384,0,0,0,.9-4.558s29.421,5.98,30.646,6.939C511.43,426.866,510.943,428.768,510.189,430.9Z" transform="translate(-169.476 -156.784)"/>
      <path id="Path_1001" data-name="Path 1001" class="cls-6" d="M557.135,361.232a15.89,15.89,0,0,1-5.6.644c-5.5-.959,1.438-7.858,1.438-7.858l2.892-.448C557.072,355.432,558.306,358.34,557.135,361.232Z" transform="translate(-184.463 -142.651)"/>
      <path id="Path_1002" data-name="Path 1002" class="cls-13" d="M493.3,332.168s-9.328-.236-12.675,3.591-2.632,14.145-2.632,14.145-.7,20.659,4.542,32.218a1.572,1.572,0,0,1,.055,1.187c-.055.141-.055.055-.055.055s-3.348,15.072-6.7,17.7,7.174,5.744,19.645,7.174,17.461,5.021,17.461,5.021,2.153-2.357,2.357-7.654-3.324-43.777-3.324-43.777,13.154,3.348,21.052-.715c0,0,3.591,1.917,6.939-3.348s-2.357-11-2.357-11-5.265,5.265-19.857-1.674S497.833,331.932,493.3,332.168Z" transform="translate(-168.57 -138.066)"/>
      <path id="Path_1003" data-name="Path 1003" class="cls-10" d="M406.428,509.35H403.56v4.07l2.868,6.459s3.827.715,4.071.715,3.348-.715,3.348-.715l.959-1.674S404.275,514.128,406.428,509.35Z" transform="translate(-153.223 -176.018)"/>
      <path id="Path_1004" data-name="Path 1004" class="cls-13" d="M520.5,514.111l-4.306,9.571,18.184,8.644,14.357.479s1.194-3.348-3.591-5.021l-3.827-.715s-5.021-9.092-5.5-13.359c0,0-4.786.959-5.5,4.542C530.3,518.173,523.608,521.521,520.5,514.111Z" transform="translate(-177.347 -176.952)"/>
      <path id="Path_1005" data-name="Path 1005" class="cls-13" d="M402.319,508.13l-1.462,1.194-6.428,5.265,14.828,19.645s8.369,3.591,12.2,0c0,0,2.357-2.357-2.868-4.306,0,0-4.07.715-4.07-3.348s.959-8.369,2.357-9.328c0,0-3.591-1.194-4.542-.236a15.183,15.183,0,0,0-1.917,2.632S401.84,516.263,402.319,508.13Z" transform="translate(-151.267 -175.757)"/>
      <path id="Path_1006" data-name="Path 1006" class="cls-6" d="M497.059,315.683a29.064,29.064,0,0,1-.959,3.583,12.439,12.439,0,0,0,15.928,6.844,19.793,19.793,0,0,1,2.02-1.815S498.732,307.07,497.059,315.683Z" transform="translate(-173.044 -134.02)"/>
      <path id="Path_1007" data-name="Path 1007" class="cls-6" d="M495.64,357s7.418,9.807,18.184,10.051" transform="translate(-172.946 -143.386)"/>
      <g id="Group_16" data-name="Group 16" class="cls-14" transform="translate(306.387 194.134)">
        <path id="Path_1008" data-name="Path 1008" d="M551.747,369.175a2.7,2.7,0,0,1-.44-.165q-.346.181-.707.338a4.472,4.472,0,0,0,1.147-.173Z" transform="translate(-491.105 -340.093)"/>
        <path id="Path_1009" data-name="Path 1009" d="M553.586,351.739a11.862,11.862,0,0,0-.833-.959s-1.572,1.572-5.453,1.87a13.2,13.2,0,0,0,6.286-.911Z" transform="translate(-490.398 -336.188)"/>
        <path id="Path_1010" data-name="Path 1010" d="M524.71,369.92l.047.511a47.51,47.51,0,0,0,9.571.786A49.8,49.8,0,0,1,524.71,369.92Z" transform="translate(-485.56 -340.288)"/>
        <path id="Path_1011" data-name="Path 1011" d="M497.537,408.268c-12.439-1.438-22.961-4.542-19.645-7.174s6.7-17.7,6.7-17.7,0,.086.055-.055a1.572,1.572,0,0,0-.055-1.187c-5.241-11.591-4.542-32.218-4.542-32.218s-.715-10.286,2.632-14.145c2.491-2.853,8.3-3.442,11.1-3.56a5.087,5.087,0,0,0-.786,0s-9.328-.236-12.675,3.591-2.632,14.145-2.632,14.145-.7,20.659,4.542,32.218a1.571,1.571,0,0,1,.055,1.187c-.055.141-.055.055-.055.055s-3.324,15.025-6.7,17.657,7.174,5.744,19.645,7.174,17.461,5.021,17.461,5.021a6.132,6.132,0,0,0,.66-.967C510.864,411.137,505.866,409.211,497.537,408.268Z" transform="translate(-474.888 -332.211)"/>
      </g>
      <circle id="Ellipse_55" data-name="Ellipse 55" class="cls-11" cx="12.439" cy="12.439" r="12.439" transform="translate(322.576 167.55)"/>
      <path id="Path_1012" data-name="Path 1012" class="cls-6" d="M517.477,303.078c-1.029,2.577-4.1,3.552-6.8,4.22-3.85.943-8,1.87-11.685.409a2.554,2.554,0,0,0-1.572-.306,2.09,2.09,0,0,0-1.037.9c-4.063,5.784-3.4,13.492-4.456,20.486a11.379,11.379,0,0,1-2.357,6.051c-2.86,3.143-8.259,3.025-10.891,6.365-1.737,2.2-1.752,5.257-1.737,8.062q0,4.487-.079,8.982a13.263,13.263,0,0,1-1.029,5.744c-1.509,2.955-4.872,4.361-7.976,5.5a13.675,13.675,0,0,1-6,1.257c-2.075-.2-4.149-1.572-4.416-3.646-.369-2.813,2.53-4.778,4.526-6.805,3.19-3.23,4.5-7.929,4.621-12.471a13.359,13.359,0,0,0-.786-5.4c-.731-1.784-2.035-3.285-2.821-5.045-2.42-5.422.566-11.693,4.141-16.439s7.968-9.375,8.73-15.26a21.158,21.158,0,0,1,.542-3.78c.55-1.713,1.854-6.444,3.292-7.528a17.107,17.107,0,0,1,7.858-3.269c2.208-.322,4.463-.2,6.656-.629,2.562-.5,4.943-1.713,7.5-2.169,5.54-.982,11.551,5.453,13.979,10.53C516.353,300.4,518.106,301.5,517.477,303.078Z" transform="translate(-164.757 -128.652)"/>
      <path id="Path_1013" data-name="Path 1013" class="cls-15" d="M517.477,302.468c-1.029,2.577-4.1,3.552-6.8,4.22-3.85.943-8,1.87-11.685.409a2.554,2.554,0,0,0-1.572-.306,2.09,2.09,0,0,0-1.037.9c-4.063,5.784-3.4,13.492-4.456,20.486a11.379,11.379,0,0,1-2.357,6.051c-2.86,3.143-8.259,3.025-10.891,6.365-1.737,2.2-1.752,5.257-1.737,8.062q0,4.487-.079,8.982a13.263,13.263,0,0,1-1.029,5.744c-1.509,2.955-4.872,4.361-7.976,5.5a13.674,13.674,0,0,1-6,1.257c-2.075-.2-4.149-1.572-4.416-3.646-.369-2.813,2.53-4.778,4.526-6.805,3.19-3.23,4.5-7.929,4.621-12.471a13.359,13.359,0,0,0-.786-5.4c-.731-1.784-2.035-3.285-2.821-5.045-2.42-5.422.566-11.693,4.141-16.439s7.968-9.375,8.73-15.26a21.158,21.158,0,0,1,.542-3.78c.55-1.713,1.854-6.444,3.292-7.528a17.107,17.107,0,0,1,7.858-3.269c2.208-.322,4.463-.2,6.656-.629,2.562-.5,4.943-1.713,7.5-2.169,5.54-.982,11.551,5.454,13.979,10.53C516.353,299.788,518.106,300.888,517.477,302.468Z" transform="translate(-164.757 -128.522)"/>
      <path id="Path_1014" data-name="Path 1014" class="cls-16" d="M585,276.09H791.8V482.875H585Z" transform="translate(-192.086 -126.056)"/>
      <path id="Path_1015" data-name="Path 1015" d="M654.21,474.465l15.826-9.579c3.057,5.414,5.831,10,12.494,10,6.389,0,10.412-2.5,10.412-12.211V396.592h19.433v66.346c0,20.125-11.787,29.287-29.012,29.287-15.543,0-24.564-8.055-29.146-17.767m68.711-2.082,15.818-9.163c4.165,6.805,9.579,11.787,19.158,11.787,8.055,0,13.186-4.023,13.186-9.579,0-6.664-5.273-9.021-14.145-12.911l-4.856-2.082c-14.019-5.964-23.323-13.461-23.323-29.287,0-14.577,11.1-25.68,28.454-25.68,12.353,0,21.217,4.306,27.621,15.543l-15.127,9.72c-3.332-5.972-6.939-8.33-12.494-8.33-5.689,0-9.3,3.607-9.3,8.33,0,5.831,3.607,8.188,11.936,11.787l4.856,2.082c16.5,7.072,25.822,14.294,25.822,30.536,0,17.492-13.744,27.071-32.218,27.071-18.074,0-29.7-8.644-35.361-19.85" transform="translate(-206.91 -151.624)"/>
      <path id="Path_1016" data-name="Path 1016" class="cls-17" d="M929.082,616.315s-8.07.566-13.052-8.078a28.98,28.98,0,0,0-3.434-4.88,16.5,16.5,0,0,1-2.412-8.762c.275-6.4-6.4-41.483-6.4-41.483s.833-13.359-5.846-21.712c-4.4-5.5-10.726-21.217-14.537-31.369a2.1,2.1,0,0,0,.9.471l-.157-.872h.157l-1.972-10.836a49.414,49.414,0,0,1-7.2-10.907l.448-.094,5.909-1.242s9.6-13.649,10.216-20.36h1.894a231.025,231.025,0,0,1,26.607,1.391h0c0-.039-.063-.212-.141-.487h0a33.412,33.412,0,0,1-.864-4.11h.55l5.5-.361s18.93-21.154,11.968-25.052-14.2,17.539-14.2,17.539l-2.358.424-.636.118c.063-.094.126-.181.2-.267s-30.9-1.383-35.668-8.911c0,0-13.642-10.86-14.2-18.074a8.165,8.165,0,0,0-4.9-6.947,10.7,10.7,0,0,0-5.414-1.014l-6.389.44.448.786H853.9a21.48,21.48,0,0,1-1.006-2.829h.134c-.047-.2-.086-.393-.126-.589a15.032,15.032,0,0,0,11.072-18.514,6.012,6.012,0,0,0,1.878-.055,5.505,5.505,0,0,0,4.078-5.257v-.558a8.078,8.078,0,0,0-3.1-6.208,45.345,45.345,0,0,1-3.929-2.994c-1.375-1.407-2.13-3.293-3.2-4.951a14.7,14.7,0,0,0-7.544-5.87c-2.3-.786-5.131-.864-6.9.786-.912.857-1.438,2.1-2.46,2.821-1.469,1.053-3.465.739-5.265.951a10.043,10.043,0,0,0-7.567,5.666,13.052,13.052,0,0,0-1.242,5.988,15.992,15.992,0,0,0,.5,4.2c.346,1.367.857,2.687,1.234,4.055.786,2.829.967,5.807,1.87,8.6a10.821,10.821,0,0,0,3.481,5.288l-.267,1.147c-.173,0-4.511.967-7.5,7.512-2.357,5.163-10.38,10.491-13.909,12.644a5.8,5.8,0,0,0-2.625,3.646,18.938,18.938,0,0,0-.448,4.628c-.063,3.355.636,8,3.332,13.885,6.121,13.359,10.577,19.205,10.577,19.205s.338,4.094.362,8.408c0,3.214-.236,6.412-.919,8.015-.582,1.352-.786,4.8-.739,8.746,0,7.559.739,17.421.739,17.421s2.13.409,5.422.888l2.051,36.084a17.35,17.35,0,0,1-3.929,12.054,26.671,26.671,0,0,1-4.943,4.715c-5.846,4.173-18.372,48.162-18.372,48.162a15.427,15.427,0,0,1,1.619.118l-3.85,10.742s15.386,11.787,24.745,8.565a9.067,9.067,0,0,1,3.143-.44c1.847,0,5.8-1.462,3.6-3.387a142.654,142.654,0,0,1-12-12.479,6.371,6.371,0,0,1,.864.511V612.9l.134.086a8.841,8.841,0,0,1,.1-1.139l-.134-.047c.283-2.892,1.179-10.216,2.955-11.064,2.224-1.116,18.655-33.688,18.655-33.688L860.9,524.737s13.084,22.553,24.219,26.442v9.43s6.121,27.841,8.353,30.9,0,15.307,0,15.307a7.631,7.631,0,0,0,1.5,1.32l-1.784,10.09s12.809-.558,34.521,6.121C927.691,624.385,936.044,620.77,929.082,616.315ZM877.863,470.72l-2.711.676-.534.134c-.055-.338-.094-.534-.094-.534a5.5,5.5,0,0,1-1.972.479,36.259,36.259,0,0,1-1.65-9.39,63.274,63.274,0,0,1-1.658-11.63,8.339,8.339,0,0,1,1.1-4.793l.9.071.629.6.047.039.322.291h0l.338.3.055.047.362.322.063.055.369.314h0l.417.346.094.079.44.354h0l.432.346.1.079.479.361.1.071.456.338.079.055.519.369.126.086.55.377h.047l.534.354.126.086.574.369.126.079.534.33.1.063.613.361.149.086.636.354h.047l.621.33.149.079.66.33.134.063.613.283.118.055.692.3.165.071.715.291h0C880.142,459.326,877.863,470.72,877.863,470.72Z" transform="translate(-238.654 -144.736)"/>
      <path id="Path_1017" data-name="Path 1017" class="cls-18" d="M809.643,668.16l-5.163,14.4s14.145,10.844,23.339,8.6a25.679,25.679,0,0,1,4.22-.684c1.9-.141,5.178-1.532,3.143-3.293-6.522-5.705-15.221-16.306-15.221-16.306Z" transform="translate(-239.097 -210.034)"/>
      <path id="Path_1018" data-name="Path 1018" class="cls-18" d="M919.674,665.542,917.23,679.4s12.5-.542,33.7,5.98c0,0,8.157-3.536,1.359-7.858,0,0-7.858.542-12.769-7.858s-7.858-7.339-7.858-7.339Z" transform="translate(-263.247 -208.776)"/>
      <path id="Path_1019" data-name="Path 1019" class="cls-19" d="M831.4,531.412l2.357,42.182a17.444,17.444,0,0,1-4.157,12.337,25.572,25.572,0,0,1-4.487,4.188c-5.7,4.078-17.94,47.015-17.94,47.015s13.862.786,17.665,3.536c0,0,.786-10.868,2.986-11.96s18.207-32.886,18.207-32.886l16.038-41.31s12.769,22,23.645,25.822v9.241s5.98,27.181,8.157,30.167,0,14.93,0,14.93,6.286,7.858,20.651-.542c0,0-4.621-5.163-4.346-11.418s-6.286-40.493-6.286-40.493.786-13.044-5.7-21.217-17.28-39.393-17.28-39.393l-7.481-16.093Z" transform="translate(-239.673 -175.198)"/>
      <g id="Group_17" data-name="Group 17" class="cls-14" transform="translate(567.693 330.33)">
        <path id="Path_1020" data-name="Path 1020" d="M809.864,637.129s12.227-42.937,17.94-47.015a25.928,25.928,0,0,0,4.715-4.463,17.288,17.288,0,0,0,3.929-12.054l-2.4-42.19L874.127,506.7l-.542-1.171-41.978,25.884L834,573.6a17.288,17.288,0,0,1-3.929,12.054,25.932,25.932,0,0,1-4.715,4.463c-5.7,4.07-17.94,47.007-17.94,47.007s13.862.786,17.665,3.536a8.314,8.314,0,0,1,.1-1.108C819.836,637.719,809.864,637.129,809.864,637.129Z" transform="translate(-807.42 -505.53)"/>
        <path id="Path_1021" data-name="Path 1021" d="M911.935,648.036s2.177-11.96,0-14.93-8.157-30.167-8.157-30.167v-9.257c-10.868-3.8-23.645-25.822-23.645-25.822l-.943,2.467c3.685,5.846,13.516,20.352,22.152,23.37v9.241s5.98,27.181,8.157,30.167,0,14.93,0,14.93,3.033,3.819,9.728,3.3A10.651,10.651,0,0,1,911.935,648.036Z" transform="translate(-822.793 -518.881)"/>
      </g>
      <path id="Path_1022" data-name="Path 1022" class="cls-20" d="M954.779,471.5l-5.336.354-2.813.189v-6.8l3.693-.668,2.287-.417s7.072-20.926,13.862-17.123S954.779,471.5,954.779,471.5Z" transform="translate(-269.544 -162.572)"/>
      <path id="Path_1023" data-name="Path 1023" class="cls-20" d="M846.792,407s-3.536,13.587-4.621,22,25.272,1.634,25.272,1.634-10.058-12.227-4.346-18.749Z" transform="translate(-247.163 -154.096)"/>
      <path id="Path_1024" data-name="Path 1024" class="cls-10" d="M875.04,466.393l.542,5.163-8.424-.542-8.424-7.339-8.424-23.653-5.422-8.432-4.078-5.163,1.635-6.286s.747.652,2,1.611c4.141,3.143,13.846,9.752,20.942,7.929a8.467,8.467,0,0,0,.967-.306l10.6,18.207Z" transform="translate(-246.879 -156.91)"/>
      <path id="Path_1025" data-name="Path 1025" class="cls-6" d="M839.121,418.108s-4.346.786-7.339,7.339c-2.295,5.013-10.058,10.216-13.524,12.314a5.8,5.8,0,0,0-2.632,3.662c-.7,3.1-.966,8.872,2.837,17.178,5.98,13.044,10.326,18.749,10.326,18.749s1.084,13.044-.542,16.848,0,24.729,0,24.729,28.533,5.438,38.049,0,8.157-26.364,8.157-26.364,8.966,19.024,12.227,19.567l-1.9-10.6s-10.6-11.418-11.143-26.089c0,0-3.261-13.319-.542-16.848,0,0,45.931,3.8,48.649.542,0,0-30.167-1.359-34.788-8.7,0,0-13.319-10.6-13.862-17.665a7.81,7.81,0,0,0-4.078-6.4,10.64,10.64,0,0,0-6.09-1.359l-6.137.424s10.6,18.749,10.058,21.217.542,22.286.542,22.286-12.266-26.364-17.665-29.35-11.693-15.276-11.693-15.276l1.084-6.208" transform="translate(-241.394 -156.473)"/>
      <path id="Path_1026" data-name="Path 1026" class="cls-6" d="M875.04,466.393l.542,5.163-8.424-.542-8.424-7.339-8.424-23.653-5.422-8.432-4.078-5.163,1.635-6.286s.747.652,2,1.611l-.377,2.145s6.286,12.274,11.685,15.268,17.665,29.35,17.665,29.35-1.084-19.842-.542-22.286c.369-1.658-4.393-10.821-7.489-16.549a8.469,8.469,0,0,0,.966-.307l10.6,18.207Z" transform="translate(-246.879 -156.91)"/>
      <path id="Path_1027" data-name="Path 1027" class="cls-6" d="M949.443,476.757l-2.813.189v-6.8l3.693-.668C949.034,471.185,949.082,474.2,949.443,476.757Z" transform="translate(-269.544 -167.478)"/>
      <path id="Path_1028" data-name="Path 1028" class="cls-19" d="M839.121,417.08s-4.346.786-7.339,7.339c-2.295,5.013-10.058,10.216-13.524,12.314a5.8,5.8,0,0,0-2.632,3.662c-.7,3.1-.966,8.872,2.837,17.178,5.98,13.044,10.326,18.749,10.326,18.749s1.084,13.044-.542,16.848,0,24.729,0,24.729,28.533,5.438,38.049,0,8.157-26.364,8.157-26.364,8.958,18.993,12.227,19.574l-1.9-10.6s-10.6-11.418-11.143-26.089c0,0-3.261-13.319-.542-16.848,0,0,10.6,11.418,22.561,11.143a225.025,225.025,0,0,1,26.089,1.359s-2.719-8.7,0-11.96c0,0-30.167-1.359-34.788-8.7,0,0-13.319-10.6-13.862-17.665a7.811,7.811,0,0,0-4.078-6.4,10.64,10.64,0,0,0-6.09-1.359l-6.137.424s10.6,18.749,10.058,21.217.542,22.285.542,22.285-12.266-26.38-17.665-29.366S838.029,423.3,838.029,423.3l1.084-6.208" transform="translate(-241.394 -156.255)"/>
      <path id="Path_1029" data-name="Path 1029" class="cls-6" d="M835.933,453.39s6.522,22,10.326,24.729,26.906,16.581,33.7,13.319c0,0,1.635,8.157-.786,10.058,0,0-25.342-.99-25.547-1.084,0,0-16.581-2.177-19.3-10.326s-5.98-22-5.98-22Z" transform="translate(-244.21 -164.032)"/>
      <ellipse id="Ellipse_56" data-name="Ellipse 56" class="cls-21" cx="0.951" cy="1.359" rx="0.951" ry="1.359" transform="translate(625.584 311.51)"/>
      <ellipse id="Ellipse_57" data-name="Ellipse 57" class="cls-21" cx="0.951" cy="1.359" rx="0.951" ry="1.359" transform="translate(628.295 321.018)"/>
      <g id="Group_18" data-name="Group 18" class="cls-14" transform="translate(573.811 260.802)">
        <path id="Path_1030" data-name="Path 1030" d="M830.155,517.594s-1.634-20.926,0-24.729.542-16.848.542-16.848-4.346-5.7-10.326-18.749c-3.811-8.306-3.536-14.082-2.837-17.178a5.8,5.8,0,0,1,2.632-3.662c3.465-2.122,11.221-7.3,13.524-12.314a14.189,14.189,0,0,1,5.328-6.467l.1-.6s-4.346.786-7.339,7.339c-2.295,5.013-10.058,10.215-13.524,12.314a5.8,5.8,0,0,0-2.632,3.662c-.7,3.1-.966,8.872,2.837,17.178,5.98,13.044,10.326,18.749,10.326,18.749s1.084,13.044-.542,16.848,0,24.729,0,24.729,20.384,3.882,32.438,1.8C848.511,521.122,830.155,517.594,830.155,517.594Z" transform="translate(-815.205 -417.05)"/>
        <path id="Path_1031" data-name="Path 1031" d="M878.168,447.577c-.369,1.674,0,11.52.306,17.555,1.312,2.68,2.137,4.463,2.137,4.463s-1.084-19.842-.542-22.285c.519-2.357-9.029-19.378-9.98-21.06l-1.98.134S878.718,445.133,878.168,447.577Z" transform="translate(-826.537 -419.021)"/>
        <path id="Path_1032" data-name="Path 1032" d="M913.664,479.4c-11.96.275-22.561-11.143-22.561-11.143a4.355,4.355,0,0,0-.684,1.469c3.143,2.923,11.787,10.161,21.343,9.94a225.013,225.013,0,0,1,26.089,1.359s-.055-.181-.141-.487a216.366,216.366,0,0,0-24.046-1.139Z" transform="translate(-831.315 -428.019)"/>
        <path id="Path_1033" data-name="Path 1033" d="M893,511.49s.11,1.7.047,4.243c2.829,5.611,7.976,15.205,10.278,15.59l-.4-2.232C898.972,524.126,893,511.49,893,511.49Z" transform="translate(-831.868 -437.278)"/>
      </g>
      <path id="Path_1034" data-name="Path 1034" class="cls-20" d="M899.883,501.611l-5.776,1.218-4.558.959,2.444-6.8,1.705-.424,2.648-.66s3.8-19.024,11.418-17.665S899.883,501.611,899.883,501.611Z" transform="translate(-257.318 -169.34)"/>
      <path id="Path_1035" data-name="Path 1035" class="cls-6" d="M894.118,507.873l-4.558.959,2.444-6.8,1.705-.424a27.138,27.138,0,0,1,.409,6.263Z" transform="translate(-257.32 -174.36)"/>
      <path id="Path_1036" data-name="Path 1036" class="cls-19" d="M835.933,452.7s6.522,22,10.326,24.729,26.906,16.581,33.7,13.319c0,0,1.635,8.157-.786,10.058,0,0-25.342-.99-25.547-1.084,0,0-16.581-2.177-19.3-10.326s-5.98-22-5.98-22Z" transform="translate(-244.21 -163.884)"/>
      <path id="Path_1037" data-name="Path 1037" class="cls-6" d="M848.049,407.74s-.55,2.13-1.289,5.226a14.671,14.671,0,0,0,16.2,7.465c-.652-2.79-.511-5.611,1.4-7.8Z" transform="translate(-248.153 -154.254)"/>
      <circle id="Ellipse_58" data-name="Ellipse 58" class="cls-20" cx="14.679" cy="14.679" r="14.679" transform="translate(596.635 236.63)"/>
      <path id="Path_1038" data-name="Path 1038" class="cls-6" d="M870.143,393.014a7.859,7.859,0,0,0,3.269.2,5.383,5.383,0,0,0,3.976-5.131,7.859,7.859,0,0,0-3.025-6.059c-1.242-1.037-2.727-1.768-3.866-2.923-1.344-1.375-2.082-3.214-3.143-4.833a14.341,14.341,0,0,0-7.363-5.729c-2.247-.786-5.006-.849-6.734.786-.888.841-1.407,2.043-2.4,2.758-1.438,1.022-3.387.723-5.139.927a9.8,9.8,0,0,0-7.387,5.5,13.838,13.838,0,0,0-.723,9.43c.338,1.336.841,2.625,1.2,3.929.786,2.766.943,5.666,1.823,8.392s2.7,5.4,5.446,6.216a17.217,17.217,0,0,1,1.752-8.872,2.546,2.546,0,0,1,1.242-1.383,3,3,0,0,1,1.493,0,14.93,14.93,0,0,0,9.94-2.012c1.045-.629,2.672-2.8,3.78-3.01C865.719,390.963,868.651,392.684,870.143,393.014Z" transform="translate(-246.084 -145.744)"/>
      <path id="Path_1039" data-name="Path 1039" class="cls-22" d="M870.143,392.324a7.859,7.859,0,0,0,3.269.2,5.383,5.383,0,0,0,3.976-5.131,7.858,7.858,0,0,0-3.025-6.059c-1.242-1.037-2.727-1.768-3.866-2.923-1.344-1.375-2.082-3.214-3.143-4.833a14.34,14.34,0,0,0-7.363-5.729c-2.247-.786-5.006-.849-6.734.786-.888.841-1.407,2.043-2.4,2.758-1.438,1.022-3.387.723-5.139.927a9.8,9.8,0,0,0-7.387,5.5,13.838,13.838,0,0,0-.723,9.43c.338,1.336.841,2.625,1.2,3.929.786,2.766.943,5.666,1.823,8.392s2.7,5.4,5.446,6.216a17.218,17.218,0,0,1,1.768-8.864,2.545,2.545,0,0,1,1.242-1.383,3,3,0,0,1,1.493,0,14.931,14.931,0,0,0,9.94-2.012c1.045-.629,2.672-2.8,3.78-3.01C865.719,390.273,868.651,391.994,870.143,392.324Z" transform="translate(-246.084 -145.596)"/>
      <path id="Path_1040" data-name="Path 1040" class="cls-23" d="M1029.672,337.49,1017.7,471.627l-53.828,14.93-53.679-14.93L898.23,337.49Z" transform="translate(-259.177 -139.207)"/>
      <path id="Path_1041" data-name="Path 1041" class="cls-24" d="M981.86,478.138l43.494-12.054L1035.57,351.45H981.86Z" transform="translate(-277.09 -142.197)"/>
      <path id="Path_1042" data-name="Path 1042" class="cls-25" d="M947.339,388.845h23.276V372.39H929.36l.393,4.416,4.047,45.341h36.823V405.693H948.848Zm3.74,41.53h-16.5l2.3,25.837,33.664,9.383h.079v-17.17h-.071l-18.325-4.951Z" transform="translate(-265.845 -146.683)"/>
      <path id="Path_1043" data-name="Path 1043" d="M913.8,291.09h8.361v8.259h7.646V291.09h8.361v25.02h-8.361v-8.377h-7.646v8.377H913.8Zm35.361,8.3H941.8v-8.3h23.087v8.3h-7.363V316.11h-8.353V299.388h0Zm19.394-8.3h8.722l5.367,8.793L988,291.09h8.722v25.02H988.4v-12.4l-5.752,8.9H982.5l-5.76-8.9v12.4h-8.188Zm32.328,0h8.361v16.746h11.787V316.1h-20.125V291.09Z" transform="translate(-262.512 -129.269)"/>
      <path id="Path_1044" data-name="Path 1044" class="cls-26" d="M981.79,422.145h20.258l-1.909,21.343-18.349,4.951v17.154l33.735-9.351.244-2.782,3.866-43.322.4-4.416H981.79v16.455Zm0-33.342v.039h39.746l.33-3.7.786-8.345.393-4.416H981.79V388.8Z" transform="translate(-277.075 -146.68)"/>
      <path id="Path_1045" data-name="Path 1045" class="cls-27" d="M419.161,446.026c-1.532-4.487-3.74-10.215-5.5-11.52a1.643,1.643,0,0,0-.346-.212h-.22v-5.54l-4.133.66a39.5,39.5,0,0,1-1.5-6.137,2.852,2.852,0,0,0,3.1.621c-.071-.11-.126-.228-.189-.346l.189-.079a7.677,7.677,0,0,1-1-3.764,13.7,13.7,0,0,1,.574-3.552c.739-2.554,1.988-4.943,2.688-7.5a18.247,18.247,0,0,0,.629-5.076,18.5,18.5,0,0,0-1.933-8.369,4.889,4.889,0,0,0-1.462-1.91,18.836,18.836,0,0,0-1.792-.872,9.674,9.674,0,0,1-2.6-2.593,23.37,23.37,0,0,0-11.292-7.536,6.608,6.608,0,0,0-3.607-.283c-2.774.786-3.788,4.188-6.035,5.988-1.988,1.572-4.715,1.752-7.2,2.287a12.243,12.243,0,0,0-6.7,3.513,7.277,7.277,0,0,0-1.8,4.856A4.88,4.88,0,0,0,371.022,403a6.232,6.232,0,0,0,5.265.747,17.909,17.909,0,0,0,13.555,22.513l.487.864h0a37.081,37.081,0,0,1,3.355,8.777c-3.8,2.161-7.96,4.181-10.467,4.369a17.646,17.646,0,0,1-.542,2.9,16.007,16.007,0,0,1-3.293,6.483c-3.41,3.835-18.757,32.831-18.757,32.831s-.487,1.155-1.273,3.143c-9.532,1.171-25.083,2.86-29.428,1.988l-17.052-16.2s-5.5,4.2-5.029,9.312l-3.073-2.923s-16.2,12.361,9.383,20.431l38.929,4.518c-3.709,11.19-7.167,24.211-6.1,31.3h.322a14.705,14.705,0,0,0,2.224-.173l-.071,1.257-3.748,67.132s-.857,12.361,10.656,17.909c0,0,14.074,41.357,8.526,46.048,0,0,.66.346,1.768.833l-11.575,10.216s-8.526,2.13-13.217,1.705a3.387,3.387,0,0,0-3.74,2.522.552.552,0,0,1-.047.267v.825a.5.5,0,0,0,.055.275v.1a2.7,2.7,0,0,0,.094.291v.094c.039.094.086.189.134.283v.063c.055.094.11.189.173.283l.055.079q.1.149.228.3l.063.079c.086.1.181.2.283.3h.047l.314.267.071.055.385.275.094.063.448.259h.071l.479.236h.071l.558.228.118.047.621.2h.1l.668.173h.055l.786.149h.149l.786.118h.149l.9.086c1.752.134,4.118.181,6.852.173h0v.44a.5.5,0,0,0,.055.275v.1a2.693,2.693,0,0,0,.094.291v.094c.039.094.086.189.134.283v.063c.055.094.11.189.173.283l.055.079q.1.149.228.3l.063.078c.086.1.181.2.283.3h.039l.314.267.071.055.385.275.094.063.44.259h.071l.479.236h.071l.558.228.118.047.621.2h.1l.668.173h.055l.786.149H359l.786.118h.149l.9.086c11.088.857,46.473-1.705,46.473-1.705V690h0v-.126h0c.354-1.65,2.051-11.245-3.984-18.341q.271-.283.519-.589s-4.715-8.1-2.13-10.656-12.486-46.5-12.486-46.5-8.1-12.793-3.41-27.291-.424-30.269-.424-30.269,11.2-3.316,11.4-17.091v-1.281a4.524,4.524,0,0,0,.707.047,3.3,3.3,0,0,0,.471,0s-2.13-7.677.424-13.217,8.1-.424,13.217-23.024c3.7-16.353,6.954-35.157,8.479-44.312A23.331,23.331,0,0,0,419.161,446.026Zm-97.3,47.934-3.89-3.693c1.289.534,2.719,1.053,4.314,1.572l14.655,1.721c-6.538.589-12.644.919-15.08.424Z" transform="translate(-130.979 -148.716)"/>
      <path id="Path_1046" data-name="Path 1046" class="cls-11" d="M359.274,518.229s-30.159,4.188-36.446,2.931l-16.753-15.92s-15.92,12.149,9.218,20.109l46.913,5.446Z" transform="translate(-131.277 -175.138)"/>
      <path id="Path_1047" data-name="Path 1047" class="cls-28" d="M359.274,518.229s-30.159,4.188-36.446,2.931l-16.753-15.92s-15.92,12.149,9.218,20.109l46.913,5.446Z" transform="translate(-131.277 -175.138)"/>
      <path id="Path_1048" data-name="Path 1048" class="cls-29" d="M278.277,485.891,213.1,467.818,198.58,304.92H358.17L343.632,467.794Z" transform="translate(-109.318 -132.231)"/>
      <path id="Path_1049" data-name="Path 1049" class="cls-30" d="M352.938,461.062,365.362,321.88H300.14V475.67Z" transform="translate(-131.071 -135.864)"/>
      <path id="Path_1050" data-name="Path 1050" class="cls-25" d="M240.008,387.708l1.792,19.975h44.712V387.708Zm-3.6-40.438,1.815,19.975H286.5V347.27H236.37Zm50.1,92.325h-.086l-22.254-6.011-1.422-15.936H242.649l2.8,31.369L286.371,460.4h.094Z" transform="translate(-117.412 -141.302)"/>
      <path id="Path_1051" data-name="Path 1051" d="M246.38,248.56h24.2v10.121H256.493V268.8h14.082v10.121h-24.2Zm29.075,0h24.2v8.8H285.537v1.76h14.082v20.242h-24.2v-9.241H289.5v-1.76H275.416v-19.8Zm29.075,0h24.2v8.8H314.572v1.76h14.082v20.242h-24.2v-9.241h14.082v-1.76H304.451v-19.8Z" transform="translate(-119.556 -120.159)"/>
      <path id="Path_1052" data-name="Path 1052" class="cls-26" d="M346.473,387.708l3.607-40.438H300v19.975h28.155l-1.815,20.431H300v19.975h24.6l-2.357,25.932L300,439.61v20.785l40.956-11.355.3-3.379,4.715-52.6.487-5.367Z" transform="translate(-131.041 -141.302)"/>
      <path id="Path_1053" data-name="Path 1053" class="cls-31" d="M380.444,738.19l-14.663,12.982s-8.377,2.1-12.982,1.674-6.7,7.119,4.188,7.96,45.655-1.674,45.655-1.674,3.348-13.406-6.7-20.942Z" transform="translate(-141.549 -225.034)"/>
      <path id="Path_1054" data-name="Path 1054" class="cls-28" d="M380.444,738.19l-14.663,12.982s-8.377,2.1-12.982,1.674-6.7,7.119,4.188,7.96,45.655-1.674,45.655-1.674,3.348-13.406-6.7-20.942Z" transform="translate(-141.549 -225.034)"/>
      <path id="Path_1055" data-name="Path 1055" class="cls-32" d="M403.161,757.47a23.1,23.1,0,0,1-.526,4.542s-34.764,2.515-45.655,1.674c-5.241-.4-7.465-2.357-7.858-4.228-.479,2.153,1.422,4.99,7.858,5.5,10.891.841,45.655-1.674,45.655-1.674A24.2,24.2,0,0,0,403.161,757.47Z" transform="translate(-141.547 -229.164)"/>
      <path id="Path_1056" data-name="Path 1056" class="cls-11" d="M410.84,432.787s9.218,12.982,5.862,21.783,17.594-9.218,17.594-9.218-6.7-11.779-3.348-24.352Z" transform="translate(-154.782 -157.094)"/>
      <path id="Path_1057" data-name="Path 1057" class="cls-31" d="M399.089,744.59l-14.647,12.982s-8.377,2.1-12.982,1.674-6.7,7.119,4.188,7.96,45.655-1.674,45.655-1.674,3.348-13.406-6.7-20.942Z" transform="translate(-145.545 -226.405)"/>
      <path id="Path_1058" data-name="Path 1058" class="cls-12" d="M401.351,699.307a11.118,11.118,0,0,1-8.487,3.89c-7.324.346-15.386-3.89-15.386-3.89,5.446-4.6-8.377-45.239-8.377-45.239-11.308-5.446-10.475-17.594-10.475-17.594l3.662-65.929.927-16.565,11.732-7.119,9.241,7.072,8.77,6.727a35.25,35.25,0,0,1,1.1,6.538c1.022,15.394-11.151,19.017-11.151,19.017s5.029,15.5.417,29.743,3.348,26.812,3.348,26.812,15.08,43.565,12.573,46.08S401.351,699.307,401.351,699.307Z" transform="translate(-143.596 -184.053)"/>
      <path id="Path_1059" data-name="Path 1059" class="cls-28" d="M401.351,699.307a11.118,11.118,0,0,1-8.487,3.89c-7.324.346-15.386-3.89-15.386-3.89,5.446-4.6-8.377-45.239-8.377-45.239-11.308-5.446-10.475-17.594-10.475-17.594l3.662-65.929.927-16.565,11.732-7.119,9.241,7.072,8.77,6.727a35.25,35.25,0,0,1,1.1,6.538c1.022,15.394-11.151,19.017-11.151,19.017s5.029,15.5.417,29.743,3.348,26.812,3.348,26.812,15.08,43.565,12.573,46.08S401.351,699.307,401.351,699.307Z" transform="translate(-143.596 -184.053)"/>
      <path id="Path_1060" data-name="Path 1060" class="cls-12" d="M418.157,705.692c-7.119,8.793-23.873,0-23.873,0a2.671,2.671,0,0,0,.731-1.139c3.073-8.353-10.365-48.288-10.365-48.288-11.308-5.446-12.573-18.427-12.573-18.427l-2.962-67.124-.385-8.691,17.626-6.727,5.414-2.067L409.8,567.052a32.666,32.666,0,0,1,1.132,8.785c-.228,13.524-11.206,16.793-11.206,16.793s5.029,15.5.416,29.743,3.371,26.772,3.371,26.772,15.08,43.565,12.573,46.08S418.157,705.692,418.157,705.692Z" transform="translate(-145.763 -185.417)"/>
      <path id="Path_1061" data-name="Path 1061" class="cls-6" d="M409.771,574.475c-3.623-.519-10.954-4.88-14.718-7.245-1.438-.9-2.357-1.509-2.357-1.509s-3.772-10.475-13.822-2.515a37.628,37.628,0,0,1-10.923,6.176,25.553,25.553,0,0,1-4.66,1.171l.927-16.565,11.732-7.119,9.241,7.072,5.414-2.067,18.034,13.815a32.666,32.666,0,0,1,1.132,8.785Z" transform="translate(-144.597 -184.055)"/>
      <path id="Path_1062" data-name="Path 1062" class="cls-33" d="M431.728,472.059c-1.493,8.99-4.715,27.5-8.33,43.526-5.029,22.2-10.475,17.17-12.982,22.616S410,551.182,410,551.182c-4.188.417-18.011-8.793-18.011-8.793s-3.772-10.475-13.822-2.515-18.011,7.536-18.011,7.536c-2.1-13.822,13.406-50.685,13.406-50.685s15.08-28.486,18.427-32.218a15.716,15.716,0,0,0,3.238-6.365,17.328,17.328,0,0,0,.534-2.845c5.446-.417,18.859-9.634,18.859-9.634L425.1,443.99v5.446a1.573,1.573,0,0,1,.346.212c1.721,1.312,3.929,6.907,5.4,11.316a22.922,22.922,0,0,1,.888,11.1Z" transform="translate(-143.884 -162.019)"/>
      <path id="Path_1063" data-name="Path 1063" class="cls-11" d="M372.344,522.8l-5.414-.629-41.5-4.817c-25.146-7.96-9.218-20.109-9.218-20.109l16.753,15.92c4.833.967,23.794-1.289,32.289-2.357,2.546-.33,4.157-.55,4.157-.55Z" transform="translate(-133.449 -173.427)"/>
      <path id="Path_1064" data-name="Path 1064" class="cls-6" d="M427.779,457.461s-10.891-8.793-27.26,19.684-20.109,23.873-20.109,23.873,3.348,12.573,1.674,15.08c0,0,11.308-.841,15.5,0s30.159-31.833,30.159-31.833S441.184,465.837,427.779,457.461Z" transform="translate(-148.264 -164.63)"/>
      <path id="Path_1065" data-name="Path 1065" class="cls-6" d="M427.257,455.331s-10.891-8.793-27.228,19.684-20.109,23.873-20.109,23.873,12.982,14.239,17.17,15.08,30.159-31.833,30.159-31.833S440.663,463.707,427.257,455.331Z" transform="translate(-148.159 -164.173)"/>
      <path id="Path_1066" data-name="Path 1066" class="cls-6" d="M381.644,525.746c.173-3.1-1-8.557-1.674-11.386,2.546-.33,4.157-.55,4.157-.55l2.931,12.573Z" transform="translate(-148.17 -176.974)"/>
      <path id="Path_1067" data-name="Path 1067" class="cls-33" d="M427.779,456.391s-10.891-8.793-27.26,19.692-20.109,23.873-20.109,23.873,3.348,12.573,1.674,15.08c0,0,11.308-.841,15.5,0S427.739,483.2,427.739,483.2,441.184,464.767,427.779,456.391Z" transform="translate(-148.264 -164.4)"/>
      <path id="Path_1068" data-name="Path 1068" class="cls-6" d="M431.51,422.09l-20.14,11.716a42.988,42.988,0,0,1,2.357,3.835,17.674,17.674,0,0,0,3.52.354c5.367,0,7.858-5.634,11.1-9.43C428.116,425.547,430.583,425.469,431.51,422.09Z" transform="translate(-154.896 -157.328)"/>
      <circle id="Ellipse_59" data-name="Ellipse 59" class="cls-11" cx="17.594" cy="17.594" r="17.594" transform="translate(244.326 244.661)"/>
      <path id="Path_1069" data-name="Path 1069" class="cls-6" d="M389.513,397.6a12.023,12.023,0,0,1,6.585-3.458c2.444-.526,5.123-.684,7.072-2.247,2.208-1.768,3.2-5.131,5.925-5.886a6.5,6.5,0,0,1,3.544.283,22.954,22.954,0,0,1,11.1,7.4,9.5,9.5,0,0,0,2.562,2.554,18.556,18.556,0,0,1,1.76.857,4.8,4.8,0,0,1,1.43,1.878,18.215,18.215,0,0,1,1.273,12.785c-.684,2.522-1.91,4.864-2.64,7.379s-.912,5.359.416,7.607c-1.289.66-2.915-.173-3.725-1.375a14.743,14.743,0,0,1-1.477-4.07,15.519,15.519,0,0,0-4.542-7.072c-1.32-1.163-3.678-1.949-4.6-.448-.354.582-.33,1.328-.637,1.933a2.6,2.6,0,0,1-3.481.786,5.336,5.336,0,0,1-2.177-3.23c-1.721-5.839-4.668-9.508-10.907-7.017-2.357.927-5.068,1.572-7.308,0C386.817,404.15,387.391,399.977,389.513,397.6Z" transform="translate(-149.831 -149.572)"/>
      <path id="Path_1070" data-name="Path 1070" class="cls-34" d="M389.513,397.056A12.023,12.023,0,0,1,396.1,393.6c2.444-.526,5.123-.684,7.072-2.247,2.208-1.768,3.2-5.131,5.925-5.886a6.5,6.5,0,0,1,3.544.283,22.953,22.953,0,0,1,11.1,7.4A9.5,9.5,0,0,0,426.3,395.7a18.531,18.531,0,0,1,1.76.857,4.8,4.8,0,0,1,1.43,1.878,18.215,18.215,0,0,1,1.273,12.785c-.684,2.522-1.91,4.864-2.64,7.379s-.912,5.359.416,7.607c-1.289.66-2.915-.173-3.725-1.375a14.743,14.743,0,0,1-1.477-4.07,15.519,15.519,0,0,0-4.542-7.072c-1.32-1.163-3.678-1.949-4.6-.448-.354.582-.33,1.328-.637,1.933a2.6,2.6,0,0,1-3.481.786,5.335,5.335,0,0,1-2.177-3.23c-1.721-5.839-4.668-9.508-10.907-7.017-2.357.927-5.068,1.572-7.308,0C386.817,403.618,387.391,399.445,389.513,397.056Z" transform="translate(-149.831 -149.456)"/>
      <path id="Path_1071" data-name="Path 1071" class="cls-28" d="M435.029,449.61h-8.51s-16.753,8.377-17.17,7.96c-.283-.283-2.876.2-4.518.542a17.331,17.331,0,0,0,.534-2.845c5.446-.417,18.859-9.634,18.859-9.634L434.7,443.96v5.446A1.57,1.57,0,0,1,435.029,449.61Z" transform="translate(-153.495 -162.012)"/>
      <path id="Path_1072" data-name="Path 1072" class="cls-32" d="M421.811,763.86a23.1,23.1,0,0,1-.526,4.542s-34.764,2.514-45.655,1.674c-5.241-.4-7.465-2.357-7.858-4.228-.479,2.153,1.422,4.99,7.858,5.5,10.891.841,45.655-1.674,45.655-1.674a24.2,24.2,0,0,0,.526-5.815Z" transform="translate(-145.542 -230.532)"/>
      <g id="Group_19" data-name="Group 19" class="cls-35" transform="translate(216.367 287.378)">
        <path id="Path_1073" data-name="Path 1073" d="M374.262,564.669a35.851,35.851,0,0,1-13.932,7.072,5.879,5.879,0,0,0,.11.919s7.96.417,18.011-7.536a13.5,13.5,0,0,1,5.383-2.813C381.641,561.235,378.514,561.306,374.262,564.669Z" transform="translate(-360.33 -474.608)"/>
        <path id="Path_1074" data-name="Path 1074" d="M443.36,462.4c-1.5-4.408-3.678-10-5.4-11.316a1.57,1.57,0,0,0-.346-.212s-3.465.118-3.348.212c1.721,1.312,3.4,6.491,4.9,10.891a22.921,22.921,0,0,1,.912,11.127c-1.493,8.99-4.715,27.5-8.33,43.526-5.029,22.2-10.475,17.17-12.982,22.616-2.059,4.463-1.029,10.326-.582,12.3a10.538,10.538,0,0,0,4.353,1.108s-2.1-7.536.416-12.982,7.96-.417,12.982-22.616c3.638-16.062,6.837-34.576,8.33-43.526a22.922,22.922,0,0,0-.912-11.127Z" transform="translate(-372.583 -450.87)"/>
      </g>
      <path id="Path_1075" data-name="Path 1075" class="cls-4" d="M504.381,561.143a9.17,9.17,0,0,0,3.01-4.542c.393-1.807-.377-3.968-2.106-4.629-1.933-.739-4,.6-5.564,1.957s-3.363,2.9-5.414,2.609a8.235,8.235,0,0,0,2.546-7.709,3.222,3.222,0,0,0-.707-1.572c-1.077-1.147-3.017-.652-4.306.251-4.086,2.876-5.226,8.424-5.249,13.422-.409-1.8-.063-3.678-.079-5.5s-.519-3.929-2.075-4.888a6.286,6.286,0,0,0-3.143-.746c-1.839-.071-3.882.118-5.139,1.462-1.572,1.666-1.155,4.471.2,6.286s3.418,2.986,5.32,4.259a11.786,11.786,0,0,1,3.8,3.622,3.587,3.587,0,0,1,.283.644h11.512A32.087,32.087,0,0,0,504.381,561.143Z" transform="translate(-168.556 -183.995)"/>
      <path id="Path_1076" data-name="Path 1076" class="cls-4" d="M528.459,747.5c1.831-1.705,3.552-3.717,4.086-6.161s-.511-5.383-2.852-6.286c-2.617-1.006-5.422.786-7.544,2.648s-4.558,3.929-7.332,3.536a11.167,11.167,0,0,0,3.45-10.451,4.369,4.369,0,0,0-.959-2.122c-1.454-1.572-4.094-.888-5.831.338-5.5,3.929-7.072,11.418-7.112,18.192-.558-2.444-.086-4.99-.1-7.5s-.7-5.281-2.813-6.632a8.478,8.478,0,0,0-4.29-1.006c-2.491-.094-5.265.157-6.962,1.98-2.114,2.263-1.572,6.059.275,8.549s4.636,4.055,7.206,5.776a15.982,15.982,0,0,1,5.147,4.911,4.861,4.861,0,0,1,.385.88h15.614a43.5,43.5,0,0,0,9.634-6.656Z" transform="translate(-171.488 -222.797)"/>
    </g>
  </g>
</svg>
